<?xml version="1.0" encoding="UTF-8" standalone="no"?>
<svg width="24px" height="24px" viewBox="0 0 24 24" version="1.1" xmlns="http://www.w3.org/2000/svg" xmlns:xlink="http://www.w3.org/1999/xlink">
    <!-- Generator: Sketch 3.8.3 (29802) - http://www.bohemiancoding.com/sketch -->
    <title>collect-active</title>
    <desc>Created with Sketch.</desc>
    <defs></defs>
    <g id="Page-1" stroke="none" stroke-width="1" fill="none" fill-rule="evenodd">
        <g id="深度看图图标导出" transform="translate(-183.000000, -110.369995)">
            <g id="layer1">
                <rect id="rect38567" opacity="0" x="-2.84217094e-14" y="0" width="893.46198" height="228.77823" rx="0.000115532"></rect>
                <g id="collect-active" transform="translate(182.000000, 110.000000)">
                    <rect id="rect34242" opacity="0" x="0.98222" y="0.3624" width="24" height="24" rx="1.7382799e-05"></rect>
                    <path d="M8.99609,5.3672 C8.78813,5.3772 8.58094,5.4032 8.37695,5.4452 L8.37695,5.4452 C6.53739,5.8272 4.97852,7.47 4.97852,9.9237 C4.97852,12.407 6.71196,14.1167 8.4707,15.4803 C10.22945,16.844 12.04456,17.9955 12.52344,19.0331 C12.70449,19.4245 13.26295,19.4185 13.43555,19.0231 C13.9204,17.9322 15.72801,16.7657 17.48438,15.4039 C19.24072,14.0422 20.97852,12.3601 20.97852,9.9215 C20.97852,7.4678 19.41965,5.825 17.58008,5.443 C15.94817,5.104 14.13693,5.8006 12.97852,7.4704 C11.9649,6.0093 10.45187,5.2939 8.99609,5.3649 L8.99609,5.3672 Z" id="path34244" fill="#F13D5B" opacity="0.918"></path>
                </g>
            </g>
        </g>
    </g>
</svg>