<?xml version="1.0" encoding="UTF-8"?>
<svg width="24px" height="24px" viewBox="0 0 24 24" version="1.1" xmlns="http://www.w3.org/2000/svg" xmlns:xlink="http://www.w3.org/1999/xlink">
    <!-- Generator: Sketch 58 (84663) - https://sketch.com -->
    <title>all music_normal</title>
    <desc>Created with Sketch.</desc>
    <g id="页面-1" stroke="none" stroke-width="1" fill="none" fill-rule="evenodd">
        <g id="按钮规范" transform="translate(-151.000000, -144.000000)">
            <g id="all-music_normal" transform="translate(151.000000, 144.000000)">
                <g id="Page-1">
                    <polygon id="Stroke-1" stroke-opacity="0.00784313771" stroke="#000000" stroke-width="1.33333335e-11" points="0 0 23.9999985 0 23.9999985 23.9999985 0 23.9999985"></polygon>
                    <path d="M5.48982411,17.974919 C6.0656474,17.974919 6.65549074,17.8219276 7.19526248,17.5310428 C8.38496347,16.8898884 9.05492136,15.7203099 8.96979965,14.6463511 C8.97280395,14.6232011 8.98281827,14.6040772 8.98281827,14.5809272 L8.98281827,7.18802388 L19.9985682,9.93985472 L19.9985682,17.0408667 C19.5859783,16.7751449 19.0842609,16.6141014 18.5204548,16.6141014 C17.9436301,16.6141014 17.3537868,16.7680992 16.8150165,17.0579775 C16.1029984,17.4424689 15.5462024,18.0262516 15.2487771,18.7036408 C14.9323247,19.423304 14.9403361,20.1630976 15.27181,20.7851281 C15.6773899,21.5460586 16.5135855,22 17.5070058,22 C18.0828291,22 18.6726725,21.8470087 19.2124442,21.5561238 C20.4021452,20.9149694 21.0721031,19.745391 20.9869814,18.6714321 C20.9899857,18.6492886 21,18.6301647 21,18.6070147 L21,5.53732798 C21,5.30683446 20.8437766,5.10553009 20.6214588,5.04916486 L8.60427704,2.01450136 C8.4550637,1.97826658 8.29583604,2.01047528 8.17366136,2.10508833 C8.05148668,2.19970139 7.98138645,2.34766011 7.98138645,2.50266448 L7.98138645,13.0147791 C7.56879655,12.7490573 7.06707921,12.5880138 6.5032731,12.5880138 C5.92644838,12.5880138 5.33660504,12.7420117 4.79783473,13.03189 C4.08581671,13.4163813 3.52902062,14.000164 3.23159537,14.6775533 C2.91514292,15.3972164 2.92315438,16.13701 3.25462831,16.7590405 C3.66020819,17.5209776 4.49640375,17.974919 5.48982411,17.974919 L5.48982411,17.974919 Z" id="Shape" fill="#536076"></path>
                </g>
            </g>
        </g>
    </g>
</svg>