<?xml version="1.0" encoding="UTF-8"?>
<svg width="24px" height="24px" viewBox="0 0 24 24" version="1.1" xmlns="http://www.w3.org/2000/svg" xmlns:xlink="http://www.w3.org/1999/xlink">
    <!-- Generator: Sketch 58 (84663) - https://sketch.com -->
    <title>famous ballad_normal</title>
    <desc>Created with Sketch.</desc>
    <g id="页面-1" stroke="none" stroke-width="1" fill="none" fill-rule="evenodd">
        <g id="按钮规范" transform="translate(-272.000000, -144.000000)">
            <g id="famous-ballad_normal" transform="translate(272.000000, 144.000000)">
                <g id="Page-1">
                    <polygon id="Stroke-1" stroke-opacity="0.00784313771" stroke="#000000" stroke-width="1.33333335e-11" points="0 0 23.9999985 0 23.9999985 23.9999985 0 23.9999985"></polygon>
                    <path d="M14.9999991,5.99999964 L2.99999982,5.99999964 L2.99999982,7.99999952 L14.9999991,7.99999952 L14.9999991,5.99999964 L14.9999991,5.99999964 Z M14.9999991,9.9999994 L2.99999982,9.9999994 L2.99999982,11.9999993 L14.9999991,11.9999993 L14.9999991,9.9999994 L14.9999991,9.9999994 Z M2.99999982,15.999999 L10.9999993,15.999999 L10.9999993,13.9999992 L2.99999982,13.9999992 L2.99999982,15.999999 L2.99999982,15.999999 Z M16.999999,5.99999964 L16.999999,14.1799994 C16.6899995,14.0699998 16.3499993,13.9999992 15.999999,13.9999992 C14.3399992,13.9999992 12.9999992,15.3399992 12.9999992,16.999999 C12.9999992,18.6599987 14.3399992,19.9999988 15.999999,19.9999988 C17.6599987,19.9999988 18.9999989,18.6599987 18.9999989,16.999999 L18.9999989,7.99999952 L21.9999987,7.99999952 L21.9999987,5.99999964 L16.999999,5.99999964 L16.999999,5.99999964 Z" id="Fill-2" fill="#536076"></path>
                </g>
            </g>
        </g>
    </g>
</svg>