<?xml version="1.0" encoding="UTF-8"?>
<svg width="36px" height="36px" viewBox="0 0 36 36" version="1.1" xmlns="http://www.w3.org/2000/svg" xmlns:xlink="http://www.w3.org/1999/xlink">
    <!-- Generator: Sketch 58 (84663) - https://sketch.com -->
    <title>lyric_normal</title>
    <desc>Created with Sketch.</desc>
    <g id="页面-1" stroke="none" stroke-width="1" fill="none" fill-rule="evenodd">
        <g id="按钮规范" transform="translate(-769.000000, -138.000000)" fill="#000000" fill-rule="nonzero">
            <g id="lyric_normal" transform="translate(762.000000, 131.000000)">
                <g id="编组-9" transform="translate(7.000000, 7.000000)">
                    <g id="Combined-Shape-3" transform="translate(8.000000, 13.000000)">
                        <path d="M1,4.26325641e-14 L1,9 L5,9 L5,10 L-4.97379915e-14,10 L-4.97379915e-14,4.26325641e-14 L1,4.26325641e-14 Z M16.9964,0.10081 C17.6964,0.10081 18.3964,0.30081 18.8964,0.60081 C19.3464,0.87081 19.7154,1.38381 20.0034,1.99401 L20.0964,2.20081 L19.2964,2.50081 C19.0964,1.90081 18.7964,1.70081 18.3964,1.40081 C18.0964,1.10081 17.5964,1.00081 16.9964,1.00081 C15.9964,1.00081 15.3964,1.30081 14.8964,2.00081 C14.3964,2.80081 14.0964,3.80081 14.0964,5.10081 C14.0964,6.40081 14.3964,7.40081 14.8964,8.20081 C15.3964,9.00081 15.9964,9.20081 16.8964,9.20081 C17.5964,9.20081 18.0964,9.00081 18.4964,8.70081 C18.8519556,8.43414333 19.0494864,8.16747667 19.229459,7.69011041 L19.2964,7.50081 L20.1964,7.70081 C19.5964,9.20081 18.4964,10.00081 16.8964,10.00081 C15.7964,10.00081 14.8964,9.60081 14.1964,8.70081 C13.4964,7.80081 13.1964,6.60081 13.1964,5.00081 C13.1964,3.50081 13.4964,2.30081 14.1964,1.40081 C14.8964,0.50081 15.7964,0.10081 16.9964,0.10081 Z M6,4.26325641e-14 L8.76923077,4.26325641e-14 C10.3384615,4.26325641e-14 11.5384615,1.3 11.5384615,3 C11.5384615,4.33333333 10.7849294,5.39455782 9.67655927,5.83813843 L9.50769231,5.9 L12,10 L10.9846154,10 L8.58461538,6 L6.92307692,6 L6.92307692,10 L6,10 L6,4.26325641e-14 L8.76923077,4.26325641e-14 Z M8.8,1 L7,1 L7,5 L8.8,5 C9.79,5 10.6,4.1 10.6,3 C10.6,1.9 9.79,1 8.8,1 L8.8,1 Z" id="Combined-Shape"></path>
                    </g>
                </g>
            </g>
        </g>
    </g>
</svg>