<?xml version="1.0" encoding="UTF-8"?>
<svg width="40px" height="40px" viewBox="0 0 40 40" version="1.1" xmlns="http://www.w3.org/2000/svg" xmlns:xlink="http://www.w3.org/1999/xlink">
    <!-- Generator: Sketch 46.2 (44496) - http://www.bohemiancoding.com/sketch -->
    <title>cover_min</title>
    <desc>Created with Sketch.</desc>
    <defs>
        <path d="M16.5908222,13.608602 C16.5778892,12.618553 17.365147,11.6582573 18.340025,11.4655374 L25.56153,10.0379457 C26.8597544,9.78130473 27.91821,10.6464653 27.9257037,11.9787156 L28,25.1871948 C28,25.1871948 28,27.3476744 25.5770652,27.8378387 C23.1541303,28.328003 22.5845748,27.2270339 22.3699336,26.5341437 C22.1552923,25.8412534 22.0954925,24.9962146 22.7009834,24.2024448 C23.3064743,23.408675 24.3150939,23.2255031 24.7605404,23.1246922 C25.2059869,23.0238814 26.3120068,23.000458 26.5818693,22.6009475 C26.8517317,22.2014369 26.8219012,21.371876 26.8219012,21.371876 L26.797957,15.495142 C26.7959321,14.9981508 26.4075681,14.6708076 25.9149374,14.7670451 L18.673557,16.18168 C18.1879037,16.2765544 17.7955495,16.756678 17.7971528,17.2627605 C17.7971528,17.2627605 17.8258673,25.4238373 17.7986438,26.2871961 C17.7714202,27.1505549 17.6944449,27.6675868 17.4150089,28.3791333 C17.1355729,29.0906798 16.7916891,29.3625705 16.1873775,29.6801343 C15.583066,29.9976982 14.1523786,30.0996128 13.4364453,29.8909449 C12.720512,29.682277 12,28.9209814 12,27.8378387 C12,26.754696 12.3720052,26.3028719 12.7744567,25.9586329 C13.3623685,25.4557596 14.4650467,25.1639163 15.2594391,25.0353227 C15.8722142,24.9361287 16.3986888,25.0353227 16.5674049,24.2024448 C16.736121,23.3695669 16.5908222,13.608602 16.5908222,13.608602 Z" id="path-1"></path>
    </defs>
    <g id="Page-1" stroke="none" stroke-width="1" fill="none" fill-rule="evenodd">
        <g id="cover_min">
            <g id="Group-7" transform="translate(0.000000, 1.000000)">
                <g id="Group-22">
                    <rect id="Rectangle-90" fill="#FFFFFF" x="0" y="0" width="40" height="40"></rect>
                    <g id="Path-21">
                        <use fill="#92DE00" fill-rule="evenodd" xlink:href="#path-1"></use>
                        <path stroke-opacity="0.5" stroke="#05C208" stroke-width="0.5" d="M16.8408008,13.6053365 L16.8407945,13.6048809 C16.8426141,13.7271175 16.8457967,13.9529681 16.8498881,14.2639475 C16.8567064,14.7821933 16.8635245,15.3485912 16.8698881,15.9446588 C16.8808992,16.9760476 16.8893659,17.9855774 16.8942848,18.9324762 C16.9100768,21.9724465 16.8888874,23.8746333 16.8124282,24.2520792 C16.6681044,24.9645433 16.3504759,25.1596616 15.6004705,25.2437619 C15.4298557,25.2628934 15.3812646,25.2688563 15.2993883,25.2821102 C14.3159616,25.4413041 13.4019481,25.7508837 12.9369587,26.1486148 C12.4590921,26.5573604 12.25,26.9824945 12.25,27.8378387 C12.25,28.7193719 12.8079238,29.4473519 13.5064002,29.6509318 C14.1691491,29.8440984 15.5318665,29.7421867 16.0710828,29.4588301 C16.7018329,29.1273729 16.9501982,28.8787901 17.1823099,28.2877486 C17.4372954,27.638462 17.5208309,27.1653039 17.5487679,26.279317 C17.559965,25.9242155 17.5625809,24.2944444 17.5587063,21.8122051 C17.5575507,21.0718746 17.555855,20.2848458 17.5537614,19.4771007 C17.5523161,18.9194756 17.5507675,18.3849523 17.549219,17.8923865 C17.5475672,17.3809749 17.5475672,17.3809749 17.547154,17.2635525 C17.5451768,16.6394239 18.0205079,16.0545302 18.6256245,15.936318 L25.8670049,14.5216832 C26.5119133,14.3956976 27.0452836,14.8384753 27.047955,15.4941234 L27.0717397,21.362892 C27.0719282,21.3682706 27.0719282,21.3682706 27.0723435,21.3865106 C27.0765881,21.6063637 27.0621807,21.8746399 27.0122083,22.1380849 C26.9664614,22.3792535 26.8955939,22.5831323 26.789035,22.7408844 C26.6039047,23.0149556 26.2386547,23.1473379 25.6481136,23.2441594 C25.501035,23.2682735 24.8760675,23.3527492 25.0734442,23.3251856 C24.9563183,23.3415422 24.8760155,23.3548809 24.8157234,23.3685259 C24.208208,23.5060152 24.0396441,23.5532171 23.708451,23.7142778 C23.3778747,23.8750385 23.1056393,24.0841643 22.8997551,24.3540687 C22.4235016,24.9784145 22.3643444,25.6712327 22.608738,26.4601676 C22.9288323,27.4934742 23.6738046,27.9678075 25.5274939,27.5928026 C26.4013026,27.4160295 26.9892188,27.00479 27.3540788,26.4279261 C27.5271553,26.1542825 27.6389306,25.8597441 27.701048,25.5651108 C27.7379538,25.3900607 27.75,25.2567405 27.750004,25.188601 L27.6757077,11.9801218 C27.6691029,10.8059213 26.7553218,10.0567878 25.6100132,10.2831994 L18.3885082,11.7107911 C17.5301251,11.8804815 16.8294674,12.7377365 16.8408008,13.6053365 Z"></path>
                    </g>
                </g>
            </g>
        </g>
    </g>
</svg>