<?xml version="1.0" encoding="UTF-8"?>
<svg width="40px" height="40px" viewBox="0 0 40 40" version="1.1" xmlns="http://www.w3.org/2000/svg" xmlns:xlink="http://www.w3.org/1999/xlink">
    <!-- Generator: Sketch 46.2 (44496) - http://www.bohemiancoding.com/sketch -->
    <title>cover_welcome</title>
    <desc>Created with Sketch.</desc>
    <defs></defs>
    <g id="Page-1" stroke="none" stroke-width="1" fill="none" fill-rule="evenodd">
        <g id="深度音乐1" transform="translate(-75.000000, -690.000000)" fill="#FFFFFF">
            <g id="音乐1" transform="translate(65.000000, 60.000000)">
                <g id="底部控制栏" transform="translate(0.000000, 620.000000)">
                    <g id="cover_welcome" transform="translate(10.000000, 10.000000)">
                        <rect id="Rectangle-90" opacity="0.100000001" x="0" y="0" width="40" height="40"></rect>
                        <path d="M16.5908222,13.608602 C16.5778892,12.618553 17.365147,11.6582573 18.340025,11.4655374 L25.56153,10.0379457 C26.8597544,9.78130473 27.91821,10.6464653 27.9257037,11.9787156 L28,25.1871948 C28,25.1871948 28,27.3476744 25.5770652,27.8378387 C23.1541303,28.328003 22.5845748,27.2270339 22.3699336,26.5341437 C22.1552923,25.8412534 22.0954925,24.9962146 22.7009834,24.2024448 C23.3064743,23.408675 24.3150939,23.2255031 24.7605404,23.1246922 C25.2059869,23.0238814 26.3120068,23.000458 26.5818693,22.6009475 C26.8517317,22.2014369 26.8219012,21.371876 26.8219012,21.371876 L26.797957,15.495142 C26.7959321,14.9981508 26.4075681,14.6708076 25.9149374,14.7670451 L18.673557,16.18168 C18.1879037,16.2765544 17.7955495,16.756678 17.7971528,17.2627605 C17.7971528,17.2627605 17.8258673,25.4238373 17.7986438,26.2871961 C17.7714202,27.1505549 17.6944449,27.6675868 17.4150089,28.3791333 C17.1355729,29.0906798 16.7916891,29.3625705 16.1873775,29.6801343 C15.583066,29.9976982 14.1523786,30.0996128 13.4364453,29.8909449 C12.720512,29.682277 12,28.9209814 12,27.8378387 C12,26.754696 12.3720052,26.3028719 12.7744567,25.9586329 C13.3623685,25.4557596 14.4650467,25.1639163 15.2594391,25.0353227 C15.8722142,24.9361287 16.3986888,25.0353227 16.5674049,24.2024448 C16.736121,23.3695669 16.5908222,13.608602 16.5908222,13.608602 Z" id="Path-21" opacity="0.699999988"></path>
                    </g>
                </g>
            </g>
        </g>
    </g>
</svg>