<?xml version="1.0" encoding="UTF-8"?>
<svg width="24px" height="24px" viewBox="0 0 24 24" version="1.1" xmlns="http://www.w3.org/2000/svg" xmlns:xlink="http://www.w3.org/1999/xlink">
    <!-- Generator: Sketch 46.2 (44496) - http://www.bohemiancoding.com/sketch -->
    <title>fav_press</title>
    <desc>Created with Sketch.</desc>
    <defs></defs>
    <g id="Page-1" stroke="none" stroke-width="1" fill="none" fill-rule="evenodd">
        <g id="fav_press" fill-rule="nonzero" fill="#2CA7F8">
            <path d="M12.4472136,7.74482765 C10.2061345,3.2626695 4,4.55163591 4,9.56843445 C4,11.888322 5.27444607,13.4868172 8.05001937,15.5473798 C8.29427443,15.7287127 9.10666768,16.3205198 9.17962788,16.3741532 C9.60640178,16.6878767 9.91747562,16.9257548 10.196125,17.1551733 C10.8980162,17.7330567 11.3329044,18.2162125 11.5460203,18.6779635 L12.0085937,19.6802059 L12.4569058,18.6715037 C12.6963493,18.1327558 13.2053787,17.579145 14.0569322,16.8942058 C14.3116061,16.6893611 14.5899074,16.4772665 14.9657554,16.1991187 C15.0358896,16.1472157 15.7399745,15.6297537 15.9507614,15.4726299 C18.7488521,13.3868908 20,11.8390535 20,9.56843445 C20,4.55163591 13.7938655,3.2626695 11.5527864,7.74482765 L12.4472136,7.74482765 L12.4472136,7.74482765 Z M11.5527864,8.19204124 L12,9.08646843 L12.4472136,8.19204124 C14.2252983,4.63587186 19,5.62754068 19,9.56843445 C19,11.4182248 17.9136021,12.7622444 15.3531167,14.6708689 C15.1456023,14.8255533 14.4434972,15.3415602 14.3708846,15.3952975 C13.9851696,15.6807472 13.697244,15.9001766 13.4301768,16.1149897 C12.4647602,16.8915137 11.8626563,17.5463505 11.5430942,18.2653652 L12.4539797,18.2589054 C12.164239,17.6311338 11.6397081,17.0483861 10.8317374,16.383165 C10.5362506,16.1398838 10.2121797,15.8920669 9.77191932,15.5684294 C9.69566085,15.5123714 8.88598875,14.9225466 8.64610252,14.7444571 C6.10647995,12.8590624 5,11.4712415 5,9.56843445 C5,5.62754068 9.77470171,4.63587186 11.5527864,8.19204124 L11.5527864,8.19204124 Z" id="path191-8"></path>
        </g>
    </g>
</svg>