<?xml version="1.0" encoding="UTF-8"?>
<svg width="27px" height="23px" viewBox="0 0 27 23" version="1.1" xmlns="http://www.w3.org/2000/svg" xmlns:xlink="http://www.w3.org/1999/xlink">
    <!-- Generator: Sketch 46.2 (44496) - http://www.bohemiancoding.com/sketch -->
    <title>hide_lyc</title>
    <desc>Created with Sketch.</desc>
    <defs></defs>
    <g id="Page-1" stroke="none" stroke-width="1" fill="none" fill-rule="evenodd">
        <g id="hide_lyc">
            <g id="fullscreen_normal">
                <rect id="Rectangle-11" fill-opacity="0.288836051" fill="#000000" opacity="0" x="0" y="0" width="27" height="23"></rect>
                <path d="M15,8.5 L15,5.5 L15,4 L16.2,4 L19.8,4 L21,4 L21,5.5 L21,8.5 L21,10 L19.8,10 L16.2,10 L15,10 L15,8.5 Z M16,9 L21,9 L21,4 L16,4 L16,9 Z M12,14.5 L12,17.5 L12,19 L10.8,19 L7.2,19 L6,19 L6,17.5 L6,14.5 L6,13 L7.2,13 L10.8,13 L12,13 L12,14.5 Z M11,14 L6,14 L6,19 L11,19 L11,14 Z M8.18688672,17.5202201 L7.52022006,18.1868867 L7.16666667,18.5404401 L6.45955989,17.8333333 L6.81311328,17.4797799 L7.47977994,16.8131133 L7.83333333,16.4595599 L8.54044011,17.1666667 L8.18688672,17.5202201 Z M20.1868867,5.52022006 L19.5202201,6.18688672 L19.1666667,6.54044011 L18.4595599,5.83333333 L18.8131133,5.47977994 L19.4797799,4.81311328 L19.8333333,4.45955989 L20.5404401,5.16666667 L20.1868867,5.52022006 Z" id="Combined-Shape" fill="#FFFFFF"></path>
            </g>
        </g>
    </g>
</svg>