<?xml version="1.0" encoding="UTF-8"?>
<svg width="27px" height="23px" viewBox="0 0 27 23" version="1.1" xmlns="http://www.w3.org/2000/svg" xmlns:xlink="http://www.w3.org/1999/xlink">
    <!-- Generator: Sketch 46.2 (44496) - http://www.bohemiancoding.com/sketch -->
    <title>hide_lyc_press</title>
    <desc>Created with Sketch.</desc>
    <defs></defs>
    <g id="Page-1" stroke="none" stroke-width="1" fill="none" fill-rule="evenodd">
        <g id="hide_lyc_press" fill="#2CA7F8">
            <g id="fullscreen_normal" transform="translate(6.000000, 4.000000)">
                <path d="M9,4.5 L9,1.5 L9,0 L10.2,0 L13.8,0 L15,0 L15,1.5 L15,4.5 L15,6 L13.8,6 L10.2,6 L9,6 L9,4.5 Z M10,5 L15,5 L15,0 L10,0 L10,5 Z M6,10.5 L6,13.5 L6,15 L4.8,15 L1.2,15 L0,15 L0,13.5 L0,10.5 L0,9 L1.2,9 L4.8,9 L6,9 L6,10.5 Z M5,10 L0,10 L0,15 L5,15 L5,10 Z M2.18688672,13.5202201 L1.52022006,14.1868867 L1.16666667,14.5404401 L0.459559885,13.8333333 L0.813113276,13.4797799 L1.47977994,12.8131133 L1.83333333,12.4595599 L2.54044011,13.1666667 L2.18688672,13.5202201 Z M14.1868867,1.52022006 L13.5202201,2.18688672 L13.1666667,2.54044011 L12.4595599,1.83333333 L12.8131133,1.47977994 L13.4797799,0.813113276 L13.8333333,0.459559885 L14.5404401,1.16666667 L14.1868867,1.52022006 Z" id="Combined-Shape"></path>
            </g>
        </g>
    </g>
</svg>