<?xml version="1.0" encoding="UTF-8"?>
<svg width="24px" height="24px" viewBox="0 0 24 24" version="1.1" xmlns="http://www.w3.org/2000/svg" xmlns:xlink="http://www.w3.org/1999/xlink">
    <!-- Generator: Sketch 46.2 (44496) - http://www.bohemiancoding.com/sketch -->
    <title>lrc_press</title>
    <desc>Created with Sketch.</desc>
    <defs></defs>
    <g id="Page-1" stroke="none" stroke-width="1" fill="none" fill-rule="evenodd">
        <g id="lrc_press" fill="#2CA7F8">
            <path d="M2,17.1 L2,7.1 L3,7.1 L3,16.1 L7,16.1 L7,17.1 L2,17.1 Z M21.2,14.4 L21.2,14.4 L22.1,14.6 C21.5,16.1 20.4,16.9 18.8,16.9 C17.7,16.9 16.8,16.5 16.1,15.6 C15.4,14.7 15.1,13.5 15.1,11.9 C15.1,10.4 15.4,9.2 16.1,8.3 C16.8,7.4 17.7,7 18.9,7 C19.6,7 20.3,7.2 20.8,7.5 C21.3,7.8 21.7,8.4 22,9.1 L21.2,9.4 C21,8.8 20.7,8.6 20.3,8.3 C20,8 19.5,7.9 18.9,7.9 C17.9,7.9 17.3,8.2 16.8,8.9 C16.3,9.7 16,10.7 16,12 C16,13.3 16.3,14.3 16.8,15.1 C17.3,15.9 17.9,16.1 18.8,16.1 C19.5,16.1 20,15.9 20.4,15.6 C20.8,15.3 21,15 21.2,14.4 Z M14,10.1 L14,10.1 C14,11.5 13.1,12.6 11.8,13 L14.5,17.1 L13.4,17.1 L10.8,13.1 L9,13.1 L9,17.1 L8,17.1 L8,7.1 L11,7.1 C12.7,7.1 14,8.4 14,10.1 Z M9,12.1 L11,12.1 C12.1,12.1 13,11.2 13,10.1 C13,9 12.1,8.1 11,8.1 L9,8.1 L9,12.1 Z" id="Combined-Shape"></path>
        </g>
    </g>
</svg>