<?xml version="1.0" encoding="UTF-8"?>
<svg width="30px" height="30px" viewBox="0 0 30 30" version="1.1" xmlns="http://www.w3.org/2000/svg" xmlns:xlink="http://www.w3.org/1999/xlink">
    <!-- Generator: Sketch 46.2 (44496) - http://www.bohemiancoding.com/sketch -->
    <title>pause_hover</title>
    <desc>Created with Sketch.</desc>
    <defs>
        <path d="M14,28 C21.7319865,28 28,21.7319865 28,14 C28,6.2680135 21.7319865,0 14,0 C6.2680135,0 0,6.2680135 0,14 C0,21.7319865 6.2680135,28 14,28 Z" id="path-1"></path>
    </defs>
    <g id="Page-1" stroke="none" stroke-width="1" fill="none" fill-rule="evenodd">
        <g id="pause_hover">
            <g id="Group-3" transform="translate(1.000000, 1.000000)">
                <rect id="rect49-3" stroke="#FFFFFF" fill="#000000" opacity="0" x="3" y="2" width="24" height="24"></rect>
                <g id="Oval-31">
                    <use fill-opacity="0.1" fill="#FFFFFF" fill-rule="evenodd" xlink:href="#path-1"></use>
                    <path stroke="#FFFFFF" stroke-width="1.2" d="M14,27.4 C21.4006156,27.4 27.4,21.4006156 27.4,14 C27.4,6.59938435 21.4006156,0.6 14,0.6 C6.59938435,0.6 0.6,6.59938435 0.6,14 C0.6,21.4006156 6.59938435,27.4 14,27.4 Z"></path>
                </g>
                <path d="M10,9 L13,9 L13,20 L10,20 L10,9 Z M15,9 L18,9 L18,20 L15,20 L15,9 Z" id="Pause" fill="#FFFFFF"></path>
            </g>
        </g>
    </g>
</svg>