<?xml version="1.0" encoding="UTF-8"?>
<svg width="24px" height="24px" viewBox="0 0 24 24" version="1.1" xmlns="http://www.w3.org/2000/svg" xmlns:xlink="http://www.w3.org/1999/xlink">
    <!-- Generator: Sketch 46.2 (44496) - http://www.bohemiancoding.com/sketch -->
    <title>shuffle_press</title>
    <desc>Created with Sketch.</desc>
    <defs></defs>
    <g id="Page-1" stroke="none" stroke-width="1" fill="none" fill-rule="evenodd">
        <g id="shuffle_press" fill="#2CA7F8">
            <path d="M16.5,5 L19.5,7.5 L16.5,10 L16.5,5 Z M16.5,14 L19.5,16.5 L16.5,19 L16.5,14 Z M4,17 L4,16 C7.0883411,16 8.38786087,14.8983663 10.1514537,11.7553296 C10.2375349,11.601709 10.2375349,11.601709 10.3238096,11.4475387 C12.1504549,8.18564658 13.468878,7 16.5,7 L16.5,8 C13.9295868,8 12.8638171,8.95843755 11.1963172,11.9361391 C11.1102633,12.0899153 11.1102633,12.0899153 11.0235463,12.2446704 C9.10169752,15.6697475 7.53249223,17 4,17 Z M11.3068408,14.3089108 L12.0931592,13.6910892 C13.3495044,15.290074 14.5524345,16 16.5,16 L16.5,17 C14.2114544,17 12.7380502,16.13045 11.3068408,14.3089108 Z M4,8 L4,7 C6.48614528,7 7.70231623,7.71774023 9.3796283,9.67460431 L8.6203717,10.3253957 C7.11569325,8.56993749 6.14996583,8 4,8 Z" id="Combined-Shape"></path>
        </g>
    </g>
</svg>