<?xml version="1.0" encoding="UTF-8"?>
<svg width="24px" height="24px" viewBox="0 0 24 24" version="1.1" xmlns="http://www.w3.org/2000/svg" xmlns:xlink="http://www.w3.org/1999/xlink">
    <!-- Generator: Sketch 46.2 (44496) - http://www.bohemiancoding.com/sketch -->
    <title>volumemid_press</title>
    <desc>Created with Sketch.</desc>
    <defs></defs>
    <g id="Page-1" stroke="none" stroke-width="1" fill="none" fill-rule="evenodd">
        <g id="volumemid_press" fill-rule="nonzero" fill="#2CA7F8">
            <g id="Group-30" transform="translate(5.000000, 4.000000)">
                <path d="M0,11.31579 C0,11.5919324 0.223857625,11.81579 0.5,11.81579 L4,11.81579 L3.63750031,11.6601648 L7.13750031,15.3443748 C7.44858035,15.6718274 8,15.4516592 8,15 L8,1 C8,0.548340794 7.4485803,0.328172602 7.13750027,0.655625279 L3.63750027,4.339836 L4,4.18421072 L0.5,4.18421072 C0.223857625,4.18421072 0,4.40806835 0,4.68421072 L0,11.31579 Z M0.5,5.18421072 L4,5.18421072 C4.1370556,5.18421072 4.26810276,5.12795068 4.36249973,5.02858544 L7.86249973,1.34437472 L7,1 L7,15 L7.86249969,14.6556252 L4.36249969,10.9714152 C4.26810273,10.87205 4.13705558,10.81579 4,10.81579 L0.5,10.81579 L1,11.31579 L1,4.68421072 L0.5,5.18421072 Z M9,11 L9,5 C9,4.72385763 9.22385763,4.5 9.5,4.5 C9.77614237,4.5 10,4.72385763 10,5 L10,11 C10,11.2761424 9.77614237,11.5 9.5,11.5 C9.22385763,11.5 9,11.2761424 9,11 Z M11,12 L11,4 C11,3.72385763 11.2238576,3.5 11.5,3.5 C11.7761424,3.5 12,3.72385763 12,4 L12,12 C12,12.2761424 11.7761424,12.5 11.5,12.5 C11.2238576,12.5 11,12.2761424 11,12 Z" id="Combined-Shape"></path>
            </g>
        </g>
    </g>
</svg>