<?xml version="1.0" encoding="UTF-8"?>
<svg width="36px" height="36px" viewBox="0 0 36 36" version="1.1" xmlns="http://www.w3.org/2000/svg" xmlns:xlink="http://www.w3.org/1999/xlink">
    <title>pic_normal</title>
    <g id="1040" stroke="none" stroke-width="1" fill="none" fill-rule="evenodd">
        <g id="6-1-1音乐1" transform="translate(-1522.000000, -270.000000)" fill="#626E88" fill-rule="nonzero">
            <g id="编组" transform="translate(1522.000000, 270.000000)">
                <path d="M23.75,20 C24.1048563,20 25,20.5596441 25,21.25 L25,21.25 L25,23.75 C25,24.1048563 24.4403559,25 23.75,25 L23.75,25 L21.25,25 C20.8951437,25 20,24.4403559 20,23.75 L20,23.75 L20,21.25 C20,20.8951437 20.5596441,20 21.25,20 L21.25,20 Z M14.75,20 C15.1048563,20 16,20.5596441 16,21.25 L16,21.25 L16,23.75 C16,24.1048563 15.4403559,25 14.75,25 L14.75,25 L12.25,25 C11.8951437,25 11,24.4403559 11,23.75 L11,23.75 L11,21.25 C11,20.8951437 11.5596441,20 12.25,20 L12.25,20 Z M23.75,11 C24.1048563,11 25,11.5596441 25,12.25 L25,12.25 L25,14.75 C25,15.1048563 24.4403559,16 23.75,16 L23.75,16 L21.25,16 C20.8951437,16 20,15.4403559 20,14.75 L20,14.75 L20,12.25 C20,11.8951437 20.5596441,11 21.25,11 L21.25,11 Z M14.75,11 C15.1048563,11 16,11.5596441 16,12.25 L16,12.25 L16,14.75 C16,15.1048563 15.4403559,16 14.75,16 L14.75,16 L12.25,16 C11.8951437,16 11,15.4403559 11,14.75 L11,14.75 L11,12.25 C11,11.8951437 11.5596441,11 12.25,11 L12.25,11 Z" id="形状结合"></path>
            </g>
        </g>
    </g>
</svg>