<?xml version="1.0" encoding="UTF-8"?>
<svg width="36px" height="36px" viewBox="0 0 36 36" version="1.1" xmlns="http://www.w3.org/2000/svg" xmlns:xlink="http://www.w3.org/1999/xlink">
    <title>rank </title>
    <g id="1040" stroke="none" stroke-width="1" fill="none" fill-rule="evenodd">
        <g id="6-1-1音乐1" transform="translate(-1594.000000, -270.000000)" fill="#626E88" fill-rule="nonzero">
            <g id="rank-" transform="translate(1594.000000, 270.000000)">
                <path d="M15.9970707,23 C16.5621186,23 17,23.4477153 17,24 L17,24 L16.9932526,24.1173326 C16.9353182,24.6172798 16.5114088,25 15.9970707,25 L15.9970707,25 L11.0029293,25 C10.4378814,25 10,24.5522847 10,24 L10,24 L10.0067474,23.8826674 C10.0646818,23.3827202 10.4885912,23 11.0029293,23 L11.0029293,23 Z M21.3875976,15.1895347 C21.5867276,15.0343407 21.8290942,14.9651712 22.0663392,14.981241 C22.3187887,14.9831501 22.5699028,15.0811622 22.7620094,15.2732689 L22.7620094,15.2732689 L22.8456932,15.3680013 C22.8790383,15.4108665 22.9083743,15.4557482 22.9337111,15.5021636 L25.1262346,17.7084216 C25.5151309,18.0993114 25.5118446,18.7307961 25.1213203,19.1213203 L25.1213203,19.1213203 L25.0266159,19.2050546 C24.6328434,19.5119451 24.0699997,19.4824488 23.712021,19.1226352 L23.712021,19.1226352 L23,18.407 L23,24.0029699 C23,24.508107 22.6139598,24.9348165 22.1166211,24.9931977 L22,25 L21.8826674,24.9932922 C21.3827202,24.9356987 21,24.5142826 21,24.0029699 L21,24.0029699 L21,18.426 L20.298049,19.1226352 C19.9339197,19.4834565 19.3653801,19.5097802 18.9729091,19.2045371 L18.8786797,19.1213203 L18.7949959,19.0265879 C18.4885046,18.6325933 18.520723,18.0682353 18.8838354,17.7084216 L18.8838354,17.7084216 L21.1361371,15.475659 C21.1786069,15.4034032 21.2308655,15.3352966 21.2928932,15.2732689 L21.2928932,15.2732689 Z M15.9970707,17 C16.5621186,17 17,17.4477153 17,18 L17,18 L16.9932526,18.1173326 C16.9353182,18.6172798 16.5114088,19 15.9970707,19 L15.9970707,19 L11.0029293,19 C10.4378814,19 10,18.5522847 10,18 L10,18 L10.0067474,17.8826674 C10.0646818,17.3827202 10.4885912,17 11.0029293,17 L11.0029293,17 Z M24.9991283,11 C25.5553691,11 26,11.4477153 26,12 L26,12 L25.9932664,12.1173326 C25.9354509,12.6172798 25.5124112,13 24.9991283,13 L24.9991283,13 L11.0008717,13 C10.4446309,13 10,12.5522847 10,12 L10,12 L10.0067336,11.8826674 C10.0645491,11.3827202 10.4875888,11 11.0008717,11 L11.0008717,11 Z" id="形状结合"></path>
            </g>
        </g>
    </g>
</svg>