<?xml version="1.0" standalone="no"?><!DOCTYPE svg PUBLIC "-//W3C//DTD SVG 1.1//EN" "http://www.w3.org/Graphics/SVG/1.1/DTD/svg11.dtd"><svg t="1608537759749" class="icon" viewBox="0 0 1024 1024" version="1.1" xmlns="http://www.w3.org/2000/svg" p-id="4081" xmlns:xlink="http://www.w3.org/1999/xlink" width="200" height="200"><defs><style type="text/css"></style></defs><path d="M551.424 512l195.072-195.072c9.728-9.728 9.728-25.6 0-36.864l-1.536-1.536c-9.728-9.728-25.6-9.728-35.328 0L514.56 475.136 319.488 280.064c-9.728-9.728-25.6-9.728-35.328 0l-1.536 1.536c-9.728 9.728-9.728 25.6 0 36.864L477.696 512 282.624 707.072c-9.728 9.728-9.728 25.6 0 36.864l1.536 1.536c9.728 9.728 25.6 9.728 35.328 0L514.56 548.864l195.072 195.072c9.728 9.728 25.6 9.728 35.328 0l1.536-1.536c9.728-9.728 9.728-25.6 0-36.864L551.424 512z" fill="#1A1A1A" p-id="4082"></path></svg>