<?xml version="1.0" encoding="UTF-8"?>
<svg width="36px" height="36px" viewBox="0 0 36 36" version="1.1" xmlns="http://www.w3.org/2000/svg" xmlns:xlink="http://www.w3.org/1999/xlink">
    <title>list </title>
    <g id="1040" stroke="none" stroke-width="1" fill="none" fill-rule="evenodd">
        <g id="6-1-1音乐1" transform="translate(-1558.000000, -270.000000)" fill="#626E88" fill-rule="nonzero">
            <g id="编组-2" transform="translate(1558.000000, 270.000000)">
                <path d="M11,22.5 L11.1453629,22.5068666 C11.9102281,22.5795513 12.5,23.2203039 12.5,24 L12.5,24 L12.4931334,24.1453629 C12.4204487,24.9102281 11.7796961,25.5 11,25.5 C10.1657972,25.5 9.5,24.8284271 9.5,24 L9.5,24 L9.50686658,23.8546371 C9.57955132,23.0897719 10.2203039,22.5 11,22.5 L11,22.5 Z M24.9975267,23 C25.544239,23 26,23.4477153 26,24 L26,24 L25.9932556,24.1173326 C25.9353477,24.6172798 25.5116309,25 24.9975267,25 L24.9975267,25 L15.0024733,25 C14.455761,25 14,24.5522847 14,24 L14,24 L14.0067444,23.8826674 C14.0646523,23.3827202 14.4883691,23 15.0024733,23 L15.0024733,23 Z M11,16.5 L11.1453629,16.5068666 C11.9102281,16.5795513 12.5,17.2203039 12.5,18 L12.5,18 L12.4931334,18.1453629 C12.4204487,18.9102281 11.7796961,19.5 11,19.5 C10.1657972,19.5 9.5,18.8284271 9.5,18 L9.5,18 L9.50686658,17.8546371 C9.57955132,17.0897719 10.2203039,16.5 11,16.5 L11,16.5 Z M24.9975267,17 C25.544239,17 26,17.4477153 26,18 L26,18 L25.9932556,18.1173326 C25.9353477,18.6172798 25.5116309,19 24.9975267,19 L24.9975267,19 L15.0024733,19 C14.455761,19 14,18.5522847 14,18 L14,18 L14.0067444,17.8826674 C14.0646523,17.3827202 14.4883691,17 15.0024733,17 L15.0024733,17 Z M11,10.5 L11.1453629,10.5068666 C11.9102281,10.5795513 12.5,11.2203039 12.5,12 L12.5,12 L12.4931334,12.1453629 C12.4204487,12.9102281 11.7796961,13.5 11,13.5 C10.1657972,13.5 9.5,12.8284271 9.5,12 L9.5,12 L9.50686658,11.8546371 C9.57955132,11.0897719 10.2203039,10.5 11,10.5 L11,10.5 Z M24.9975267,11 C25.544239,11 26,11.4477153 26,12 L26,12 L25.9932556,12.1173326 C25.9353477,12.6172798 25.5116309,13 24.9975267,13 L24.9975267,13 L15.0024733,13 C14.455761,13 14,12.5522847 14,12 L14,12 L14.0067444,11.8826674 C14.0646523,11.3827202 14.4883691,11 15.0024733,11 L15.0024733,11 Z" id="形状结合"></path>
            </g>
        </g>
    </g>
</svg>