<svg width="36" height="36" xmlns="http://www.w3.org/2000/svg">
 <!-- Generator: Sketch 56.2 (81672) - https://sketch.com -->

 <title>picture list_normal</title>
 <desc>Created with Sketch.</desc>
 <g>
  <title>background</title>
  <rect fill="none" id="canvas_background" height="402" width="582" y="-1" x="-1"/>
 </g>
 <g>
  <title>Layer 1</title>
  <g fill-rule="evenodd" fill="none" id="页面-1">
   <g fill-rule="nonzero" fill="#626E88" id="按钮规范">
    <g id="picture-list_normal">
     <path fill="#00a0ff" id="图标视图-2" d="m20,22l0,-2l0,-1l1,0l2,0l1,0l0,1l0,2l0,1l-1,0l-2,0l-1,0l0,-1zm-7,0l0,-2l0,-1l1,0l2,0l1,0l0,1l0,2l0,1l-1,0l-2,0l-1,0l0,-1zm7,-7l0,-2l0,-1l1,0l2,0l1,0l0,1l0,2l0,1l-1,0l-2,0l-1,0l0,-1zm-7,0l0,-2l0,-1l1,0l2,0l1,0l0,1l0,2l0,1l-1,0l-2,0l-1,0l0,-1z"/>
    </g>
   </g>
  </g>
 </g>
</svg>