<?xml version="1.0" encoding="UTF-8"?>
<svg width="24px" height="24px" viewBox="0 0 24 24" version="1.1" xmlns="http://www.w3.org/2000/svg" xmlns:xlink="http://www.w3.org/1999/xlink">
    <!-- Generator: Sketch 42 (36781) - http://www.bohemiancoding.com/sketch -->
    <title>show_playlist_normal</title>
    <desc>Created with Sketch.</desc>
    <defs></defs>
    <g id="Page-1" stroke="none" stroke-width="1" fill="none" fill-rule="evenodd">
        <g id="show_playlist_normal" fill-rule="nonzero" fill="#000000">
            <path d="M16,18 C16,19.3807119 14.8807119,20.5 13.5,20.5 C12.1192881,20.5 11,19.3807119 11,18 C11,16.6192881 12.1192881,15.5 13.5,15.5 C14.8807119,15.5 16,16.6192881 16,18 Z M12,18 C12,18.8284271 12.6715729,19.5 13.5,19.5 C14.3284271,19.5 15,18.8284271 15,18 C15,17.1715729 14.3284271,16.5 13.5,16.5 C12.6715729,16.5 12,17.1715729 12,18 Z M12.5620692,10 L4.31711367,10 L4.31711367,9 L12.5620692,9 L12.5620692,10 Z M10.6334977,13 L4.2456851,13 L4.2456851,12 L10.6334977,12 L10.6334977,13 Z M12.6559115,7 L4.32058931,7 L4.32058931,6 L12.6559115,6 L12.6559115,7 Z M16,5 L16,17.6152876 L15,17.6152876 L15,5 L15,4.5 L15.5,4.5 L19.5,4.5 L19.5,5.5 L15.5,5.5 L16,5 Z" id="Combined-Shape"></path>
        </g>
    </g>
</svg>