<?xml version="1.0" encoding="UTF-8"?>
<svg width="24px" height="24px" viewBox="0 0 24 24" version="1.1" xmlns="http://www.w3.org/2000/svg" xmlns:xlink="http://www.w3.org/1999/xlink">
    <!-- Generator: Sketch 58 (84663) - https://sketch.com -->
    <title>singer_normal</title>
    <desc>Created with Sketch.</desc>
    <g id="页面-1" stroke="none" stroke-width="1" fill="none" fill-rule="evenodd">
        <g id="按钮规范" transform="translate(-90.000000, -144.000000)">
            <g id="singer_normal" transform="translate(90.000000, 144.000000)">
                <g id="Page-1">
                    <polygon id="Stroke-1" stroke-opacity="0.00784313771" stroke="#000000" stroke-width="1.33333335e-11" points="0 0 23.9999985 0 23.9999985 23.9999985 0 23.9999985"></polygon>
                    <path d="M3,21 C3,20.8874994 3.00603456,20.7390634 3.01810386,20.5546874 C3.03017316,20.3703115 3.09655332,20.0734394 3.2172463,19.6640626 C3.33793931,19.2546854 3.50690688,18.9375012 3.72415434,18.7125 C3.9353671,18.4937496 4.35476902,18.2531256 4.98237261,17.9906256 C5.60997505,17.7281232 6.31903685,17.451564 7.10957702,17.1609384 C7.90011488,16.8703104 8.47943371,16.6281264 8.84754743,16.4343744 C9.31221352,16.1906232 9.67277981,15.8343768 9.92925094,15.3656256 C10.1857244,14.896872 10.3139588,14.4093768 10.3139588,13.9031256 C10.3139588,13.5593736 10.1148175,13.153128 9.71653264,12.6843744 C9.31220888,12.2031216 8.98483551,11.5484424 8.73439629,10.7203128 C8.48395939,9.8921832 8.35874209,8.9375064 8.35874209,7.8562512 C8.35874209,7.0437456 8.47038236,6.320316 8.6936629,5.6859384 C8.91694575,5.0515584 9.22169075,4.543752 9.60790717,4.1625 C9.9941259,3.781248 10.4331395,3.4921896 10.9249643,3.2953128 C11.4167891,3.098436 11.9433037,3 12.5045245,3 C13.0657476,3 13.5892451,3.098436 14.0750357,3.2953128 C14.5608239,3.4921896 14.9983313,3.781248 15.3875648,4.1625 C15.7768007,4.543752 16.0830543,5.0515584 16.3063371,5.6859384 C16.5296176,6.320316 16.6412579,7.0437456 16.6412579,7.8562512 C16.6412579,8.9375064 16.5175492,9.8921832 16.2701271,10.7203128 C16.0227073,11.5484424 15.6968425,12.2031216 15.292521,12.6843744 C14.8881973,13.1593776 14.6860412,13.5656232 14.6860412,13.9031256 C14.6860412,14.4031272 14.8157842,14.88906 15.0752747,15.3609384 C15.334763,15.8328144 15.6968378,16.1906232 16.1615062,16.4343744 C16.5296176,16.6281264 17.1089365,16.8703104 17.8994766,17.1609384 C18.6900145,17.451564 19.3960569,17.7281232 20.0176269,17.9906256 C20.639197,18.2531256 21.0555799,18.4937496 21.266792,18.7125 C21.4840406,18.9375012 21.6530084,19.2406231 21.7737,19.6218749 C21.894394,20.0031269 21.9607752,20.3281236 21.9728436,20.5968749 L22,21 L3,21 Z" fill="#536076"></path>
                </g>
            </g>
        </g>
    </g>
</svg>