<?xml version="1.0" encoding="UTF-8"?>
<svg width="36px" height="36px" viewBox="0 0 36 36" version="1.1" xmlns="http://www.w3.org/2000/svg" xmlns:xlink="http://www.w3.org/1999/xlink">
    <!-- Generator: Sketch 56.2 (81672) - https://sketch.com -->
    <title>text list_active</title>
    <desc>Created with Sketch.</desc>
    <defs>
        <path d="M23.5,23 L12.5,23 L12,23 L12,22 L12.5,22 L23.5,22 L24,22 L24,23 L23.5,23 Z M23.5,20 L12.5,20 L12,20 L12,19 L12.5,19 L23.5,19 L24,19 L24,20 L23.5,20 Z M23.5,17 L12.5,17 L12,17 L12,16 L12.5,16 L23.5,16 L24,16 L24,17 L23.5,17 Z M23.5,14 L12.5,14 L12,14 L12,13 L12.5,13 L23.5,13 L24,13 L24,14 L23.5,14 Z" id="path-1"></path>
        <filter x="-91.7%" y="-70.0%" width="283.3%" height="320.0%" filterUnits="objectBoundingBox" id="filter-2">
            <feOffset dx="0" dy="4" in="SourceAlpha" result="shadowOffsetOuter1"></feOffset>
            <feGaussianBlur stdDeviation="3" in="shadowOffsetOuter1" result="shadowBlurOuter1"></feGaussianBlur>
            <feColorMatrix values="0 0 0 0 0.17254902   0 0 0 0 0.654901961   0 0 0 0 0.97254902  0 0 0 0.4 0" type="matrix" in="shadowBlurOuter1"></feColorMatrix>
        </filter>
    </defs>
    <g id="页面-1" stroke="none" stroke-width="1" fill="none" fill-rule="evenodd">
        <g id="按钮规范" transform="translate(-412.000000, -868.000000)">
            <g id="text-list_normal备份-3" transform="translate(412.000000, 868.000000)">
                <g id="列表视图-2">
                    <use fill="black" fill-opacity="1" filter="url(#filter-2)" xlink:href="#path-1"></use>
                    <use fill="#0081FF" fill-rule="evenodd" xlink:href="#path-1"></use>
                </g>
            </g>
        </g>
    </g>
</svg>