<?xml version="1.0" encoding="UTF-8"?>
<svg width="36px" height="36px" viewBox="0 0 36 36" version="1.1" xmlns="http://www.w3.org/2000/svg" xmlns:xlink="http://www.w3.org/1999/xlink">
    <!-- Generator: Sketch 56.2 (81672) - https://sketch.com -->
    <title>next_press</title>
    <desc>Created with Sketch.</desc>
    <g id="页面-1" stroke="none" stroke-width="1" fill="none" fill-rule="evenodd">
        <g id="按钮规范" transform="translate(-601.000000, -538.000000)" fill="#0081FF">
            <g id="编组备份-2" transform="translate(519.000000, 531.000000)">
                <g id="next_normal" transform="translate(80.000000, 5.000000)">
                    <g id="编组-5" transform="translate(2.000000, 2.000000)">
                        <path d="M23.99995,14.9970589 L23.99995,21.785998 C23.99995,23.4392064 22.8544588,24.0830345 21.4414239,23.2195131 L16.0996114,19.9550722 C14.6802769,19.0877011 14.6865765,17.691506 16.0996114,16.8279847 L21.4414239,13.5635437 C22.8607584,12.6961727 23.99995,13.341829 23.99995,14.9970589 Z M23.0141401,22.0055103 L22.9966826,14.7911864 C22.9953281,14.2314135 22.6136905,14.0191043 22.1442446,14.3059879 L16.306654,17.8734044 C15.8408007,18.1580925 15.838335,18.6259731 16.3091709,18.9135412 L22.1640473,22.4894693 C22.63128,22.7748367 23.0154828,22.5603616 23.0141401,22.0055103 Z M13,23.8915284 L13,12.8915284 L14,12.8915284 L14,23.8915284 L13,23.8915284 Z" id="Combined-Shape" transform="translate(18.499975, 18.391528) scale(-1, 1) translate(-18.499975, -18.391528) "></path>
                    </g>
                </g>
            </g>
        </g>
    </g>
</svg>