<?xml version="1.0" encoding="UTF-8"?>
<svg width="24px" height="24px" viewBox="0 0 24 24" version="1.1" xmlns="http://www.w3.org/2000/svg" xmlns:xlink="http://www.w3.org/1999/xlink">
    <!-- Generator: Sketch 58 (84663) - https://sketch.com -->
    <title>volume lessen_normal</title>
    <desc>Created with Sketch.</desc>
    <g id="页面-1" stroke="none" stroke-width="1" fill="none" fill-rule="evenodd">
        <g id="按钮规范" transform="translate(-383.000000, -144.000000)" fill="#C5CFE0">
            <g id="volume-lessen_normal" transform="translate(383.000000, 144.000000)">
                <path d="M19.5,5 C19.7761424,5 20,5.19227943 20,5.42946812 L20,17.5705319 C20,17.8077206 19.7761424,18 19.5,18 C19.2238576,18 19,17.8077206 19,17.5705319 L19,5.42946812 C19,5.19227943 19.2238576,5 19.5,5 Z M16.5,7 C16.7761424,7 17,7.19552592 17,7.43671936 L17,16.5632806 C17,16.8044741 16.7761424,17 16.5,17 C16.2238576,17 16,16.8044741 16,16.5632806 L16,7.43671936 C16,7.19552592 16.2238576,7 16.5,7 Z M13,7.41743224 L13,16.5825678 C13,16.9537161 12.5212703,17.1395879 12.2412859,16.8771464 L10.5702371,15.3107998 C10.0142182,14.7896192 9.28068938,14.4995824 8.51859611,14.4995824 L7,14.4995824 C5.8954305,14.4995824 5,13.6041519 5,12.4995824 L5,11.5004176 C5,10.3958481 5.8954305,9.50041759 7,9.50041759 L8.51859611,9.50041759 C9.28068938,9.50041759 10.0142182,9.2103808 10.5702371,8.68920021 L12.2412859,7.12285363 C12.5212703,6.86041212 13,7.04628389 13,7.41743224 Z M14.5,8 C14.7761424,8 15,8.20182939 15,8.45079856 L15,14.5492014 C15,14.7981706 14.7761424,15 14.5,15 C14.2238576,15 14,14.7981706 14,14.5492014 L14,8.45079856 C14,8.20182939 14.2238576,8 14.5,8 Z" id="Combined-Shape"></path>
            </g>
        </g>
    </g>
</svg>