<?xml version="1.0" encoding="UTF-8" standalone="no"?>
<svg width="48px" height="48px" viewBox="0 0 48 48" version="1.1" xmlns="http://www.w3.org/2000/svg" xmlns:xlink="http://www.w3.org/1999/xlink" xmlns:sketch="http://www.bohemiancoding.com/sketch/ns">
    <!-- Generator: Sketch 3.1.1 (8761) - http://www.bohemiancoding.com/sketch -->
    <title>folder-music</title>
    <desc>Created with Sketch.</desc>
    <defs>
        <filter x="-50%" y="-50%" width="200%" height="200%" filterUnits="objectBoundingBox" id="filter-1">
            <feOffset dx="0" dy="1" in="SourceAlpha" result="shadowOffsetOuter1"></feOffset>
            <feGaussianBlur stdDeviation="1" in="shadowOffsetOuter1" result="shadowBlurOuter1"></feGaussianBlur>
            <feColorMatrix values="0 0 0 0 0   0 0 0 0 0   0 0 0 0 0  0 0 0 0.21 0" in="shadowBlurOuter1" type="matrix" result="shadowMatrixOuter1"></feColorMatrix>
            <feMerge>
                <feMergeNode in="shadowMatrixOuter1"></feMergeNode>
                <feMergeNode in="SourceGraphic"></feMergeNode>
            </feMerge>
        </filter>
        <linearGradient x1="50%" y1="0%" x2="50%" y2="100%" id="linearGradient-2">
            <stop stop-color="#8EC5FF" offset="0%"></stop>
            <stop stop-color="#70BCFF" offset="97%"></stop>
            <stop stop-color="#0F70E6" offset="100%"></stop>
        </linearGradient>
    </defs>
    <g id="Page-1" stroke="none" stroke-width="1" fill="none" fill-rule="evenodd" sketch:type="MSPage">
        <g id="folder-music" sketch:type="MSArtboardGroup">
            <g id="Group" sketch:type="MSLayerGroup" transform="translate(4.000000, 5.000000)">
                <path d="M2,6 L2,2 L24.172,2 L26.237,0 L38,0 L38,6 L40,6 L40,36 L0,36 L0,6 L2,6 Z" id="Shape-2" fill="#31A4FC" filter="url(#filter-1)" sketch:type="MSShapeGroup"></path>
                <path d="M38,30 L2,30 L2,2 L24.172,2 L26.237,0 L38,0 L38,30 Z" id="Shape" fill="#31A4FC" sketch:type="MSShapeGroup"></path>
                <rect id="Rectangle-path" fill="url(#linearGradient-2)" sketch:type="MSShapeGroup" x="0" y="6" width="40" height="30"></rect>
            </g>
            <path d="M28.514,18.941 L20.513,18.069 C20.217,18.037 19.959,18.268 19.959,18.566 L19.959,26.18 C19.354,25.945 18.564,25.965 17.804,26.301 C16.532,26.863 15.839,28.083 16.255,29.025 C16.672,29.967 18.04,30.274 19.312,29.712 C20.32,29.266 20.954,28.408 20.971,27.602 L20.982,27.598 L20.959,21.004 L27.959,21.849 L27.959,28.18 C27.354,27.945 26.564,27.965 25.804,28.301 C24.532,28.863 23.839,30.083 24.255,31.025 C24.672,31.967 26.04,32.274 27.312,31.712 C28.32,31.266 28.954,30.408 28.971,29.602 L28.982,29.598 L28.96,19.438 C28.959,19.183 28.767,18.969 28.514,18.941 L28.514,18.941 Z" id="Shape" fill="#FFFFFF" sketch:type="MSShapeGroup"></path>
        </g>
    </g>
</svg>