<?xml version="1.0" encoding="UTF-8"?>
<svg width="36px" height="36px" viewBox="0 0 36 36" version="1.1" xmlns="http://www.w3.org/2000/svg" xmlns:xlink="http://www.w3.org/1999/xlink">
    <!-- Generator: Sketch 56.2 (81672) - https://sketch.com -->
    <title>picture list_active</title>
    <desc>Created with Sketch.</desc>
    <defs>
        <path d="M20,22 L20,20 L20,19 L21,19 L23,19 L24,19 L24,20 L24,22 L24,23 L23,23 L21,23 L20,23 L20,22 Z M13,22 L13,20 L13,19 L14,19 L16,19 L17,19 L17,20 L17,22 L17,23 L16,23 L14,23 L13,23 L13,22 Z M20,15 L20,13 L20,12 L21,12 L23,12 L24,12 L24,13 L24,15 L24,16 L23,16 L21,16 L20,16 L20,15 Z M13,15 L13,13 L13,12 L14,12 L16,12 L17,12 L17,13 L17,15 L17,16 L16,16 L14,16 L13,16 L13,15 Z" id="path-1"></path>
        <filter x="-100.0%" y="-63.6%" width="300.0%" height="300.0%" filterUnits="objectBoundingBox" id="filter-2">
            <feOffset dx="0" dy="4" in="SourceAlpha" result="shadowOffsetOuter1"></feOffset>
            <feGaussianBlur stdDeviation="3" in="shadowOffsetOuter1" result="shadowBlurOuter1"></feGaussianBlur>
            <feColorMatrix values="0 0 0 0 0.17254902   0 0 0 0 0.654901961   0 0 0 0 0.97254902  0 0 0 0.4 0" type="matrix" in="shadowBlurOuter1"></feColorMatrix>
        </filter>
    </defs>
    <g id="页面-1" stroke="none" stroke-width="1" fill="none" fill-rule="evenodd">
        <g id="按钮规范" transform="translate(-336.000000, -868.000000)">
            <g id="picture-list_normal备份-3" transform="translate(336.000000, 868.000000)">
                <g id="图标视图-2">
                    <use fill="black" fill-opacity="1" filter="url(#filter-2)" xlink:href="#path-1"></use>
                    <use fill="#0081FF" fill-rule="evenodd" xlink:href="#path-1"></use>
                </g>
            </g>
        </g>
    </g>
</svg>