<?xml version="1.0" encoding="UTF-8" standalone="no"?>
<svg width="24px" height="25px" viewBox="0 0 24 25" version="1.1" xmlns="http://www.w3.org/2000/svg" xmlns:xlink="http://www.w3.org/1999/xlink">
    <!-- Generator: Sketch 3.8.3 (29802) - http://www.bohemiancoding.com/sketch -->
    <title>collect</title>
    <desc>Created with Sketch.</desc>
    <defs></defs>
    <g id="Page-1" stroke="none" stroke-width="1" fill="none" fill-rule="evenodd">
        <rect id="rect34462" transform="translate(12.001159, 11.999999) scale(1, -1) translate(-12.001159, -11.999999) " x="0.00116" y="0" width="23.999998" height="23.999998" rx="1.7382798e-05"></rect>
        <path d="M7.38008,5.090698 C5.54058,5.472798 3.98168,7.113598 3.98168,9.567298 C3.98168,12.050598 5.71708,13.762198 7.47578,15.125898 C9.23458,16.489498 11.04968,17.640998 11.52858,18.678598 C11.6117532,18.8560301 11.7908998,18.9685287 11.986847,18.9663757 C12.1827942,18.9642226 12.3594256,18.8478149 12.43868,18.668598 C12.92358,17.577698 14.73118,16.411298 16.48758,15.049498 C18.24388,13.687598 19.98168,12.003698 19.98168,9.565098 C19.98168,7.111398 18.42278,5.470598 16.58328,5.088498 C14.95138,4.749598 13.14008,5.446098 11.98168,7.115898 C10.82328,5.446098 9.01198,4.749598 7.38008,5.088498 L7.38008,5.090698 Z M7.58328,6.071198 C8.99368,5.778298 10.62458,6.372698 11.53438,8.192298 C11.6190679,8.36175278 11.7922414,8.46880223 11.98168,8.46880223 C12.1711186,8.46880223 12.3442921,8.36175278 12.42898,8.192298 C13.33878,6.372698 14.96968,5.778298 16.38008,6.071198 C17.79058,6.363998 18.98168,7.520998 18.98168,9.567298 C18.98168,11.528698 17.56988,12.947498 15.87618,14.260498 C14.39468,15.409298 12.85188,16.432598 11.97778,17.735198 C11.09948,16.474198 9.56548,15.479598 8.08908,14.334798 C6.39788,13.023398 4.98168,11.583898 4.98168,9.567298 C4.98168,7.520998 6.17278,6.364098 7.58328,6.071198 L7.58328,6.071198 Z" id="path34464" fill="#595959"></path>
    </g>
</svg>