<?xml version="1.0" encoding="UTF-8"?>
<svg width="36px" height="36px" viewBox="0 0 36 36" version="1.1" xmlns="http://www.w3.org/2000/svg" xmlns:xlink="http://www.w3.org/1999/xlink">
    <!-- Generator: Sketch 56.2 (81672) - https://sketch.com -->
    <title>last_normal</title>
    <desc>Created with Sketch.</desc>
    <g id="页面-1" stroke="none" stroke-width="1" fill="none" fill-rule="evenodd">
        <g id="按钮规范" transform="translate(-521.000000, -138.000000)" fill="#000000">
            <g id="编组" transform="translate(519.000000, 131.000000)">
                <g id="last_normal" transform="translate(0.000000, 5.000000)">
                    <polygon id="rect1141-5备份" stroke="#FFFFFF" opacity="0" points="-9.47390314e-14 0 40 0 40 40 -9.47390314e-14 40"></polygon>
                    <path d="M26.4355,16.8063405 L26.4355,23.5952795 C26.4355,25.248488 25.2900088,25.892316 23.8769739,25.0287947 L18.5351614,21.7643537 C17.1158269,20.8969827 17.1221265,19.5007876 18.5351614,18.6372663 L23.8769739,15.3728253 C25.2963084,14.5054542 26.4355,15.1511105 26.4355,16.8063405 Z M25.4496901,23.8147918 L25.4322326,16.600468 C25.4308781,16.0406951 25.0492405,15.8283859 24.5797946,16.1152695 L18.742204,19.682686 C18.2763507,19.9673741 18.273885,20.4352547 18.7447209,20.7228228 L24.5995973,24.2987509 C25.06683,24.5841183 25.4510328,24.3696431 25.4496901,23.8147918 Z M15.43555,25.70081 L15.43555,14.70081 L16.43555,14.70081 L16.43555,25.70081 L15.43555,25.70081 Z" id="Combined-Shape" fill-rule="nonzero"></path>
                </g>
            </g>
        </g>
    </g>
</svg>