<svg xmlns="http://www.w3.org/2000/svg" width="32" height="32" viewBox="0 0 32 32">
  <defs>
    <filter id="deepin-music-a" width="128.6%" height="130.8%" x="-14.3%" y="-15.4%" filterUnits="objectBoundingBox">
      <feOffset dy="1" in="SourceAlpha" result="shadowOffsetOuter1"/>
      <feGaussianBlur in="shadowOffsetOuter1" result="shadowBlurOuter1" stdDeviation=".5"/>
      <feComposite in="shadowBlurOuter1" in2="SourceAlpha" operator="out" result="shadowBlurOuter1"/>
      <feColorMatrix in="shadowBlurOuter1" result="shadowMatrixOuter1" values="0 0 0 0 0   0 0 0 0 0   0 0 0 0 0  0 0 0 0.15 0"/>
      <feMerge>
        <feMergeNode in="shadowMatrixOuter1"/>
        <feMergeNode in="SourceGraphic"/>
      </feMerge>
    </filter>
    <linearGradient id="deepin-music-b" x1="98.016%" x2="0%" y1="38.451%" y2="41.845%">
      <stop offset="0%" stop-color="#0BA186"/>
      <stop offset="100%" stop-color="#68C639"/>
    </linearGradient>
    <linearGradient id="deepin-music-c" x1="50%" x2="50%" y1="0%" y2="98.031%">
      <stop offset="0%" stop-color="#8DF34C"/>
      <stop offset="100%" stop-color="#00CCB3"/>
    </linearGradient>
    <linearGradient id="deepin-music-d" x1="50%" x2="50%" y1="0%" y2="100%">
      <stop offset="0%" stop-color="#FFF"/>
      <stop offset="100%" stop-color="#FFF" stop-opacity=".7"/>
    </linearGradient>
  </defs>
  <g fill="none" fill-rule="evenodd" filter="url(#deepin-music-a)" transform="translate(2 3)">
    <circle cx="16" cy="13" r="11.5" fill="#151E25" stroke="url(#deepin-music-b)" transform="rotate(90 16 13)"/>
    <path fill="url(#deepin-music-c)" d="M5.1277704,-2.07168062e-16 L17.8722296,2.07168062e-16 C19.6552671,-1.2037061e-16 20.3018396,0.185651222 20.9536914,0.534265408 C21.6055433,0.882879593 22.1171204,1.39445674 22.4657346,2.04630859 C22.8143488,2.69816044 23,3.34473292 23,5.1277704 L23,20.8722296 C23,22.6552671 22.8143488,23.3018396 22.4657346,23.9536914 C22.1171204,24.6055433 21.6055433,25.1171204 20.9536914,25.4657346 C20.3018396,25.8143488 19.6552671,26 17.8722296,26 L5.1277704,26 C3.34473292,26 2.69816044,25.8143488 2.04630859,25.4657346 C1.39445674,25.1171204 0.882879593,24.6055433 0.534265408,23.9536914 C0.185651222,23.3018396 8.02470732e-17,22.6552671 -1.38112041e-16,20.8722296 L1.38112041e-16,5.1277704 C-8.02470732e-17,3.34473292 0.185651222,2.69816044 0.534265408,2.04630859 C0.882879593,1.39445674 1.39445674,0.882879593 2.04630859,0.534265408 C2.69816044,0.185651222 3.34473292,1.2037061e-16 5.1277704,-2.07168062e-16 Z"/>
    <path fill="url(#deepin-music-d)" d="M17.9659495,5.49974282 C17.9886007,5.62017165 18,5.74244651 18,5.86498703 L18,16.4137931 L17.997,16.4136986 L18,16.5 C18,17.8254834 16.9684641,18.9100387 15.6643757,18.9946823 L15.5,19 C14.1192881,19 13,17.8807119 13,16.5 C13,15.1192881 14.1192881,14 15.5,14 C16.0418479,14 16.5434339,14.1723814 16.9529089,14.4652952 L16.952381,7.36955016 C16.952381,7.00579109 16.657496,6.71090609 16.2937369,6.71090609 C16.2558358,6.71090609 16.2180054,6.71417756 16.1806669,6.72068408 L8.59085874,8.04326729 C8.27651066,8.09804489 8.04663793,8.37026982 8.04529052,8.68935208 L8,19.4146341 L7.997,19.4136986 L8,19.5 C8,20.8254834 6.96846406,21.9100387 5.66437569,21.9946823 L5.5,22 C4.11928813,22 3,20.8807119 3,19.5 C3,18.1192881 4.11928813,17 5.5,17 C6.06323916,17 6.58297478,17.1862608 7.00097133,17.5005469 L7,7.19065517 C7,6.24022945 7.67664057,5.42445632 8.61068799,5.24877342 L15.6588236,3.92310528 C16.7312953,3.72138647 17.7642307,4.42727114 17.9659495,5.49974282 Z"/>
  </g>
</svg>
