<?xml version="1.0" encoding="UTF-8"?>
<svg width="25px" height="24px" viewBox="0 0 25 24" version="1.1" xmlns="http://www.w3.org/2000/svg" xmlns:xlink="http://www.w3.org/1999/xlink">
    <title>apps/128/deepin-music</title>
    <defs>
        <filter x="-10.3%" y="-5.1%" width="120.5%" height="120.5%" filterUnits="objectBoundingBox" id="filter-1">
            <feOffset dx="0" dy="1" in="SourceAlpha" result="shadowOffsetOuter1"></feOffset>
            <feGaussianBlur stdDeviation="0.5" in="shadowOffsetOuter1" result="shadowBlurOuter1"></feGaussianBlur>
            <feColorMatrix values="0 0 0 0 0   0 0 0 0 0   0 0 0 0 0  0 0 0 0.20036604 0" type="matrix" in="shadowBlurOuter1" result="shadowMatrixOuter1"></feColorMatrix>
            <feMerge>
                <feMergeNode in="shadowMatrixOuter1"></feMergeNode>
                <feMergeNode in="SourceGraphic"></feMergeNode>
            </feMerge>
        </filter>
        <linearGradient x1="92.1260445%" y1="3.54434412%" x2="36.3007032%" y2="100%" id="linearGradient-2">
            <stop stop-color="#00F257" offset="0%"></stop>
            <stop stop-color="#00B2C8" offset="100%"></stop>
        </linearGradient>
        <path d="M3.8458278,0 L15.6541722,2.26708535e-16 C16.9914503,-1.31724187e-16 17.4763797,0.139238417 17.9652686,0.400699056 C18.4541574,0.662159695 18.8378403,1.04584256 19.0993009,1.53473144 C19.3607616,2.02362033 19.5,2.50854969 19.5,3.8458278 L19.5,15.6541722 C19.5,16.9914503 19.3607616,17.4763797 19.0993009,17.9652686 C18.8378403,18.4541574 18.4541574,18.8378403 17.9652686,19.0993009 C17.4763797,19.3607616 16.9914503,19.5 15.6541722,19.5 L3.8458278,19.5 C2.50854969,19.5 2.02362033,19.3607616 1.53473144,19.0993009 C1.04584256,18.8378403 0.662159695,18.4541574 0.400699056,17.9652686 C0.139238417,17.4763797 0,16.9914503 0,15.6541722 L0,3.8458278 C0,2.50854969 0.139238417,2.02362033 0.400699056,1.53473144 C0.662159695,1.04584256 1.04584256,0.662159695 1.53473144,0.400699056 C2.02362033,0.139238417 2.50854969,0 3.8458278,0 Z" id="path-3"></path>
        <filter x="-12.8%" y="-12.8%" width="125.6%" height="125.6%" filterUnits="objectBoundingBox" id="filter-4">
            <feGaussianBlur stdDeviation="1.5" in="SourceAlpha" result="shadowBlurInner1"></feGaussianBlur>
            <feOffset dx="0" dy="-2" in="shadowBlurInner1" result="shadowOffsetInner1"></feOffset>
            <feComposite in="shadowOffsetInner1" in2="SourceAlpha" operator="arithmetic" k2="-1" k3="1" result="shadowInnerInner1"></feComposite>
            <feColorMatrix values="0 0 0 0 0   0 0 0 0 0.421021603   0 0 0 0 0.95482337  0 0 0 0.5 0" type="matrix" in="shadowInnerInner1"></feColorMatrix>
        </filter>
        <linearGradient x1="50%" y1="0%" x2="50%" y2="100%" id="linearGradient-5">
            <stop stop-color="#FFFFFF" stop-opacity="0.4" offset="0%"></stop>
            <stop stop-color="#003AA7" stop-opacity="0.3" offset="100%"></stop>
        </linearGradient>
    </defs>
    <g id="apps/128/deepin-music" stroke="none" fill="none" transform="translate(0.5, 0)">
        <g id="6-music" filter="url(#filter-1)" stroke-width="1" fill-rule="evenodd" transform="translate(2.25, 2.25)">
            <g id="矩形">
                <use fill="url(#linearGradient-2)" fill-rule="evenodd" xlink:href="#path-3"></use>
                <use fill="black" fill-opacity="1" filter="url(#filter-4)" xlink:href="#path-3"></use>
            </g>
            <path d="M15.6541722,0 C16.9914503,0 17.4763797,0.139238417 17.9652686,0.400699056 C18.4541574,0.662159695 18.8378403,1.04584256 19.0993009,1.53473144 C19.3607616,2.02362033 19.5,2.50854969 19.5,3.8458278 L19.5,15.6541722 C19.5,16.9914503 19.3607616,17.4763797 19.0993009,17.9652686 C18.8378403,18.4541574 18.4541574,18.8378403 17.9652686,19.0993009 C17.4763797,19.3607616 16.9914503,19.5 15.6541722,19.5 L3.8458278,19.5 C2.50854969,19.5 2.02362033,19.3607616 1.53473144,19.0993009 C1.04584256,18.8378403 0.662159695,18.4541574 0.400699056,17.9652686 C0.139238417,17.4763797 0,16.9914503 0,15.6541722 L0,3.8458278 C0,2.50854969 0.139238417,2.02362033 0.400699056,1.53473144 C0.662159695,1.04584256 1.04584256,0.662159695 1.53473144,0.400699056 C2.02362033,0.139238417 2.50854969,0 3.8458278,0 L15.6541722,0 Z M3.8458278,0.1875 C2.65490874,0.1875 2.14788562,0.285410682 1.62315623,0.56603903 C1.16694268,0.810024707 0.810024707,1.16694268 0.56603903,1.62315623 C0.285410682,2.14788562 0.1875,2.65490874 0.1875,3.8458278 L0.1875,15.6541722 C0.1875,16.8450913 0.285410682,17.3521144 0.56603903,17.8768438 C0.810024707,18.3330573 1.16694268,18.6899753 1.62315623,18.933961 C2.14788562,19.2145893 2.65490874,19.3125 3.8458278,19.3125 L15.6541722,19.3125 C16.8450913,19.3125 17.3521144,19.2145893 17.8768438,18.933961 C18.3330573,18.6899753 18.6899753,18.3330573 18.933961,17.8768438 C19.2145893,17.3521144 19.3125,16.8450913 19.3125,15.6541722 L19.3125,3.8458278 C19.3125,2.65490874 19.2145893,2.14788562 18.933961,1.62315623 C18.6899753,1.16694268 18.3330573,0.810024707 17.8768438,0.56603903 C17.3521144,0.285410682 16.8450913,0.1875 15.6541722,0.1875 L3.8458278,0.1875 Z" id="矩形" fill="url(#linearGradient-5)" fill-rule="nonzero"></path>
            <g id="music-1-fill" transform="translate(4.8835, 2.7857)" fill="#FFFFFF">
                <path d="M4.78129455,0.000222382536 C4.41040972,0.00932115549 4.11486087,0.318917606 4.11645844,0.696658528 L4.11645844,8.73004947 C3.04410255,8.09965667 1.67713821,8.28118559 0.801514174,9.17264565 C-0.0741098617,10.0641057 -0.252546106,11.4432333 0.366458437,12.5351765 C0.98546298,13.6271197 2.26004257,14.1596293 3.45615408,13.8335191 C4.6522656,13.5074089 5.42868035,12.4039863 5.42895844,11.1432007 L5.42895844,4.30419776 L8.75779667,4.8655253 C8.95603226,4.89908199 9.15873121,4.84217884 9.31206866,4.70992596 C9.46540611,4.57767308 9.55395844,4.38345307 9.55395844,4.17883926 L9.55395844,1.39309467 C9.55380452,1.05266414 9.31196332,0.762239211 8.98214466,0.706408634 L4.92561598,0.012061797 C4.87805298,0.00294816193 4.82967703,-0.00102036165 4.78129455,0.000222382536 Z" id="路径"></path>
                <path d="M4.78129455,0.000222382536 C4.82967703,-0.00102036165 4.87805298,0.00294816193 4.92561598,0.012061797 L8.98214466,0.706408634 C9.31196332,0.762239211 9.55380452,1.05266414 9.55395844,1.39309467 L9.55395844,4.17883926 C9.55395844,4.38345307 9.46540611,4.57767308 9.31206866,4.70992596 C9.15873121,4.84217884 8.95603226,4.89908199 8.75779667,4.8655253 L5.42895844,4.30419776 L5.42895844,11.1432007 C5.42868035,12.4039863 4.6522656,13.5074089 3.45615408,13.8335191 C2.26004257,14.1596293 0.98546298,13.6271197 0.366458437,12.5351765 C-0.252546106,11.4432333 -0.0741098617,10.0641057 0.801514174,9.17264565 C1.67713821,8.28118559 3.04410255,8.09965667 4.11645844,8.73004947 L4.11645844,0.696658528 C4.11486087,0.318917606 4.41040972,0.00932115549 4.78129455,0.000222382536 Z M4.79092357,0.375000001 C4.62517157,0.379165317 4.49071471,0.520012985 4.49145844,0.696658528 L4.49145844,9.38549241 L3.92641655,9.05332811 C3.00206136,8.50993868 1.82381234,8.66700599 1.0690448,9.43542382 C0.310894245,10.2072858 0.156099689,11.4036876 0.692686415,12.3502433 C1.22654085,13.291979 2.32563436,13.7530585 3.35751378,13.4717249 C4.37215307,13.1950916 5.05371329,12.2545834 5.05395844,11.1432007 L5.05395844,3.86066902 L5.49131276,3.93441818 L8.82038508,4.49578527 C8.90823024,4.51065541 8.99824303,4.48538636 9.06714681,4.42595715 C9.13773383,4.36507615 9.17895848,4.27458985 9.17895848,4.17883926 L9.17895848,1.39326422 C9.17895848,1.23456175 9.06788158,1.10125667 8.91887689,1.07603302 L4.85504534,0.380361655 C4.8338982,0.376309611 4.81241015,0.374546838 4.79092357,0.375000001 Z" id="路径" fill-opacity="0.3" fill-rule="nonzero"></path>
            </g>
        </g>
        <g id="Guide/128"></g>
    </g>
</svg>