<?xml version="1.0" encoding="UTF-8"?>
<svg width="36px" height="36px" viewBox="0 0 36 36" version="1.1" xmlns="http://www.w3.org/2000/svg" xmlns:xlink="http://www.w3.org/1999/xlink">
    <!-- Generator: Sketch 56.2 (81672) - https://sketch.com -->
    <title>single tune circulation_normal</title>
    <desc>Created with Sketch.</desc>
    <g id="页面-1" stroke="none" stroke-width="1" fill="none" fill-rule="evenodd">
        <g id="按钮规范" transform="translate(-1028.000000, -138.000000)" fill="#000000">
            <g id="single-tune-circulation_normal" transform="translate(1021.000000, 131.000000)">
                <g id="编组-12" transform="translate(7.000000, 7.000000)">
                    <g id="单曲循环" transform="translate(10.000000, 11.000000)">
                        <path d="M-5.04870979e-29,9 L-5.04870979e-29,5 C-5.04870979e-29,3.34314575 1.34314575,2 3,2 L10,2 L10,3 L3,3 C2.46956702,3 1.96085919,3.21071368 1.58578643,3.58578643 C1.21071367,3.96085919 1,4.46956702 1,5 L1,9.5 L-5.04870979e-29,9.5 L-5.04870979e-29,9.75 L-5.04870979e-29,9 Z M6.00000001,13 L6.00000001,12 L13,12 C13.530433,12 14.0391408,11.7892863 14.4142136,11.4142136 C14.7892863,11.0391408 15,10.530433 15,10 L15,6 L15,5.5 L16,5.5 L16,10 C16,11.6568543 14.6568542,13 13,13 L6.00000001,13 Z" id="形状" fill-rule="nonzero"></path>
                        <path d="M15,5.5 C15,5.77614237 15.2238576,6 15.5,6 C15.7761424,6 16,5.77614237 16,5.5 C16,5.22385763 15.7761424,5 15.5,5 C15.2238576,5 15,5.22385763 15,5.5 Z" id="路径" fill-rule="nonzero"></path>
                        <path d="M0,9.5 C0,9.77614237 0.223857625,10 0.5,10 C0.776142375,10 1,9.77614237 1,9.5 C1,9.22385763 0.776142375,9 0.5,9 C0.223857625,9 0,9.22385763 0,9.5 Z" id="路径" fill-rule="nonzero"></path>
                        <polygon id="polygon1047-6-path" points="10 0 13 2.5 10 5"></polygon>
                        <polygon id="polygon1047-6-path备份" transform="translate(4.500000, 12.500000) scale(-1, 1) translate(-4.500000, -12.500000) " points="3 10 6 12.5 3 15"></polygon>
                        <path d="M6,6.44439886 L6,5.96070988 C6.49170353,5.91608534 6.83407081,5.84222404 7.02876107,5.73810013 C7.22234515,5.6339762 7.36725664,5.38777185 7.46294249,5 L8,5 L8,10 L7.27433629,10 L7.27433629,6.44439886 L6,6.44439886 L6,6.44439886 Z" id="路径" fill-rule="nonzero"></path>
                    </g>
                </g>
            </g>
        </g>
    </g>
</svg>