<?xml version="1.0" encoding="UTF-8"?>
<svg width="128px" height="128px" viewBox="0 0 128 128" version="1.1" xmlns="http://www.w3.org/2000/svg" xmlns:xlink="http://www.w3.org/1999/xlink">
    <!-- Generator: Sketch 58 (84663) - https://sketch.com -->
    <title>icon_import_music</title>
    <desc>Created with Sketch.</desc>
    <g id="页面-1" stroke="none" stroke-width="1" fill="none" fill-rule="evenodd" opacity="0.3">
        <g id="0-0音乐首次打开" transform="translate(-908.000000, -434.000000)">
            <g id="编组-19" transform="translate(908.000000, 434.000000)">
                <path d="M22.2555408,34 L75.7444592,34 C79.3105342,34 80.6036791,34.3713024 81.9073828,35.0685308 C83.2110865,35.7657592 84.2342408,36.7889135 84.9314692,38.0926172 C85.6286976,39.3963209 86,40.6894658 86,44.2555408 L86,83.7444592 C86,87.3105342 85.6286976,88.6036791 84.9314692,89.9073828 C84.2342408,91.2110865 83.2110865,92.2342408 81.9073828,92.9314692 C80.6036791,93.6286976 79.3105342,94 75.7444592,94 L22.2555408,94 C18.6894658,94 17.3963209,93.6286976 16.0926172,92.9314692 C14.7889135,92.2342408 13.7657592,91.2110865 13.0685308,89.9073828 C12.3713024,88.6036791 12,87.3105342 12,83.7444592 L12,44.2555408 C12,40.6894658 12.3713024,39.3963209 13.0685308,38.0926172 C13.7657592,36.7889135 14.7889135,35.7657592 16.0926172,35.0685308 C17.3963209,34.3713024 18.6894658,34 22.2555408,34 Z" id="Rectangle备份-2" stroke="#C5CFE0" stroke-width="3" fill="#252525" fill-rule="nonzero" stroke-linejoin="round"></path>
                <path d="M52.2555408,34 L105.744459,34 C109.310534,34 110.603679,34.3713024 111.907383,35.0685308 C113.211087,35.7657592 114.234241,36.7889135 114.931469,38.0926172 C115.628698,39.3963209 116,40.6894658 116,44.2555408 L116,83.7444592 C116,87.3105342 115.628698,88.6036791 114.931469,89.9073828 C114.234241,91.2110865 113.211087,92.2342408 111.907383,92.9314692 C110.603679,93.6286976 109.310534,94 105.744459,94 L52.2555408,94 C48.6894658,94 47.3963209,93.6286976 46.0926172,92.9314692 C44.7889135,92.2342408 43.7657592,91.2110865 43.0685308,89.9073828 C42.3713024,88.6036791 42,87.3105342 42,83.7444592 L42,44.2555408 C42,40.6894658 42.3713024,39.3963209 43.0685308,38.0926172 C43.7657592,36.7889135 44.7889135,35.7657592 46.0926172,35.0685308 C47.3963209,34.3713024 48.6894658,34 52.2555408,34 Z" id="Rectangle备份-17" stroke="#C5CFE0" stroke-width="3" fill="#252525" fill-rule="nonzero" stroke-linejoin="round"></path>
                <path d="M32.2555408,22 L95.7444592,22 C99.3105342,22 100.603679,22.3713024 101.907383,23.0685308 C103.211087,23.7657592 104.234241,24.7889135 104.931469,26.0926172 C105.628698,27.3963209 106,28.6894658 106,32.2555408 L106,95.7444592 C106,99.3105342 105.628698,100.603679 104.931469,101.907383 C104.234241,103.211087 103.211087,104.234241 101.907383,104.931469 C100.603679,105.628698 99.3105342,106 95.7444592,106 L32.2555408,106 C28.6894658,106 27.3963209,105.628698 26.0926172,104.931469 C24.7889135,104.234241 23.7657592,103.211087 23.0685308,101.907383 C22.3713024,100.603679 22,99.3105342 22,95.7444592 L22,32.2555408 C22,28.6894658 22.3713024,27.3963209 23.0685308,26.0926172 C23.7657592,24.7889135 24.7889135,23.7657592 26.0926172,23.0685308 C27.3963209,22.3713024 28.6894658,22 32.2555408,22 Z" id="形状结合" stroke="#C5CFE0" stroke-width="3" fill="#252525" fill-rule="nonzero" stroke-linejoin="round"></path>
                <path d="M78.9668183,41.6156886 C78.9888928,41.7346177 79,41.8553226 79,41.9762831 L79,72.0816499 L78.999,72.081 L79,72.1195404 C79,75.631351 76.2150038,78.4926909 72.7331341,78.6154373 L72.5,78.6195404 C68.9101491,78.6195404 66,75.7093912 66,72.1195404 C66,68.5296895 68.9101491,65.6195404 72.5,65.6195404 C73.9337106,65.6195404 75.2590065,66.0837193 76.3338028,66.8699925 L76.3333333,48.1770549 C76.3333333,47.8132958 76.0384483,47.5184108 75.6746893,47.5184108 C75.6372783,47.5184108 75.5999354,47.5215982 75.5630656,47.5279385 L54.2113162,51.1996381 C53.8963147,51.2538066 53.6656696,51.526314 53.6643018,51.8459362 L53.5581126,76.7590403 C53.8434257,77.4907468 54,78.2868586 54,79.1195404 C54,82.7093912 51.0898509,85.6195404 47.5,85.6195404 C43.9101491,85.6195404 41,82.7093912 41,79.1195404 C41,75.5296895 43.9101491,72.6195404 47.5,72.6195404 C48.7891565,72.6195404 49.9906579,72.9948361 51.0012092,73.6421326 L51,46.4398645 C51,45.4876565 51.67912,44.6708856 52.6153377,44.4971139 L76.6634733,40.0335325 C77.7364248,39.8343817 78.7676675,40.5427371 78.9668183,41.6156886 Z" id="Combined-Shape" fill="#C5CFE0"></path>
                <circle id="椭圆形" stroke="#C5CFE0" stroke-width="3" fill="#252525" fill-rule="nonzero" stroke-linejoin="round" cx="101" cy="86" r="19"></circle>
                <path d="M107.307034,85.6269144 C107.39234,85.6269144 107.480692,85.6475832 107.553812,85.6977787 C108.114392,86.0845794 108.108299,86.7105469 107.748796,87.0648682 L101.119323,93.587332 C100.781147,93.9180318 100.229706,93.9239372 99.8884831,93.59619 L99.8793432,93.587332 L93.2498698,87.0648682 C92.9116935,86.7312157 92.9177868,86.1967811 93.2620563,85.8719866 C93.4235279,85.7184474 93.6428855,85.6298671 93.8683363,85.6298671 L96.9637154,85.6298671 L96.9637154,78.4222328 C96.9637154,78.1889713 97.1586999,78 97.3993839,78 L103.599282,78 C103.839966,78 104.034951,78.1889713 104.034951,78.4222328 L104.034951,85.6269144 L107.307034,85.6269144 Z" id="形状" fill="#C5CFE0" fill-rule="nonzero" transform="translate(100.500000, 85.919355) scale(1, -1) rotate(-270.000000) translate(-100.500000, -85.919355) "></path>
            </g>
        </g>
    </g>
</svg>