<?xml version="1.0" encoding="iso-8859-1"?>
<!-- Generator: Adobe Illustrator 18.0.0, SVG Export Plug-In . SVG Version: 6.00 Build 0)  -->
<!DOCTYPE svg PUBLIC "-//W3C//DTD SVG 1.1//EN" "http://www.w3.org/Graphics/SVG/1.1/DTD/svg11.dtd">
<svg version="1.1" id="&#x56FE;&#x5C42;_1" xmlns="http://www.w3.org/2000/svg" xmlns:xlink="http://www.w3.org/1999/xlink" x="0px"
	 y="0px" viewBox="0 0 24 24" style="enable-background:new 0 0 24 24;" xml:space="preserve">
<g>
	<path style="fill:#AFAFAF;" d="M21,12H4.526l6.724-5.171c0.219-0.169,0.26-0.482,0.092-0.701s-0.483-0.259-0.701-0.092l-7.89,6.067
		c-0.124,0.096-0.196,0.243-0.195,0.399s0.075,0.303,0.2,0.396l7.89,5.932c0.09,0.068,0.195,0.101,0.3,0.101
		c0.152,0,0.302-0.069,0.4-0.199c0.166-0.221,0.122-0.534-0.099-0.7L4.553,13H21c0.276,0,0.5-0.224,0.5-0.5S21.276,12,21,12z"/>
</g>
</svg>
