<?xml version="1.0" encoding="iso-8859-1"?>
<!-- Generator: Adobe Illustrator 18.0.0, SVG Export Plug-In . SVG Version: 6.00 Build 0)  -->
<!DOCTYPE svg PUBLIC "-//W3C//DTD SVG 1.1//EN" "http://www.w3.org/Graphics/SVG/1.1/DTD/svg11.dtd">
<svg version="1.1" id="&#x56FE;&#x5C42;_1" xmlns="http://www.w3.org/2000/svg" xmlns:xlink="http://www.w3.org/1999/xlink" x="0px"
	 y="0px" viewBox="0 0 16 16" style="enable-background:new 0 0 16 16;" xml:space="preserve">
<g>
	<g>
		<path style="fill:#424242;" d="M7.359,9.474c0-0.469-0.188-0.909-0.53-1.24c-0.619-0.596-1.69-0.596-2.308,0L4.464,8.288
			L4.409,8.233C3.789,7.638,2.719,7.637,2.1,8.234c-0.342,0.33-0.53,0.771-0.53,1.239c0,0.47,0.188,0.91,0.53,1.24L4.464,13
			l2.364-2.286C7.17,10.384,7.359,9.943,7.359,9.474z"/>
		<path style="fill:#424242;" d="M3.98,2v4.5c0,0.276,0.224,0.5,0.5,0.5s0.5-0.224,0.5-0.5V3h8v9h-6c-0.276,0-0.5,0.224-0.5,0.5
			S6.704,13,6.98,13h7V2H3.98z"/>
		<path style="fill:#424242;" d="M11.48,5h-5c-0.276,0-0.5,0.224-0.5,0.5S6.204,6,6.48,6h5c0.276,0,0.5-0.224,0.5-0.5
			S11.756,5,11.48,5z"/>
		<path style="fill:#424242;" d="M11.48,7h-3.5c-0.276,0-0.5,0.224-0.5,0.5S7.704,8,7.98,8h3.5c0.276,0,0.5-0.224,0.5-0.5
			S11.756,7,11.48,7z"/>
		<path style="fill:#424242;" d="M11.48,9h-2.5c-0.276,0-0.5,0.224-0.5,0.5S8.704,10,8.98,10h2.5c0.276,0,0.5-0.224,0.5-0.5
			S11.756,9,11.48,9z"/>
	</g>
</g>
</svg>
