<?xml version="1.0" encoding="utf-8"?>
<!-- Generator: Adobe Illustrator 18.0.0, SVG Export Plug-In . SVG Version: 6.00 Build 0)  -->
<!DOCTYPE svg PUBLIC "-//W3C//DTD SVG 1.1//EN" "http://www.w3.org/Graphics/SVG/1.1/DTD/svg11.dtd">
<svg version="1.1" id="图层_1" xmlns="http://www.w3.org/2000/svg" xmlns:xlink="http://www.w3.org/1999/xlink" x="0px" y="0px"
	 viewBox="0 0 16 16" enable-background="new 0 0 16 16" xml:space="preserve">
<path fill="#525A64" d="M10.4,8.4L8,10.6V4c0-0.2-0.1-0.3-0.3-0.3S7.3,3.8,7.3,4v6.6L4.9,8.4c-0.1-0.1-0.3-0.1-0.5,0
	c-0.1,0.1-0.1,0.3,0,0.5l3,2.7c0.1,0.1,0.1,0.1,0.2,0.1c0.1,0,0.2,0,0.2-0.1l3-2.7c0.1-0.1,0.1-0.3,0-0.5
	C10.8,8.3,10.6,8.3,10.4,8.4z"/>
</svg>
