<?xml version="1.0" encoding="iso-8859-1"?>
<!-- Generator: Adobe Illustrator 18.0.0, SVG Export Plug-In . SVG Version: 6.00 Build 0)  -->
<!DOCTYPE svg PUBLIC "-//W3C//DTD SVG 1.1//EN" "http://www.w3.org/Graphics/SVG/1.1/DTD/svg11.dtd">
<svg version="1.1" id="&#x56FE;&#x5C42;_1" xmlns="http://www.w3.org/2000/svg" xmlns:xlink="http://www.w3.org/1999/xlink" x="0px"
	 y="0px" viewBox="0 0 16 16" style="enable-background:new 0 0 16 16;" xml:space="preserve">
<g>
	<path style="fill:#AAAAAA;" d="M12.627,6.127L9,9.383V2.5C9,2.224,8.776,2,8.5,2S8,2.224,8,2.5v6.886l-3.643-3.26
		C4.154,5.944,3.839,5.96,3.651,6.166c-0.184,0.205-0.166,0.521,0.04,0.706l4.476,4.006c0.095,0.085,0.214,0.127,0.333,0.127
		s0.239-0.043,0.334-0.128l4.461-4.006c0.205-0.185,0.223-0.501,0.038-0.706C13.148,5.959,12.832,5.942,12.627,6.127z"/>
	<g>
		<path style="fill:#AAAAAA;" d="M13.5,13h-10C3.224,13,3,12.776,3,12.5S3.224,12,3.5,12h10c0.276,0,0.5,0.224,0.5,0.5
			S13.776,13,13.5,13z"/>
	</g>
</g>
</svg>
