<?xml version="1.0" encoding="iso-8859-1"?>
<!-- Generator: Adobe Illustrator 18.0.0, SVG Export Plug-In . SVG Version: 6.00 Build 0)  -->
<!DOCTYPE svg PUBLIC "-//W3C//DTD SVG 1.1//EN" "http://www.w3.org/Graphics/SVG/1.1/DTD/svg11.dtd">
<svg version="1.1" id="&#x56FE;&#x5C42;_1" xmlns="http://www.w3.org/2000/svg" xmlns:xlink="http://www.w3.org/1999/xlink" x="0px"
	 y="0px" viewBox="0 0 16 16" style="enable-background:new 0 0 16 16;" xml:space="preserve">
<path style="fill:#AAAAAA;" d="M13.864,2.909c-1.247-1.206-3.27-1.206-4.517,0L8.5,3.728L7.653,2.909
	c-1.247-1.206-3.27-1.206-4.517,0c-1.404,1.357-1.404,3.555,0,4.911L8.5,13.005l5.364-5.185C15.268,6.464,15.268,4.266,13.864,2.909
	z M13.169,7.101L8.5,11.614L3.831,7.101C3.349,6.636,3.083,6.019,3.083,5.365c0-0.654,0.266-1.271,0.748-1.737
	c0.416-0.402,0.971-0.624,1.563-0.624s1.147,0.222,1.564,0.624L8.5,5.118l1.542-1.489c0.416-0.402,0.972-0.624,1.564-0.624
	c0.592,0,1.147,0.221,1.563,0.623c0.482,0.466,0.748,1.083,0.748,1.737C13.917,6.019,13.651,6.636,13.169,7.101z"/>
</svg>
