<?xml version="1.0" encoding="iso-8859-1"?>
<!-- Generator: Adobe Illustrator 18.0.0, SVG Export Plug-In . SVG Version: 6.00 Build 0)  -->
<!DOCTYPE svg PUBLIC "-//W3C//DTD SVG 1.1//EN" "http://www.w3.org/Graphics/SVG/1.1/DTD/svg11.dtd">
<svg version="1.1" id="&#x56FE;&#x5C42;_1" xmlns="http://www.w3.org/2000/svg" xmlns:xlink="http://www.w3.org/1999/xlink" x="0px"
	 y="0px" viewBox="0 0 28 28" style="enable-background:new 0 0 28 28;" xml:space="preserve">
<g>
	<g>
		<path style="fill:#FFFFFF;" d="M23.578,8.02l-4.817-3.671C18.415,4.089,18,4.336,18,4.769V7H7C5.454,7,4,8.254,4,9.8v6.226
			l3-2.201c0,0,0-1.383,0-3.091C7,10.037,7.787,10,7.787,10H18v2.141c0,0.433,0.415,0.68,0.762,0.42l4.853-3.701
			C23.894,8.649,23.857,8.23,23.578,8.02z"/>
	</g>
	<g>
		<path style="fill:#FFFFFF;" d="M4.458,20.094l4.799,3.671C9.603,24.025,10,23.779,10,23.346V21h11.036
			C22.582,21,24,19.861,24,18.314v-6.335l-3,2.31c0,0,0,1.191,0,2.898C21,18.016,20.248,18,20.248,18H10v-2.026
			c0-0.433-0.398-0.68-0.744-0.42l-4.844,3.701C4.133,19.465,4.178,19.884,4.458,20.094z"/>
	</g>
</g>
</svg>
