<?xml version="1.0" encoding="iso-8859-1"?>
<!-- Generator: Adobe Illustrator 18.0.0, SVG Export Plug-In . SVG Version: 6.00 Build 0)  -->
<!DOCTYPE svg PUBLIC "-//W3C//DTD SVG 1.1//EN" "http://www.w3.org/Graphics/SVG/1.1/DTD/svg11.dtd">
<svg version="1.1" id="&#x56FE;&#x5C42;_1" xmlns="http://www.w3.org/2000/svg" xmlns:xlink="http://www.w3.org/1999/xlink" x="0px"
	 y="0px" viewBox="0 0 28 28" style="enable-background:new 0 0 28 28;" xml:space="preserve">
<g>
	<g>
		<g>
			<path style="fill:#FFFFFF;" d="M17.606,18.795c-2.619,0-4.75-2.131-4.75-4.75s2.131-4.75,4.75-4.75s4.75,2.131,4.75,4.75
				S20.226,18.795,17.606,18.795z M17.606,10.795c-1.792,0-3.25,1.458-3.25,3.25s1.458,3.25,3.25,3.25s3.25-1.458,3.25-3.25
				S19.398,10.795,17.606,10.795z"/>
		</g>
		<g>
			<path style="fill:none;" d="M17.606,9.295c-2.619,0-4.75,2.131-4.75,4.75s2.131,4.75,4.75,4.75s4.75-2.131,4.75-4.75
				S20.226,9.295,17.606,9.295z"/>
		</g>
		<g>
			<g>
				<path style="fill:#FFFFFF;" d="M18.563,15.755c-0.192,0-0.383-0.073-0.53-0.22l-1.914-1.911
					c-0.293-0.292-0.293-0.767-0.001-1.061c0.293-0.293,0.768-0.293,1.061,0l1.914,1.911c0.293,0.292,0.293,0.767,0.001,1.061
					C18.948,15.682,18.755,15.755,18.563,15.755z"/>
			</g>
		</g>
	</g>
	<path style="fill:#FFFFFF;" d="M13.757,7.914C13.906,7.82,14,7.661,14,7.484l0-3.064c0-0.206-0.126-0.391-0.318-0.466
		c-0.19-0.075-0.409-0.025-0.549,0.126L7.656,10H3.5C3.224,10,3,10.224,3,10.5v7C3,17.776,3.224,18,3.5,18h4.154l5.476,6.007
		c0.097,0.105,0.232,0.163,0.37,0.163c0.061,0,0.122-0.011,0.181-0.034C13.873,24.062,14,23.876,14,23.67l0-3.064
		c0-0.176-0.094-0.336-0.243-0.43c-2.13-1.342-3.4-3.633-3.4-6.131S11.627,9.256,13.757,7.914z"/>
</g>
</svg>
