<?xml version="1.0" encoding="iso-8859-1"?>
<!-- Generator: Adobe Illustrator 18.0.0, SVG Export Plug-In . SVG Version: 6.00 Build 0)  -->
<!DOCTYPE svg PUBLIC "-//W3C//DTD SVG 1.1//EN" "http://www.w3.org/Graphics/SVG/1.1/DTD/svg11.dtd">
<svg version="1.1" id="&#x56FE;&#x5C42;_1" xmlns="http://www.w3.org/2000/svg" xmlns:xlink="http://www.w3.org/1999/xlink" x="0px"
	 y="0px" viewBox="0 0 48 48" style="enable-background:new 0 0 48 48;" xml:space="preserve">
<g>
	<g>
		<path id="info-2-icon_1_" style="fill:#FFFFFF;" d="M21,32c0,0.552-0.448,1-1,1h-4c-0.552,0-1-0.448-1-1V16c0-0.552,0.448-1,1-1h4
			c0.552,0,1,0.448,1,1V32z M33,32c0,0.552-0.448,1-1,1h-4c-0.552,0-1-0.448-1-1V16c0-0.552,0.448-1,1-1h4c0.552,0,1,0.448,1,1V32z"
			/>
		<g>
			<path style="fill:#FFFFFF;" d="M24.083,44.989c-11.58,0-21-9.421-21-21s9.42-21,21-21c11.579,0,21,9.421,21,21
				S35.663,44.989,24.083,44.989z M24.083,5.989c-9.925,0-18,8.075-18,18s8.075,18,18,18c9.925,0,18-8.075,18-18
				S34.008,5.989,24.083,5.989z"/>
		</g>
	</g>
</g>
</svg>
