<?xml version="1.0" encoding="iso-8859-1"?>
<!-- Generator: Adobe Illustrator 18.0.0, SVG Export Plug-In . SVG Version: 6.00 Build 0)  -->
<!DOCTYPE svg PUBLIC "-//W3C//DTD SVG 1.1//EN" "http://www.w3.org/Graphics/SVG/1.1/DTD/svg11.dtd">
<svg version="1.1" id="&#x56FE;&#x5C42;_1" xmlns="http://www.w3.org/2000/svg" xmlns:xlink="http://www.w3.org/1999/xlink" x="0px"
	 y="0px" viewBox="0 0 28 28" style="enable-background:new 0 0 28 28;" xml:space="preserve">
<g>
	<path style="fill:#FFFFFF;" d="M23.578,8.02l-4.817-3.671C18.415,4.089,18,4.336,18,4.769V7H7C5.454,7,4,8.254,4,9.8v6.16l3-2.135
		c0,0,0-1.336,0-3.044C7,9.938,7.787,10,7.787,10H18v2.141c0,0.433,0.415,0.68,0.762,0.42l4.853-3.701
		C23.894,8.649,23.857,8.23,23.578,8.02z"/>
	<path style="fill:#FFFFFF;" d="M23,16.8V15h-1.556c-0.138,0-0.626,0.932-1.444,1.1V17h1v5h-1v2h4v-2h-1V16.8z"/>
	<path style="fill:#FFFFFF;" d="M10,18v-2.265c0-0.433-0.398-0.68-0.744-0.42l-4.719,3.83c-0.279,0.21-0.359,0.708-0.079,0.918
		l4.799,3.872C9.603,24.194,10,23.948,10,23.515V21h8.2c0.442,0,0.8-0.358,0.8-0.8v-1.4c0-0.442-0.358-0.8-0.8-0.8H10z"/>
</g>
</svg>
