<?xml version="1.0" encoding="iso-8859-1"?>
<!-- Generator: Adobe Illustrator 18.0.0, SVG Export Plug-In . SVG Version: 6.00 Build 0)  -->
<!DOCTYPE svg PUBLIC "-//W3C//DTD SVG 1.1//EN" "http://www.w3.org/Graphics/SVG/1.1/DTD/svg11.dtd">
<svg version="1.1" id="&#x56FE;&#x5C42;_1" xmlns="http://www.w3.org/2000/svg" xmlns:xlink="http://www.w3.org/1999/xlink" x="0px"
	 y="0px" viewBox="0 0 48 48" style="enable-background:new 0 0 48 48;" xml:space="preserve">
<g>
	<path style="fill:#FFFFFF;" d="M19.503,13.82l15.927,9.278c0.681,0.397,0.693,1.382,0.011,1.78l-15.852,9.221
		C18.903,34.5,18,34.004,18,33.209V14.684C18,13.912,18.837,13.431,19.503,13.82z"/>
	<g>
		<path style="fill:#FFFFFF;" d="M24,45.06c-11.58,0-21-9.421-21-21s9.42-21,21-21s21,9.421,21,21S35.58,45.06,24,45.06z M24,6.06
			c-9.925,0-18,8.075-18,18s8.075,18,18,18s18-8.075,18-18S33.925,6.06,24,6.06z"/>
	</g>
</g>
</svg>
