<?xml version="1.0" encoding="iso-8859-1"?>
<!-- Generator: Adobe Illustrator 18.0.0, SVG Export Plug-In . SVG Version: 6.00 Build 0)  -->
<!DOCTYPE svg PUBLIC "-//W3C//DTD SVG 1.1//EN" "http://www.w3.org/Graphics/SVG/1.1/DTD/svg11.dtd">
<svg version="1.1" id="&#x56FE;&#x5C42;_1" xmlns="http://www.w3.org/2000/svg" xmlns:xlink="http://www.w3.org/1999/xlink" x="0px"
	 y="0px" viewBox="0 0 28 28" style="enable-background:new 0 0 28 28;" xml:space="preserve">
<g>
	<path style="fill:#FFFFFF;" d="M8,7.5C8,7.776,7.776,8,7.5,8h-2C5.224,8,5,7.776,5,7.5v-2C5,5.224,5.224,5,5.5,5h2
		C7.776,5,8,5.224,8,5.5V7.5z"/>
	<path style="fill:#FFFFFF;" d="M23,7.5C23,7.776,22.776,8,22.5,8h-11C11.224,8,11,7.776,11,7.5v-2C11,5.224,11.224,5,11.5,5h11
		C22.776,5,23,5.224,23,5.5V7.5z"/>
	<path style="fill:#FFFFFF;" d="M8,14.5C8,14.776,7.776,15,7.5,15h-2C5.224,15,5,14.776,5,14.5v-2C5,12.224,5.224,12,5.5,12h2
		C7.776,12,8,12.224,8,12.5V14.5z"/>
	<path style="fill:#FFFFFF;" d="M23,14.5c0,0.276-0.224,0.5-0.5,0.5h-11c-0.276,0-0.5-0.224-0.5-0.5v-2c0-0.276,0.224-0.5,0.5-0.5
		h11c0.276,0,0.5,0.224,0.5,0.5V14.5z"/>
	<path style="fill:#FFFFFF;" d="M8,21.5C8,21.776,7.776,22,7.5,22h-2C5.224,22,5,21.776,5,21.5v-2C5,19.224,5.224,19,5.5,19h2
		C7.776,19,8,19.224,8,19.5V21.5z"/>
	<path style="fill:#FFFFFF;" d="M23,21.5c0,0.276-0.224,0.5-0.5,0.5h-11c-0.276,0-0.5-0.224-0.5-0.5v-2c0-0.276,0.224-0.5,0.5-0.5
		h11c0.276,0,0.5,0.224,0.5,0.5V21.5z"/>
</g>
</svg>
