<?xml version="1.0" encoding="iso-8859-1"?>
<!-- Generator: Adobe Illustrator 18.0.0, SVG Export Plug-In . SVG Version: 6.00 Build 0)  -->
<!DOCTYPE svg PUBLIC "-//W3C//DTD SVG 1.1//EN" "http://www.w3.org/Graphics/SVG/1.1/DTD/svg11.dtd">
<svg version="1.1" id="&#x56FE;&#x5C42;_1" xmlns="http://www.w3.org/2000/svg" xmlns:xlink="http://www.w3.org/1999/xlink" x="0px"
	 y="0px" viewBox="0 0 28 28" style="enable-background:new 0 0 28 28;" xml:space="preserve">
<g>
	<path style="fill:#FFFFFF;" d="M23.578,19.163l-4.817-3.671C18.415,15.232,18,15.479,18,15.911v2.209v0.038
		c-1-0.025-1.953-0.442-3.04-1.686l-1.803,2.48c1.609,1.578,3.949,2.072,4.844,2.086v2.244c0,0.433,0.415,0.68,0.762,0.42
		l4.853-3.701C23.894,19.792,23.857,19.373,23.578,19.163z"/>
	<path style="fill:#FFFFFF;" d="M23.578,7.963l-4.817-3.671C18.415,4.032,18,4.279,18,4.711v2.209c-4,0.077-5.538,2.292-6.896,4.854
		C8.684,16.341,6,17.651,4,18.02v2.943c2-0.298,6.093-1.645,9.146-7.425C14.354,11.252,16,9.872,18,9.797V9.8v2.283
		c0,0.433,0.415,0.68,0.762,0.42l4.853-3.701C23.894,8.592,23.857,8.173,23.578,7.963z"/>
	<path style="fill:#FFFFFF;" d="M4,7.061v2.794c1,0.108,3.106,0.47,4.718,1.623l1.129-2.566C7.771,7.529,5.836,7.149,4,7.061z"/>
</g>
</svg>
