<?xml version="1.0" encoding="iso-8859-1"?>
<!-- Generator: Adobe Illustrator 18.0.0, SVG Export Plug-In . SVG Version: 6.00 Build 0)  -->
<!DOCTYPE svg PUBLIC "-//W3C//DTD SVG 1.1//EN" "http://www.w3.org/Graphics/SVG/1.1/DTD/svg11.dtd">
<svg version="1.1" id="&#x56FE;&#x5C42;_1" xmlns="http://www.w3.org/2000/svg" xmlns:xlink="http://www.w3.org/1999/xlink" x="0px"
	 y="0px" viewBox="0 0 28 28" style="enable-background:new 0 0 28 28;" xml:space="preserve">
<g>
	<g>
		<path style="fill:#FFFFFF;" d="M13.682,3.954c-0.19-0.075-0.409-0.025-0.549,0.126L7.656,10H3.5C3.224,10,3,10.224,3,10.5v7
			C3,17.776,3.224,18,3.5,18h4.154l5.476,6.007c0.097,0.105,0.232,0.163,0.37,0.163c0.061,0,0.122-0.011,0.181-0.034
			C13.873,24.062,14,23.876,14,23.67V4.42C14,4.214,13.874,4.029,13.682,3.954z"/>
		<path style="fill:#FFFFFF;" d="M17.839,15.276c0.176-0.418,0.266-0.859,0.266-1.314c0-0.454-0.089-0.896-0.266-1.314
			c-0.17-0.402-0.414-0.764-0.723-1.071c-0.31-0.31-0.67-0.553-1.072-0.723c-0.381-0.164-0.821,0.017-0.983,0.398
			c-0.161,0.381,0.017,0.821,0.399,0.982c0.223,0.095,0.423,0.229,0.596,0.403c0.172,0.171,0.307,0.371,0.401,0.595
			c0.098,0.231,0.147,0.477,0.147,0.729s-0.05,0.499-0.147,0.729c-0.095,0.225-0.23,0.425-0.402,0.597
			c-0.172,0.173-0.373,0.308-0.596,0.402c-0.382,0.161-0.56,0.602-0.399,0.982c0.121,0.286,0.399,0.458,0.691,0.458
			c0.097,0,0.196-0.019,0.292-0.06c0.402-0.17,0.763-0.413,1.072-0.722S17.668,15.68,17.839,15.276z"/>
	</g>
</g>
</svg>
