<?xml version="1.0" encoding="iso-8859-1"?>
<!-- Generator: Adobe Illustrator 18.0.0, SVG Export Plug-In . SVG Version: 6.00 Build 0)  -->
<!DOCTYPE svg PUBLIC "-//W3C//DTD SVG 1.1//EN" "http://www.w3.org/Graphics/SVG/1.1/DTD/svg11.dtd">
<svg version="1.1" id="&#x56FE;&#x5C42;_1" xmlns="http://www.w3.org/2000/svg" xmlns:xlink="http://www.w3.org/1999/xlink" x="0px"
	 y="0px" viewBox="0 0 28 28" style="enable-background:new 0 0 28 28;" xml:space="preserve">
<g>
	<g>
		<polygon style="fill:#FFFFFF;" points="4,7 2,7 2,20 9,20 9,18 4,18 		"/>
		<path style="fill:#FFFFFF;" d="M25.078,15.328c-0.263,1.582-0.908,2.936-2.124,2.936c-1.675,0-2.27-2.567-2.27-4.765
			c0-2.371,0.702-4.764,2.27-4.764c1.16,0,1.845,1.311,2.123,2.952l1.956-0.39C26.577,8.793,25.274,7,22.954,7
			c-2.959,0-4.27,2.91-4.27,6.5c0,3.59,1.259,6.5,4.27,6.5c2.37,0,3.651-1.807,4.09-4.326L25.078,15.328z"/>
		<path style="fill:#FFFFFF;" d="M18,11.157v-0.313C18,8.721,16.279,7,14.157,7H12h-1h-1v13h2v-5h1.431l3.333,5H19l-3.503-5.254
			C16.956,14.201,18,12.806,18,11.157z M12,9h2.156C15.174,9,16,9.825,16,10.844v0.313C16,12.174,15.174,13,14.156,13H12V9z"/>
	</g>
</g>
</svg>
