<?xml version="1.0" encoding="iso-8859-1"?>
<!-- Generator: Adobe Illustrator 18.0.0, SVG Export Plug-In . SVG Version: 6.00 Build 0)  -->
<!DOCTYPE svg PUBLIC "-//W3C//DTD SVG 1.1//EN" "http://www.w3.org/Graphics/SVG/1.1/DTD/svg11.dtd">
<svg version="1.1" id="&#x56FE;&#x5C42;_1" xmlns="http://www.w3.org/2000/svg" xmlns:xlink="http://www.w3.org/1999/xlink" x="0px"
	 y="0px" viewBox="0 0 16 16" style="enable-background:new 0 0 16 16;" xml:space="preserve">
<path style="fill:#FFFFFF;" d="M1,4v8c0,0.552,0.448,1,1,1h12c0.552,0,1-0.448,1-1V4c0-0.552-0.448-1-1-1H2C1.448,3,1,3.448,1,4z
	 M14,10.5c0,0.276-0.224,0.5-0.5,0.5h-6C7.224,11,7,10.776,7,10.5v-1C7,9.224,7.224,9,7.5,9h6C13.776,9,14,9.224,14,9.5V10.5z
	 M12,7.5C12,7.776,11.776,8,11.5,8H6v1.715c0,0.247-0.283,0.388-0.48,0.24l-3.41-2.701c-0.16-0.12-0.16-0.36,0-0.48l3.41-2.7
	C5.717,3.926,6,4.067,6,4.314V6h5.5C11.776,6,12,6.224,12,6.5V7.5z"/>
</svg>
