<?xml version="1.0" encoding="iso-8859-1"?>
<!-- Generator: Adobe Illustrator 18.0.0, SVG Export Plug-In . SVG Version: 6.00 Build 0)  -->
<!DOCTYPE svg PUBLIC "-//W3C//DTD SVG 1.1//EN" "http://www.w3.org/Graphics/SVG/1.1/DTD/svg11.dtd">
<svg version="1.1" id="&#x56FE;&#x5C42;_1" xmlns="http://www.w3.org/2000/svg" xmlns:xlink="http://www.w3.org/1999/xlink" x="0px"
	 y="0px" viewBox="0 0 16 16" style="enable-background:new 0 0 16 16;" xml:space="preserve">
<g>
	<path style="fill:#FFFFFF;" d="M1,4v8c0,0.552,0.448,1,1,1h12c0.552,0,1-0.448,1-1V4c0-0.552-0.448-1-1-1H2C1.448,3,1,3.448,1,4z
		 M12.5,9h-9C3.224,9,3,8.776,3,8.5v-1C3,7.224,3.224,7,3.5,7h9C12.776,7,13,7.224,13,7.5v1C13,8.776,12.776,9,12.5,9z"/>
</g>
</svg>
