<?xml version="1.0" encoding="iso-8859-1"?>
<!-- Generator: Adobe Illustrator 18.0.0, SVG Export Plug-In . SVG Version: 6.00 Build 0)  -->
<!DOCTYPE svg PUBLIC "-//W3C//DTD SVG 1.1//EN" "http://www.w3.org/Graphics/SVG/1.1/DTD/svg11.dtd">
<svg version="1.1" id="&#x56FE;&#x5C42;_1" xmlns="http://www.w3.org/2000/svg" xmlns:xlink="http://www.w3.org/1999/xlink" x="0px"
	 y="0px" viewBox="0 0 16 16" style="enable-background:new 0 0 16 16;" xml:space="preserve">
<g>
	<path style="fill:#FFFFFF;" d="M13,7h-1V4.68C12,2.582,10.3,1,7.953,1C5.7,1,4,2.582,4,4.68V7H3C2.448,7,2,7.448,2,8v6
		c0,0.552,0.448,1,1,1h10c0.552,0,1-0.448,1-1V8C14,7.448,13.552,7,13,7z M9,13c0,0.552-0.448,1-1,1H8c-0.552,0-1-0.448-1-1V9
		c0-0.552,0.448-1,1-1H8c0.552,0,1,0.448,1,1V13z M5,7V4.68C5,3.127,6.242,2,8.047,2C9.758,2,11,3.127,11,4.68V7H5z"/>
</g>
</svg>
