<?xml version="1.0" encoding="iso-8859-1"?>
<!-- Generator: Adobe Illustrator 18.0.0, SVG Export Plug-In . SVG Version: 6.00 Build 0)  -->
<!DOCTYPE svg PUBLIC "-//W3C//DTD SVG 1.1//EN" "http://www.w3.org/Graphics/SVG/1.1/DTD/svg11.dtd">
<svg version="1.1" id="&#x56FE;&#x5C42;_1" xmlns="http://www.w3.org/2000/svg" xmlns:xlink="http://www.w3.org/1999/xlink" x="0px"
	 y="0px" viewBox="0 0 16 16" style="enable-background:new 0 0 16 16;" xml:space="preserve">
<g>
	<path style="fill:#FFFFFF;" d="M14.443,13.004l-2.562-2.562c0.703-0.983,1.122-2.182,1.122-3.48c0-3.309-2.691-6-6-6s-6,2.691-6,6
		s2.691,6,6,6c1.29,0,2.483-0.413,3.462-1.108l2.565,2.565c0.194,0.194,0.603,0.235,0.798,0.041l0.707-0.707
		C14.729,13.557,14.638,13.2,14.443,13.004z M2.002,6.962c0-2.757,2.243-5,5-5s5,2.243,5,5s-2.243,5-5,5S2.002,9.719,2.002,6.962z"
		/>
</g>
</svg>
