<?xml version="1.0" encoding="iso-8859-1"?>
<!-- Generator: Adobe Illustrator 18.0.0, SVG Export Plug-In . SVG Version: 6.00 Build 0)  -->
<!DOCTYPE svg PUBLIC "-//W3C//DTD SVG 1.1//EN" "http://www.w3.org/Graphics/SVG/1.1/DTD/svg11.dtd">
<svg version="1.1" id="&#x56FE;&#x5C42;_1" xmlns="http://www.w3.org/2000/svg" xmlns:xlink="http://www.w3.org/1999/xlink" x="0px"
	 y="0px" viewBox="0 0 24 24" style="enable-background:new 0 0 24 24;" xml:space="preserve">
<g>
	<g>
		<path style="fill:#FFFFFF;" d="M12.042,22.995c-6.065,0-11-4.935-11-11s4.935-11,11-11s11,4.935,11,11
			S18.107,22.995,12.042,22.995z M12.042,1.995c-5.514,0-10,4.486-10,10s4.486,10,10,10s10-4.486,10-10S17.556,1.995,12.042,1.995z"
			/>
	</g>
	<g>
		<path id="info-2-icon_8_" style="fill:#FFFFFF;" d="M11,16.5c0,0.276-0.224,0.5-0.5,0.5h-2C8.224,17,8,16.776,8,16.5v-9
			C8,7.224,8.224,7,8.5,7h2C10.776,7,11,7.224,11,7.5V16.5z M16,16.5c0,0.276-0.224,0.5-0.5,0.5h-2c-0.276,0-0.5-0.224-0.5-0.5v-9
			C13,7.224,13.224,7,13.5,7h2C15.776,7,16,7.224,16,7.5V16.5z"/>
	</g>
</g>
</svg>
