<?xml version="1.0" encoding="iso-8859-1"?>
<!-- Generator: Adobe Illustrator 18.0.0, SVG Export Plug-In . SVG Version: 6.00 Build 0)  -->
<!DOCTYPE svg PUBLIC "-//W3C//DTD SVG 1.1//EN" "http://www.w3.org/Graphics/SVG/1.1/DTD/svg11.dtd">
<svg version="1.1" id="&#x56FE;&#x5C42;_1" xmlns="http://www.w3.org/2000/svg" xmlns:xlink="http://www.w3.org/1999/xlink" x="0px"
	 y="0px" viewBox="0 0 24 24" style="enable-background:new 0 0 24 24;" xml:space="preserve">
<g>
	<path style="fill:#FFFFFF;" d="M9.752,6.91l7.963,4.639c0.341,0.199,0.346,0.691,0.006,0.89L9.795,17.05
		C9.451,17.25,9,17.002,9,16.605V7.342C9,6.956,9.418,6.716,9.752,6.91z"/>
	<g>
		<path style="fill:#FFFFFF;" d="M12,23.03c-6.065,0-11-4.935-11-11s4.935-11,11-11s11,4.935,11,11S18.065,23.03,12,23.03z M12,2.03
			c-5.514,0-10,4.486-10,10s4.486,10,10,10s10-4.486,10-10S17.514,2.03,12,2.03z"/>
	</g>
</g>
</svg>
