<?xml version="1.0" encoding="iso-8859-1"?>
<!-- Generator: Adobe Illustrator 18.0.0, SVG Export Plug-In . SVG Version: 6.00 Build 0)  -->
<!DOCTYPE svg PUBLIC "-//W3C//DTD SVG 1.1//EN" "http://www.w3.org/Graphics/SVG/1.1/DTD/svg11.dtd">
<svg version="1.1" id="&#x56FE;&#x5C42;_1" xmlns="http://www.w3.org/2000/svg" xmlns:xlink="http://www.w3.org/1999/xlink" x="0px"
	 y="0px" viewBox="0 0 16 16" style="enable-background:new 0 0 16 16;" xml:space="preserve">
<g>
	<path style="fill:#FFFFFF;" d="M1,4v8c0,0.552,0.448,1,1,1h12c0.552,0,1-0.448,1-1V4c0-0.552-0.448-1-1-1H2C1.448,3,1,3.448,1,4z
		 M10.5,7h-8C2.224,7,2,6.776,2,6.5v-1C2,5.224,2.224,5,2.5,5h8C10.776,5,11,5.224,11,5.5v1C11,6.776,10.776,7,10.5,7z M14,10.5
		c0,0.276-0.224,0.5-0.5,0.5h-8C5.224,11,5,10.776,5,10.5v-1C5,9.224,5.224,9,5.5,9h8C13.776,9,14,9.224,14,9.5V10.5z"/>
</g>
</svg>
