<?xml version="1.0" encoding="iso-8859-1"?>
<!-- Generator: Adobe Illustrator 18.0.0, SVG Export Plug-In . SVG Version: 6.00 Build 0)  -->
<!DOCTYPE svg PUBLIC "-//W3C//DTD SVG 1.1//EN" "http://www.w3.org/Graphics/SVG/1.1/DTD/svg11.dtd">
<svg version="1.1" id="&#x56FE;&#x5C42;_1" xmlns="http://www.w3.org/2000/svg" xmlns:xlink="http://www.w3.org/1999/xlink" x="0px"
	 y="0px" viewBox="0 0 16 16" style="enable-background:new 0 0 16 16;" xml:space="preserve">
<g>
	<g>
		<path style="fill:#FFFFFF;" d="M5.7,2H3.3C2.583,2,2,2.583,2,3.3v2.4C2,6.417,2.583,7,3.3,7h2.4C6.417,7,7,6.417,7,5.7V3.3
			C7,2.583,6.417,2,5.7,2z M6,5.7C6,5.865,5.866,6,5.7,6H3.3C3.134,6,3,5.865,3,5.7V3.3C3,3.135,3.134,3,3.3,3h2.4
			C5.866,3,6,3.135,6,3.3V5.7z"/>
		<path style="fill:#FFFFFF;" d="M6,9H3c-0.552,0-1,0.448-1,1v3c0,0.552,0.448,1,1,1h3c0.552,0,1-0.448,1-1v-3C7,9.448,6.552,9,6,9z
			"/>
		<path style="fill:#FFFFFF;" d="M13,9h-3c-0.552,0-1,0.448-1,1v3c0,0.552,0.448,1,1,1h3c0.552,0,1-0.448,1-1v-3
			C14,9.448,13.552,9,13,9z"/>
		<path style="fill:#FFFFFF;" d="M13,2h-3C9.448,2,9,2.448,9,3v3c0,0.552,0.448,1,1,1h3c0.552,0,1-0.448,1-1V3
			C14,2.448,13.552,2,13,2z"/>
	</g>
</g>
</svg>
