<?xml version="1.0" encoding="iso-8859-1"?>
<!-- Generator: Adobe Illustrator 18.0.0, SVG Export Plug-In . SVG Version: 6.00 Build 0)  -->
<!DOCTYPE svg PUBLIC "-//W3C//DTD SVG 1.1//EN" "http://www.w3.org/Graphics/SVG/1.1/DTD/svg11.dtd">
<svg version="1.1" id="&#x56FE;&#x5C42;_1" xmlns="http://www.w3.org/2000/svg" xmlns:xlink="http://www.w3.org/1999/xlink" x="0px"
	 y="0px" viewBox="0 0 16 16" style="enable-background:new 0 0 16 16;" xml:space="preserve">
<g>
	<path style="fill:#FFFFFF;" d="M15,4c0-0.552-0.448-1-1-1H2C1.448,3,1,3.448,1,4v8c0,0.552,0.448,1,1,1h12c0.552,0,1-0.448,1-1V4z
		 M9,6.5C9,6.776,8.776,7,8.5,7h-6C2.224,7,2,6.776,2,6.5v-1C2,5.224,2.224,5,2.5,5h6C8.776,5,9,5.224,9,5.5V6.5z M4,8.5
		C4,8.224,4.224,8,4.5,8H10V6.285c0-0.247,0.283-0.388,0.48-0.24l3.41,2.701c0.16,0.12,0.16,0.36,0,0.48l-3.41,2.7
		c-0.198,0.149-0.48,0.008-0.48-0.24V10H4.5C4.224,10,4,9.776,4,9.5V8.5z"/>
</g>
</svg>
