<?xml version="1.0" encoding="iso-8859-1"?>
<!-- Generator: Adobe Illustrator 18.0.0, SVG Export Plug-In . SVG Version: 6.00 Build 0)  -->
<!DOCTYPE svg PUBLIC "-//W3C//DTD SVG 1.1//EN" "http://www.w3.org/Graphics/SVG/1.1/DTD/svg11.dtd">
<svg version="1.1" id="&#x56FE;&#x5C42;_1" xmlns="http://www.w3.org/2000/svg" xmlns:xlink="http://www.w3.org/1999/xlink" x="0px"
	 y="0px" viewBox="0 0 32 32" style="enable-background:new 0 0 32 32;" xml:space="preserve">
<circle style="opacity:0.3;" cx="16" cy="15.994" r="14.5"/>
<path style="opacity:0.3;fill:#FFFFFF;" d="M16,30.994c-8.271,0-15-6.729-15-15s6.729-15,15-15s15,6.729,15,15
	S24.271,30.994,16,30.994z M16,1.994c-7.72,0-14,6.28-14,14s6.28,14,14,14s14-6.28,14-14S23.72,1.994,16,1.994z"/>
<g style="opacity:0.3;">
	<path style="fill:#FFFFFF;" d="M21.073,15H13v-2.047c0-1.628,1.361-2.93,3.083-2.93c1.628,0,2.99,0.977,2.99,2.977h1
		c0-2-1.81-3.977-4.083-3.977c-2.18,0-3.99,1.75-3.99,3.93V15h-0.927C10.521,15,10,15.448,10,16v6c0,0.552,0.521,1,1.073,1h10
		C21.625,23,22,22.552,22,22v-6C22,15.448,21.625,15,21.073,15z M17,21c0,0.552-0.448,1-1,1H16c-0.552,0-1-0.448-1-1V17
		c0-0.552,0.448-1,1-1H16c0.552,0,1,0.448,1,1V21z"/>
</g>
</svg>
