<?xml version="1.0" encoding="iso-8859-1"?>
<!-- Generator: Adobe Illustrator 18.0.0, SVG Export Plug-In . SVG Version: 6.00 Build 0)  -->
<!DOCTYPE svg PUBLIC "-//W3C//DTD SVG 1.1//EN" "http://www.w3.org/Graphics/SVG/1.1/DTD/svg11.dtd">
<svg version="1.1" id="&#x56FE;&#x5C42;_1" xmlns="http://www.w3.org/2000/svg" xmlns:xlink="http://www.w3.org/1999/xlink" x="0px"
	 y="0px" viewBox="0 0 32 32" style="enable-background:new 0 0 32 32;" xml:space="preserve">
<circle style="opacity:0.3;" cx="16" cy="15.994" r="14.5"/>
<path style="fill:#FFFFFF;" d="M16,30.994c-8.271,0-15-6.729-15-15s6.729-15,15-15s15,6.729,15,15S24.271,30.994,16,30.994z
	 M16,1.994c-7.72,0-14,6.28-14,14s6.28,14,14,14s14-6.28,14-14S23.72,1.994,16,1.994z"/>
<path style="fill:#FFFFFF;" d="M21,15h-1v-2.045C20,10.737,18.296,9,16.026,9C13.806,9,12,10.774,12,12.955V15h-1
	c-0.552,0-1,0.448-1,1v6c0,0.552,0.448,1,1,1h10c0.552,0,1-0.448,1-1v-6C22,15.448,21.552,15,21,15z M13,12.955
	C13,11.354,14.386,10,16.12,10c1.615,0,2.88,1.298,2.88,2.955V15h-6V12.955z M17,21c0,0.552-0.448,1-1,1H16c-0.552,0-1-0.448-1-1V17
	c0-0.552,0.448-1,1-1H16c0.552,0,1,0.448,1,1V21z"/>
</svg>
