<?xml version="1.0" encoding="iso-8859-1"?>
<!-- Generator: Adobe Illustrator 18.0.0, SVG Export Plug-In . SVG Version: 6.00 Build 0)  -->
<!DOCTYPE svg PUBLIC "-//W3C//DTD SVG 1.1//EN" "http://www.w3.org/Graphics/SVG/1.1/DTD/svg11.dtd">
<svg version="1.1" id="&#x56FE;&#x5C42;_1" xmlns="http://www.w3.org/2000/svg" xmlns:xlink="http://www.w3.org/1999/xlink" x="0px"
	 y="0px" viewBox="0 0 16 16" style="enable-background:new 0 0 16 16;" xml:space="preserve">
<g>
	<g>
		<path style="fill:#FFFFFF;" d="M12.511,13h-1.145L7.472,1.815C7.469,1.806,7.461,1.8,7.458,1.791
			C7.445,1.759,7.426,1.732,7.406,1.704C7.388,1.677,7.372,1.651,7.35,1.628C7.329,1.608,7.304,1.593,7.28,1.576
			c-0.029-0.02-0.058-0.04-0.091-0.054C7.18,1.519,7.174,1.511,7.165,1.508C7.142,1.5,7.12,1.503,7.097,1.498
			c-0.031-0.006-0.06-0.013-0.093-0.013c-0.039,0-0.075,0.006-0.113,0.015C6.873,1.504,6.854,1.501,6.835,1.507
			C6.827,1.51,6.821,1.517,6.813,1.52C6.779,1.534,6.75,1.554,6.72,1.575C6.695,1.592,6.671,1.607,6.65,1.628
			C6.628,1.65,6.612,1.676,6.595,1.702C6.575,1.73,6.556,1.758,6.542,1.79C6.539,1.799,6.531,1.805,6.528,1.814L2.629,13H1.484
			c-0.276,0-0.5,0.224-0.5,0.5s0.224,0.5,0.5,0.5h3c0.276,0,0.5-0.224,0.5-0.5S4.761,13,4.484,13H3.688l1.051-3h4.518l1.05,3H9.511
			c-0.276,0-0.5,0.224-0.5,0.5s0.224,0.5,0.5,0.5h3c0.276,0,0.5-0.224,0.5-0.5S12.788,13,12.511,13z M5.077,9L7,3.484L8.921,9H5.077
			z"/>
		<path style="fill:#FFFFFF;" d="M14.618,4h-4.236c-0.276,0-0.5,0.224-0.5,0.5s0.224,0.5,0.5,0.5h4.236c0.276,0,0.5-0.224,0.5-0.5
			S14.895,4,14.618,4z"/>
	</g>
</g>
</svg>
