<?xml version="1.0" encoding="iso-8859-1"?>
<!-- Generator: Adobe Illustrator 18.0.0, SVG Export Plug-In . SVG Version: 6.00 Build 0)  -->
<!DOCTYPE svg PUBLIC "-//W3C//DTD SVG 1.1//EN" "http://www.w3.org/Graphics/SVG/1.1/DTD/svg11.dtd">
<svg version="1.1" id="&#x56FE;&#x5C42;_1" xmlns="http://www.w3.org/2000/svg" xmlns:xlink="http://www.w3.org/1999/xlink" x="0px"
	 y="0px" viewBox="0 0 16 16" style="enable-background:new 0 0 16 16;" xml:space="preserve">
<g>
	<path style="fill:#FFFFFF;" d="M9.414,8l3.793-3.793c0.391-0.391,0.391-1.023,0-1.414s-1.023-0.391-1.414,0L8,6.586L4.207,2.793
		c-0.391-0.391-1.023-0.391-1.414,0s-0.391,1.023,0,1.414L6.586,8l-3.793,3.793c-0.391,0.391-0.391,1.023,0,1.414
		C2.988,13.402,3.244,13.5,3.5,13.5s0.512-0.098,0.707-0.293L8,9.414l3.793,3.793c0.195,0.195,0.451,0.293,0.707,0.293
		s0.512-0.098,0.707-0.293c0.391-0.391,0.391-1.023,0-1.414L9.414,8z"/>
</g>
</svg>
