<?xml version="1.0" encoding="iso-8859-1"?>
<!-- Generator: Adobe Illustrator 18.0.0, SVG Export Plug-In . SVG Version: 6.00 Build 0)  -->
<!DOCTYPE svg PUBLIC "-//W3C//DTD SVG 1.1//EN" "http://www.w3.org/Graphics/SVG/1.1/DTD/svg11.dtd">
<svg version="1.1" id="&#x56FE;&#x5C42;_1" xmlns="http://www.w3.org/2000/svg" xmlns:xlink="http://www.w3.org/1999/xlink" x="0px"
	 y="0px" viewBox="0 0 24 24" style="enable-background:new 0 0 24 24;" xml:space="preserve">
<g>
	<g>
		<path style="fill:#2CA9F8;" d="M12,20c-4.411,0-8-3.589-8-8s3.589-8,8-8s8,3.589,8,8S16.411,20,12,20z M12,5c-3.86,0-7,3.14-7,7
			s3.14,7,7,7s7-3.14,7-7S15.86,5,12,5z"/>
	</g>
	<path style="fill:#2CA9F8;" d="M10.327,8.63l5.595,3.16c0.137,0.078,0.137,0.275,0,0.353l-5.595,3.16
		c-0.135,0.076-0.302-0.021-0.302-0.176v-6.32C10.025,8.652,10.192,8.554,10.327,8.63z"/>
</g>
</svg>
