<?xml version="1.0" encoding="iso-8859-1"?>
<!-- Generator: Adobe Illustrator 18.0.0, SVG Export Plug-In . SVG Version: 6.00 Build 0)  -->
<!DOCTYPE svg PUBLIC "-//W3C//DTD SVG 1.1//EN" "http://www.w3.org/Graphics/SVG/1.1/DTD/svg11.dtd">
<svg version="1.1" id="&#x56FE;&#x5C42;_1" xmlns="http://www.w3.org/2000/svg" xmlns:xlink="http://www.w3.org/1999/xlink" x="0px"
	 y="0px" viewBox="0 0 36 36" style="enable-background:new 0 0 36 36;" xml:space="preserve">
<g>
	<path style="fill:#FFFFFF;" d="M24.55,8.315l0.123-0.331c0.24-0.644-0.038-1.196-0.531-1.378c-0.494-0.181-1.081,0.054-1.321,0.698
		L17.66,21.102c-1.008-1.112-2.597-1.754-4.675-1.803c-3.062-0.073-5.52,1.931-5.485,4.21c0.035,2.279,2.545,4.086,5.607,4.04
		c2.508-0.039,4.605-1.31,5.265-3.02c0.051-0.084,4.404-11.711,4.404-11.711c4.538,3.214,4.253,6.473,4.253,6.473
		c0.083,2.48-1.965,4.739-1.965,4.739s-0.211,0.298,0.009,0.498c0.279,0.253,0.545-0.005,0.545-0.005
		c2.842-2.82,2.865-5.885,2.865-5.885c0.245-3.353-2.249-6.186-2.249-6.186C24.41,10.09,24.371,8.798,24.55,8.315z"/>
	<path style="fill:#FFFFFF;" d="M18,1C8.626,1,1,8.626,1,18s7.626,17,17,17s17-7.626,17-17S27.374,1,18,1z M18,33
		C9.729,33,3,26.271,3,18S9.729,3,18,3s15,6.729,15,15S26.271,33,18,33z"/>
</g>
</svg>
