<?xml version="1.0" encoding="iso-8859-1"?>
<!-- Generator: Adobe Illustrator 18.0.0, SVG Export Plug-In . SVG Version: 6.00 Build 0)  -->
<!DOCTYPE svg PUBLIC "-//W3C//DTD SVG 1.1//EN" "http://www.w3.org/Graphics/SVG/1.1/DTD/svg11.dtd">
<svg version="1.1" id="&#x56FE;&#x5C42;_1" xmlns="http://www.w3.org/2000/svg" xmlns:xlink="http://www.w3.org/1999/xlink" x="0px"
	 y="0px" viewBox="0 0 24 24" style="enable-background:new 0 0 24 24;" xml:space="preserve">
<g>
	<path style="fill:#525A64;" d="M11.458,1.513c-5.776,0-10.476,4.7-10.476,10.477s4.699,10.477,10.476,10.477
		s10.477-4.7,10.477-10.477S17.234,1.513,11.458,1.513z M11.458,21.513c-5.251,0-9.523-4.272-9.523-9.523s4.272-9.523,9.523-9.523
		s9.523,4.272,9.523,9.523S16.709,21.513,11.458,21.513z"/>
	<path style="fill:#525A64;" d="M15.627,12.632L12,15.888V6c0-0.276-0.224-0.5-0.5-0.5S11,5.724,11,6v9.891l-3.643-3.26
		c-0.203-0.182-0.519-0.166-0.706,0.04c-0.184,0.205-0.166,0.521,0.04,0.706l4.476,4.006c0.095,0.085,0.214,0.127,0.333,0.127
		s0.239-0.043,0.334-0.128l4.461-4.006c0.205-0.185,0.223-0.501,0.038-0.706C16.148,12.464,15.832,12.447,15.627,12.632z"/>
</g>
</svg>
