<?xml version="1.0" encoding="iso-8859-1"?>
<!-- Generator: Adobe Illustrator 18.0.0, SVG Export Plug-In . SVG Version: 6.00 Build 0)  -->
<!DOCTYPE svg PUBLIC "-//W3C//DTD SVG 1.1//EN" "http://www.w3.org/Graphics/SVG/1.1/DTD/svg11.dtd">
<svg version="1.1" id="&#x56FE;&#x5C42;_1" xmlns="http://www.w3.org/2000/svg" xmlns:xlink="http://www.w3.org/1999/xlink" x="0px"
	 y="0px" viewBox="0 0 32 32" style="enable-background:new 0 0 32 32;" xml:space="preserve">
<g>
	<path style="fill:#525A64;" d="M16,2C8.268,2,2,8.269,2,16s6.268,14,14,14s14-6.269,14-14S23.732,2,16,2z M15.983,28.004
		c-0.275,0-0.545-0.023-0.814-0.041c-0.182-0.355-0.842-1.775-0.349-2.538c0,0,2.053-1.136,1.878-2.446c0,0,2.186-1.223,1.268-2.009
		c0,0,0.088-0.831,0.523-0.875c0,0,0.83-0.786-0.306-1.266c0,0-1.61-0.131-2.006-0.83c0,0-0.614-1.048-1.619-1.137
		c0,0-1.135-1.658-2.841-0.567c0,0-1.243,0.268-1.962-0.089c0.249,0.265,0.57,0.533,0.913,0.613c0,0,1.18,0.306,0.307,1.486
		c0,0-1.18,1.528,1.572,2.926c0,0,0.613,0.481,0.306,1.88c0,0-0.639,3.24,0.699,4.28c0.282,0.221,0.511,0.365,0.709,0.475
		c-5.799-0.84-10.273-5.829-10.273-11.858c0-1.341,0.229-2.624,0.637-3.829c0.239,0.603,0.437,0.163,1.039,0.525
		c0.715,0.428-0.501,0.822,0.398,1.143c0.897,0.321,0.496,0.072,0.818,0.929c0.321,0.859,1.431,0.688,1.431,0.688
		c1.249-0.421-0.105,0.48,1.439,0.622c0.002,0.001,0.004-0.115,0.007-0.115c-0.002,0-0.003,0-0.003,0
		c1.542,0-0.049-0.847-0.049-0.847c0.859-0.893-0.322-0.585-0.322-0.585c-0.393,0.321-0.928,0.03-0.928,0.03
		c-1.073-0.644-0.249-1.486-0.249-1.486c1.929-1.538,2.214-0.385,2.214-0.385c0.037,0.928,0.501,0.898,0.501,0.898
		c0.822,0.034,0.895-0.929,0.895-0.929c-0.073-0.751,0.499-0.785,0.499-0.785c1.003-0.501,1.087-1.002,1.087-1.002
		c0.337-1.106,1.271-0.821,1.271-0.821c1.254-0.251,0.608-0.715,0.608-0.715c-0.177-0.822,0.573,0.036,0.573,0.036
		c0.571,0.679,0.822,0,0.822,0c0.643-0.929-0.716-1.252-0.716-1.252c-0.106-0.821,0.68-0.204,0.574-1.598
		c0,0,0.106-0.778-0.644-0.999c0,0-0.786-0.08-0.143-0.76c0,0,0.444-0.502,0.795,0.143c0,0,0.527,0.535,1.455,0.072
		c0,0,1.427,0.356,0.747,1.036c0,0-0.536,1.393,0.68,1.036c0,0,0.439-0.428,1.012-0.422c0,0,1.1,0.279,1.779-0.757l0.088-0.049
		c0.785,0.49,1.516,1.057,2.167,1.708c-0.959-0.149-0.978,0.555-0.978,0.555c-0.975,0.931,0.404,0.931,0.404,0.931
		c0.893-0.18,0.571,0.679,0.571,0.679c0.536,0.214-0.143,0.578-0.143,0.578c-1.715,0.792-0.249,1.25-0.249,1.25
		c0.487,0.91-0.966,0.852-0.785,1.425c0,0-0.608,1.037-1.287,1.108c0,0-0.752,1.358,0.176,2.252c0,0,0.644,2.109,2.593,1.073
		c0,0,1.233-0.788,1.448,0.571c0,0,0.187,1.434,1.27,1.426C26.024,24.358,21.425,28.004,15.983,28.004z"/>
</g>
</svg>
