<?xml version="1.0" encoding="iso-8859-1"?>
<!-- Generator: Adobe Illustrator 18.0.0, SVG Export Plug-In . SVG Version: 6.00 Build 0)  -->
<!DOCTYPE svg PUBLIC "-//W3C//DTD SVG 1.1//EN" "http://www.w3.org/Graphics/SVG/1.1/DTD/svg11.dtd">
<svg version="1.1" id="&#x56FE;&#x5C42;_1" xmlns="http://www.w3.org/2000/svg" xmlns:xlink="http://www.w3.org/1999/xlink" x="0px"
	 y="0px" viewBox="0 0 32 32" style="enable-background:new 0 0 32 32;" xml:space="preserve">
<g>
	<path style="fill:#525A64;" d="M30,26v-8c0-1.105-0.895-2-2-2h-2V7c0-1.105-0.895-2-2-2H6C4.895,5,4,5.895,4,7v19
		c0,1.657,1.343,3,3,3h20C28.657,29,30,27.657,30,26z M7,27c-0.552,0-1-0.448-1-1V7h18v10v8.867c0,0.406,0.069,0.785,0.188,1.133H7z
		 M26,25.867V18h1.5c0.276,0,0.5,0.224,0.5,0.5v7.367c0,0.658-0.42,1.11-1.046,1.132C26.251,26.976,26,26.4,26,25.867z"/>
	<path style="fill:#525A64;" d="M22,11.033C22,11.567,21.567,12,21.033,12H8.967C8.433,12,8,11.567,8,11.033v-0.065
		C8,10.433,8.433,10,8.967,10h12.065C21.567,10,22,10.433,22,10.967V11.033z"/>
	<path style="fill:#525A64;" d="M22,15.033C22,15.567,21.567,16,21.033,16H8.967C8.433,16,8,15.567,8,15.033v-0.065
		C8,14.433,8.433,14,8.967,14h12.065C21.567,14,22,14.433,22,14.967V15.033z"/>
	<path style="fill:#525A64;" d="M22,19.033C22,19.567,21.567,20,21.033,20H8.967C8.433,20,8,19.567,8,19.033v-0.065
		C8,18.433,8.433,18,8.967,18h12.065C21.567,18,22,18.433,22,18.967V19.033z"/>
	<path style="fill:#525A64;" d="M22,23.033C22,23.567,21.567,24,21.033,24H8.967C8.433,24,8,23.567,8,23.033v-0.065
		C8,22.433,8.433,22,8.967,22h12.065C21.567,22,22,22.433,22,22.967V23.033z"/>
</g>
</svg>
