<?xml version="1.0" encoding="iso-8859-1"?>
<!-- Generator: Adobe Illustrator 18.0.0, SVG Export Plug-In . SVG Version: 6.00 Build 0)  -->
<!DOCTYPE svg PUBLIC "-//W3C//DTD SVG 1.1//EN" "http://www.w3.org/Graphics/SVG/1.1/DTD/svg11.dtd">
<svg version="1.1" id="&#x56FE;&#x5C42;_1" xmlns="http://www.w3.org/2000/svg" xmlns:xlink="http://www.w3.org/1999/xlink" x="0px"
	 y="0px" viewBox="0 0 32 32" style="enable-background:new 0 0 32 32;" xml:space="preserve">
<g>
	<path style="fill:#525A64;" d="M14.957,23.743c1.251-0.489,2.064-1.52,2.074-2.501c0.01-0.052,0.014-6.698,0.014-6.698
		c2.878,0.761,3.346,2.449,3.346,2.449c0.506,1.228-0.097,2.745-0.097,2.745s-0.05,0.189,0.098,0.248
		c0.188,0.075,0.272-0.104,0.272-0.104c0.897-1.947,0.334-3.488,0.334-3.488c-0.506-1.727-2.332-2.681-2.332-2.681
		C17.308,12.87,17,12.229,17,11.953v-0.189c0-0.368-0.219-0.584-0.5-0.583c-0.282,0.002-0.489,0.221-0.488,0.588l0.009,7.886
		c-0.714-0.369-1.626-0.393-2.677-0.028c-1.549,0.537-2.403,2.003-1.959,3.139C11.83,23.904,13.43,24.34,14.957,23.743z"/>
	<path style="fill:#525A64;" d="M27,8L27,8l0-2c0-1.105-0.895-2-2-2h-6.127l-1.531,1H7C5.895,5,5,5.895,5,7v1h0
		c-1.105,0-2,0.895-2,2v16c0,1.105,0.895,2,2,2h22c1.105,0,2-0.895,2-2V10C29,8.895,28.105,8,27,8z M7,7h10.746l1.531-1H25v2H7V7z
		 M27,26H5V10h22V26z"/>
</g>
</svg>
