<?xml version="1.0" encoding="iso-8859-1"?>
<!-- Generator: Adobe Illustrator 18.0.0, SVG Export Plug-In . SVG Version: 6.00 Build 0)  -->
<!DOCTYPE svg PUBLIC "-//W3C//DTD SVG 1.1//EN" "http://www.w3.org/Graphics/SVG/1.1/DTD/svg11.dtd">
<svg version="1.1" id="&#x56FE;&#x5C42;_1" xmlns="http://www.w3.org/2000/svg" xmlns:xlink="http://www.w3.org/1999/xlink" x="0px"
	 y="0px" viewBox="0 0 20 20" style="enable-background:new 0 0 20 20;" xml:space="preserve">
<g>
	<g>
		<path style="fill:#FFFFFF;" d="M16.841,5.729l-3.369-2.622C13.225,2.921,13,3.097,13,3.406V5H5C3.895,5,3,5.895,3,7v4.051l2-1.176
			c0,0,0-1.037,0-2.256C5,6.951,5.563,7,5.563,7H13v1.672c0,0.309,0.225,0.486,0.473,0.3l3.431-2.644
			C17.103,6.178,17.041,5.879,16.841,5.729z"/>
	</g>
	<g>
		<path style="fill:#FFFFFF;" d="M3.184,14.353l3.357,2.622C6.788,17.161,7,16.985,7,16.676V15h8.025C16.13,15,17,14.186,17,13.082
			V9.031l-2,1.176c0,0,0,1.037,0,2.256C15,13.131,14.463,13,14.463,13H7v-1.59c0-0.309-0.213-0.486-0.46-0.3l-3.424,2.644
			C2.916,13.904,2.985,14.203,3.184,14.353z"/>
	</g>
</g>
</svg>
