<?xml version="1.0" encoding="utf-8"?>
<!-- Generator: Adobe Illustrator 18.0.0, SVG Export Plug-In . SVG Version: 6.00 Build 0)  -->
<!DOCTYPE svg PUBLIC "-//W3C//DTD SVG 1.1//EN" "http://www.w3.org/Graphics/SVG/1.1/DTD/svg11.dtd">
<svg version="1.1" id="图层_1" xmlns="http://www.w3.org/2000/svg" xmlns:xlink="http://www.w3.org/1999/xlink" x="0px" y="0px"
	 viewBox="0 0 24 24" enable-background="new 0 0 24 24" xml:space="preserve">
<g>
	<g>
		<path fill="#31A4FC" d="M11.5,23c-6.1,0-11-4.9-11-11s4.9-11,11-11s11,4.9,11,11S17.6,23,11.5,23z M11.5,2C6,2,1.5,6.5,1.5,12
			s4.5,10,10,10s10-4.5,10-10S17,2,11.5,2z"/>
	</g>
	<path fill="#31A4FC" d="M14,8H9V6.4c0-0.2-0.4-0.3-0.5-0.2L4.8,8.8C4.7,8.9,4.7,9.1,4.8,9.2l3.7,2.6c0.1,0.1,0.5,0,0.5-0.2V10h5
		c0.3,0,1-0.2,1-0.5v-1C15,8.2,14.3,8,14,8z"/>
	<path fill="#31A4FC" d="M9.2,14H15v-1.6c0-0.2,0-0.3,0.2-0.2l3.4,2.6c0.1,0.1,0.1,0.2,0,0.3l-3.3,2.6c-0.1,0.1-0.2,0-0.2-0.2V16
		H9.2C8.9,16,9,15.8,9,15.5v-1C9,14.2,8.9,14,9.2,14z"/>
</g>
</svg>
