<?xml version="1.0" encoding="iso-8859-1"?>
<!-- Generator: Adobe Illustrator 18.0.0, SVG Export Plug-In . SVG Version: 6.00 Build 0)  -->
<!DOCTYPE svg PUBLIC "-//W3C//DTD SVG 1.1//EN" "http://www.w3.org/Graphics/SVG/1.1/DTD/svg11.dtd">
<svg version="1.1" id="&#x56FE;&#x5C42;_1" xmlns="http://www.w3.org/2000/svg" xmlns:xlink="http://www.w3.org/1999/xlink" x="0px"
	 y="0px" viewBox="0 0 32 32" style="enable-background:new 0 0 32 32;" xml:space="preserve">
<g>
	<path id="info-2-icon_3_" style="fill:#FFFFFF;" d="M14,21.333C14,21.702,13.702,22,13.333,22h-2.667
		C10.298,22,10,21.702,10,21.333V10.667C10,10.298,10.298,10,10.667,10h2.667C13.702,10,14,10.298,14,10.667V21.333z M22,21.333
		C22,21.702,21.702,22,21.333,22h-2.667C18.298,22,18,21.702,18,21.333V10.667C18,10.298,18.298,10,18.667,10h2.667
		C21.702,10,22,10.298,22,10.667V21.333z"/>
	<g>
		<path style="fill:#FFFFFF;" d="M16.056,30.993c-8.271,0-15-6.729-15-15s6.729-15,15-15s15,6.729,15,15
			S24.327,30.993,16.056,30.993z M16.056,2.993c-7.168,0-13,5.832-13,13s5.832,13,13,13s13-5.832,13-13S23.224,2.993,16.056,2.993z"
			/>
	</g>
</g>
</svg>
