<?xml version="1.0" encoding="iso-8859-1"?>
<!-- Generator: Adobe Illustrator 18.0.0, SVG Export Plug-In . SVG Version: 6.00 Build 0)  -->
<!DOCTYPE svg PUBLIC "-//W3C//DTD SVG 1.1//EN" "http://www.w3.org/Graphics/SVG/1.1/DTD/svg11.dtd">
<svg version="1.1" id="&#x56FE;&#x5C42;_1" xmlns="http://www.w3.org/2000/svg" xmlns:xlink="http://www.w3.org/1999/xlink" x="0px"
	 y="0px" viewBox="0 0 20 20" style="enable-background:new 0 0 20 20;" xml:space="preserve">
<g>
	<path style="fill:#FFFFFF;" d="M9.678,2.69C9.485,2.616,9.265,2.669,9.127,2.824L5.401,7H2.5C2.224,7,2,7.224,2,7.5v5
		C2,12.776,2.224,13,2.5,13h2.899l3.726,4.237c0.097,0.11,0.234,0.17,0.375,0.17c0.059,0,0.119-0.011,0.176-0.032
		C9.871,17.302,10,17.115,10,16.907V3.157C10,2.95,9.872,2.764,9.678,2.69z"/>
	<path style="fill:#FFFFFF;" d="M17.409,7.131c-0.372-0.877-0.904-1.665-1.582-2.344c-0.678-0.678-1.466-1.209-2.344-1.581
		c-0.253-0.108-0.547,0.011-0.656,0.265c-0.108,0.254,0.011,0.548,0.265,0.655c0.759,0.322,1.441,0.782,2.027,1.368
		c0.586,0.587,1.047,1.269,1.368,2.027C16.82,8.307,16.989,9.141,16.989,10s-0.169,1.693-0.501,2.479
		c-0.321,0.759-0.782,1.44-1.368,2.027c-0.586,0.586-1.269,1.046-2.027,1.368c-0.254,0.107-0.373,0.401-0.265,0.655
		c0.081,0.19,0.266,0.305,0.46,0.305c0.065,0,0.131-0.013,0.195-0.04c0.877-0.372,1.666-0.903,2.344-1.581
		c0.678-0.679,1.21-1.467,1.582-2.344c0.385-0.91,0.581-1.875,0.581-2.869S17.794,8.041,17.409,7.131z"/>
	<path style="fill:#FFFFFF;" d="M15.105,11.896c0.255-0.602,0.384-1.239,0.384-1.896s-0.129-1.295-0.384-1.896
		c-0.246-0.581-0.598-1.103-1.045-1.549c-0.447-0.447-0.969-0.8-1.55-1.045c-0.252-0.109-0.547,0.011-0.655,0.265
		c-0.107,0.255,0.011,0.548,0.266,0.655c0.461,0.196,0.876,0.476,1.232,0.832c0.356,0.355,0.636,0.771,0.832,1.232
		c0.202,0.477,0.305,0.983,0.305,1.506s-0.103,1.029-0.305,1.506c-0.196,0.462-0.476,0.877-0.833,1.232
		c-0.355,0.356-0.77,0.636-1.231,0.832c-0.254,0.107-0.373,0.4-0.266,0.655c0.081,0.19,0.266,0.305,0.46,0.305
		c0.065,0,0.131-0.013,0.195-0.04c0.581-0.245,1.103-0.598,1.549-1.045C14.507,12.999,14.859,12.478,15.105,11.896z"/>
	<path style="fill:#FFFFFF;" d="M12.709,10.898c0.124-0.293,0.187-0.604,0.187-0.926c0-0.32-0.063-0.632-0.187-0.924
		c-0.119-0.282-0.291-0.536-0.509-0.755c-0.216-0.216-0.469-0.388-0.753-0.509c-0.253-0.107-0.548,0.009-0.656,0.264
		c-0.108,0.254,0.01,0.548,0.264,0.656c0.166,0.07,0.313,0.17,0.438,0.296c0.127,0.127,0.226,0.273,0.295,0.438
		c0.072,0.169,0.108,0.349,0.108,0.534c0,0.187-0.036,0.366-0.108,0.536c-0.068,0.163-0.167,0.31-0.295,0.437
		c-0.125,0.126-0.272,0.226-0.438,0.296c-0.254,0.108-0.372,0.402-0.264,0.656c0.081,0.19,0.266,0.304,0.46,0.304
		c0.066,0,0.132-0.013,0.196-0.04c0.284-0.121,0.538-0.293,0.753-0.509C12.419,11.434,12.59,11.18,12.709,10.898z"/>
</g>
</svg>
