<?xml version="1.0" encoding="iso-8859-1"?>
<!-- Generator: Adobe Illustrator 18.0.0, SVG Export Plug-In . SVG Version: 6.00 Build 0)  -->
<!DOCTYPE svg PUBLIC "-//W3C//DTD SVG 1.1//EN" "http://www.w3.org/Graphics/SVG/1.1/DTD/svg11.dtd">
<svg version="1.1" id="&#x56FE;&#x5C42;_1" xmlns="http://www.w3.org/2000/svg" xmlns:xlink="http://www.w3.org/1999/xlink" x="0px"
	 y="0px" viewBox="0 0 20 20" style="enable-background:new 0 0 20 20;" xml:space="preserve">
<g>
	<path style="fill:#FFFFFF;" d="M16.841,13.688l-3.369-2.622C13.225,10.88,13,11.056,13,11.365v1.578v0.027
		c-1-0.018-1.466-0.316-2.243-1.204c-0.422,0.593-0.987,1.117-1.425,1.578C10.33,14.45,12,15.016,13,15.028v1.603
		c0,0.309,0.225,0.486,0.473,0.3l3.431-2.644C17.103,14.137,17.041,13.838,16.841,13.688z"/>
	<path style="fill:#FFFFFF;" d="M16.841,5.688l-3.369-2.622C13.225,2.88,13,3.056,13,3.365v1.578
		c-2.667,0.055-3.955,1.637-4.926,3.467C6.346,11.672,4.224,12.608,3,12.872v2.102c1.489-0.213,4.352-1.175,6.533-5.304
		c0.863-1.633,1.71-2.619,3.467-2.673V7v1.631c0,0.309,0.225,0.486,0.473,0.3l3.431-2.644C17.103,6.137,17.041,5.838,16.841,5.688z"
		/>
	<path style="fill:#FFFFFF;" d="M3,5.044v1.996c0.87,0.077,2.147,0.336,3.299,1.159c0.12-0.15,0.859-1.131,1.242-1.55
		C5.905,5.428,4.1,5.112,3,5.044z"/>
</g>
</svg>
