<?xml version="1.0" encoding="iso-8859-1"?>
<!-- Generator: Adobe Illustrator 18.0.0, SVG Export Plug-In . SVG Version: 6.00 Build 0)  -->
<!DOCTYPE svg PUBLIC "-//W3C//DTD SVG 1.1//EN" "http://www.w3.org/Graphics/SVG/1.1/DTD/svg11.dtd">
<svg version="1.1" id="&#x56FE;&#x5C42;_1" xmlns="http://www.w3.org/2000/svg" xmlns:xlink="http://www.w3.org/1999/xlink" x="0px"
	 y="0px" viewBox="0 0 20 20" style="enable-background:new 0 0 20 20;" xml:space="preserve">
<g>
	<path style="fill:#FFFFFF;" d="M9.678,2.69C9.485,2.616,9.265,2.669,9.127,2.824L5.401,7H2.5C2.224,7,2,7.224,2,7.5v5
		C2,12.776,2.224,13,2.5,13h2.899l3.726,4.237c0.097,0.11,0.234,0.17,0.375,0.17c0.059,0,0.119-0.011,0.176-0.032
		C9.871,17.302,10,17.115,10,16.907V3.157C10,2.95,9.872,2.764,9.678,2.69z"/>
	<path style="fill:#FFFFFF;" d="M12.709,9.049c-0.119-0.282-0.291-0.536-0.509-0.755c-0.216-0.216-0.469-0.388-0.753-0.509
		c-0.253-0.108-0.548,0.009-0.656,0.264c-0.108,0.254,0.01,0.548,0.264,0.656c0.166,0.07,0.313,0.17,0.438,0.296
		c0.127,0.127,0.226,0.273,0.295,0.438c0.072,0.169,0.108,0.349,0.108,0.534c0,0.187-0.036,0.366-0.108,0.536
		c-0.068,0.163-0.167,0.31-0.295,0.437c-0.125,0.126-0.272,0.226-0.438,0.296c-0.254,0.108-0.372,0.402-0.264,0.656
		c0.081,0.19,0.266,0.304,0.46,0.304c0.066,0,0.132-0.013,0.196-0.04c0.284-0.121,0.538-0.293,0.753-0.509
		c0.219-0.219,0.39-0.473,0.509-0.754c0.124-0.293,0.187-0.604,0.187-0.926C12.896,9.652,12.833,9.341,12.709,9.049z"/>
</g>
</svg>
