<?xml version="1.0" encoding="iso-8859-1"?>
<!-- Generator: Adobe Illustrator 18.0.0, SVG Export Plug-In . SVG Version: 6.00 Build 0)  -->
<!DOCTYPE svg PUBLIC "-//W3C//DTD SVG 1.1//EN" "http://www.w3.org/Graphics/SVG/1.1/DTD/svg11.dtd">
<svg version="1.1" id="&#x56FE;&#x5C42;_1" xmlns="http://www.w3.org/2000/svg" xmlns:xlink="http://www.w3.org/1999/xlink" x="0px"
	 y="0px" viewBox="0 0 24 20" style="enable-background:new 0 0 24 20;" xml:space="preserve">
<g>
	<g>
		<polygon style="fill:#FFFFFF;" points="4,4 2,4 2,15 7,15 7,13 4,13 		"/>
		<path style="fill:#FFFFFF;" d="M23,8V7.834C23,5.716,21.433,4,19.5,4S16,5.716,16,7.834v3.381c0,2.117,1.567,3.834,3.5,3.834
			s3.5-1.716,3.5-3.834V11h-2v0.215c0,1.012-0.673,1.834-1.5,1.834S18,12.227,18,11.215V7.834C18,6.822,18.673,6,19.5,6
			S21,6.822,21,7.834V8H23z"/>
		<path style="fill:#FFFFFF;" d="M15,7.508V7.492C15,5.563,13.437,4,11.508,4L8,4.016V15h2v-4h0.744l2.297,4h2.442l-2.494-4.341
			C14.175,10.101,15,8.905,15,7.508z M11.508,9H10V6h1.508C12.331,6,13,6.669,13,7.491C13,8.331,12.331,9,11.508,9z"/>
	</g>
</g>
</svg>
