<?xml version="1.0" encoding="iso-8859-1"?>
<!-- Generator: Adobe Illustrator 18.0.0, SVG Export Plug-In . SVG Version: 6.00 Build 0)  -->
<!DOCTYPE svg PUBLIC "-//W3C//DTD SVG 1.1//EN" "http://www.w3.org/Graphics/SVG/1.1/DTD/svg11.dtd">
<svg version="1.1" id="&#x56FE;&#x5C42;_1" xmlns="http://www.w3.org/2000/svg" xmlns:xlink="http://www.w3.org/1999/xlink" x="0px"
	 y="0px" viewBox="0 0 20 20" style="enable-background:new 0 0 20 20;" xml:space="preserve">
<g>
	<path style="fill:#FFFFFF;" d="M16.841,5.729l-3.369-2.622C13.225,2.921,13,3.097,13,3.406V5H5C3.895,5,3,5.895,3,7v4.051l2-1.176
		c0,0,0-1.037,0-2.256C5,6.951,5.563,7,5.563,7H13v1.672c0,0.309,0.225,0.486,0.473,0.3l3.431-2.644
		C17.103,6.178,17.041,5.879,16.841,5.729z"/>
	<path style="fill:#FFFFFF;" d="M3.184,14.33l3.357,2.766C6.788,17.282,7,17.105,7,16.796V15h6.504c0.275,0,0.498-0.222,0.5-0.496
		l0.008-1c0.002-0.278-0.222-0.504-0.5-0.504H7v-1.761c0-0.309-0.213-0.486-0.46-0.3l-3.335,2.736
		C3.005,13.825,2.985,14.18,3.184,14.33z"/>
	<path style="fill:#FFFFFF;" d="M17,12v-1h-0.969c-0.099,0-0.448,0.38-1.031,0.5V12h1v4h-1v1h3v-1h-1V12z"/>
</g>
</svg>
