<?xml version="1.0" encoding="utf-8"?>
<!-- Generator: Adobe Illustrator 18.0.0, SVG Export Plug-In . SVG Version: 6.00 Build 0)  -->
<!DOCTYPE svg PUBLIC "-//W3C//DTD SVG 1.1//EN" "http://www.w3.org/Graphics/SVG/1.1/DTD/svg11.dtd">
<svg version="1.1" id="图层_1" xmlns="http://www.w3.org/2000/svg" xmlns:xlink="http://www.w3.org/1999/xlink" x="0px" y="0px"
	 viewBox="0 0 16 16" enable-background="new 0 0 16 16" xml:space="preserve">
<g>
	<g>
		<path fill="#31A4FC" d="M8,15.3C4,15.3,0.7,12,0.7,8S4,0.7,8,0.7S15.3,4,15.3,8S12,15.3,8,15.3z M8,1.3c-3.7,0-6.7,3-6.7,6.7
			s3,6.7,6.7,6.7s6.7-3,6.7-6.7S11.7,1.3,8,1.3z"/>
	</g>
	<path fill="#31A4FC" d="M9.7,5.3H6V4.3c0-0.1-0.1-0.2-0.2-0.1L3.5,5.9c-0.1,0.1-0.1,0.2,0,0.2l2.3,1.7C5.9,7.9,6,7.8,6,7.7V6.7h3.7
		c0.2,0,0.3-0.2,0.3-0.3V5.7C10,5.5,9.9,5.3,9.7,5.3z"/>
	<path fill="#31A4FC" d="M6.4,9.3H10V8.3c0-0.1,0.2-0.2,0.3-0.1l2.3,1.7c0.1,0.1,0.1,0.2,0,0.2l-2.3,1.7c-0.1,0.1-0.3,0-0.3-0.1
		v-1.1H6.4c-0.2,0-0.4-0.2-0.4-0.3V9.7C6,9.5,6.2,9.3,6.4,9.3z"/>
</g>
</svg>
