<?xml version="1.0" encoding="iso-8859-1"?>
<!-- Generator: Adobe Illustrator 18.0.0, SVG Export Plug-In . SVG Version: 6.00 Build 0)  -->
<!DOCTYPE svg PUBLIC "-//W3C//DTD SVG 1.1//EN" "http://www.w3.org/Graphics/SVG/1.1/DTD/svg11.dtd">
<svg version="1.1" id="&#x56FE;&#x5C42;_1" xmlns="http://www.w3.org/2000/svg" xmlns:xlink="http://www.w3.org/1999/xlink" x="0px"
	 y="0px" viewBox="0 0 20 20" style="enable-background:new 0 0 20 20;" xml:space="preserve">
<g>
	<g>
		<path style="fill:#FFFFFF;" d="M12.495,6.398c-1.999,0-3.625,1.626-3.625,3.625s1.626,3.625,3.625,3.625s3.625-1.626,3.625-3.625
			S14.494,6.398,12.495,6.398z M12.495,12.648c-1.447,0-2.625-1.178-2.625-2.625s1.178-2.625,2.625-2.625s2.625,1.178,2.625,2.625
			S13.942,12.648,12.495,12.648z"/>
		<path style="fill:#FFFFFF;" d="M12.007,8.833c-0.195-0.195-0.512-0.195-0.708,0c-0.195,0.195-0.195,0.513,0,0.707l1.682,1.68
			c0.098,0.098,0.226,0.146,0.354,0.146s0.256-0.049,0.354-0.146c0.195-0.195,0.195-0.513,0-0.707L12.007,8.833z"/>
		<path style="fill:#FFFFFF;" d="M7.397,10c0-1.885,0.788-3.302,2.342-4.214C9.896,5.694,10,5.529,10,5.347l0-2.189
			C10,2.95,9.872,2.764,9.678,2.69C9.485,2.615,9.265,2.67,9.127,2.824L5.401,7H2.5C2.224,7,2,7.224,2,7.5v5
			C2,12.776,2.224,13,2.5,13h2.899l3.726,4.237c0.097,0.11,0.234,0.17,0.375,0.17c0.059,0,0.119-0.011,0.176-0.032
			C9.871,17.302,10,17.115,10,16.907l0-2.208c0-0.176-0.097-0.336-0.245-0.43C8.168,13.264,7.397,11.867,7.397,10z M6.397,10
			c0-0.001,0-0.003,0-0.004C6.397,9.997,6.397,9.999,6.397,10c0,0.001,0,0.003,0,0.004C6.397,10.003,6.397,10.001,6.397,10z"/>
	</g>
</g>
</svg>
