<?xml version="1.0" encoding="iso-8859-1"?>
<!-- Generator: Adobe Illustrator 18.0.0, SVG Export Plug-In . SVG Version: 6.00 Build 0)  -->
<!DOCTYPE svg PUBLIC "-//W3C//DTD SVG 1.1//EN" "http://www.w3.org/Graphics/SVG/1.1/DTD/svg11.dtd">
<svg version="1.1" id="&#x56FE;&#x5C42;_1" xmlns="http://www.w3.org/2000/svg" xmlns:xlink="http://www.w3.org/1999/xlink" x="0px"
	 y="0px" viewBox="0 0 32 32" style="enable-background:new 0 0 32 32;" xml:space="preserve">
<g>
	<path style="fill:#FFFFFF;" d="M13.002,9.213l10.618,6.185c0.454,0.265,0.462,0.922,0.007,1.187L13.06,22.733
		C12.602,23,12,22.67,12,22.14V9.789C12,9.275,12.558,8.954,13.002,9.213z"/>
	<g>
		<path style="fill:#FFFFFF;" d="M16,31.04c-8.271,0-15-6.729-15-15s6.729-15,15-15s15,6.729,15,15S24.271,31.04,16,31.04z M16,3.04
			c-7.168,0-13,5.832-13,13s5.832,13,13,13s13-5.832,13-13S23.168,3.04,16,3.04z"/>
	</g>
</g>
</svg>
