<?xml version="1.0" encoding="iso-8859-1"?>
<!-- Generator: Adobe Illustrator 18.0.0, SVG Export Plug-In . SVG Version: 6.00 Build 0)  -->
<!DOCTYPE svg PUBLIC "-//W3C//DTD SVG 1.1//EN" "http://www.w3.org/Graphics/SVG/1.1/DTD/svg11.dtd">
<svg version="1.1" id="&#x56FE;&#x5C42;_1" xmlns="http://www.w3.org/2000/svg" xmlns:xlink="http://www.w3.org/1999/xlink" x="0px"
	 y="0px" viewBox="0 0 16 16" style="enable-background:new 0 0 16 16;" xml:space="preserve">
<path style="fill:#AAAAAA;" d="M12.242,3.757C11.109,2.624,9.603,2,8,2S4.891,2.624,3.758,3.757C2.624,4.89,2,6.396,2,8v2
	c0,0.276,0.224,0.5,0.5,0.5S3,10.276,3,10v1.5C3,12.327,3.673,13,4.5,13S6,12.327,6,11.5v-3C6,7.673,5.327,7,4.5,7S3,7.673,3,8.5V8
	c0-1.336,0.521-2.592,1.465-3.536C5.409,3.52,6.665,3,8,3s2.591,0.52,3.535,1.464C12.479,5.408,13,6.664,13,8v0.5
	C13,7.673,12.327,7,11.5,7S10,7.673,10,8.5v3c0,0.827,0.673,1.5,1.5,1.5s1.5-0.673,1.5-1.5V10c0,0.276,0.224,0.5,0.5,0.5
	S14,10.276,14,10V8C14,6.396,13.376,4.89,12.242,3.757z"/>
</svg>
