<?xml version="1.0" encoding="UTF-8"?>
<svg width="36px" height="36px" viewBox="0 0 36 36" version="1.1" xmlns="http://www.w3.org/2000/svg" xmlns:xlink="http://www.w3.org/1999/xlink">
    <!-- Generator: Sketch 56.2 (81672) - https://sketch.com -->
    <title>mute_normal</title>
    <desc>Created with Sketch.</desc>
    <g id="页面-1" stroke="none" stroke-width="1" fill="none" fill-rule="evenodd">
        <g id="按钮规范" transform="translate(-1201.000000, -138.000000)">
            <g id="mute_normal" transform="translate(1194.000000, 131.000000)">
                <g id="编组-14" transform="translate(7.000000, 7.000000)">
                    <path d="M16.0453382,12.7935551 L17.1464466,11.6924466 C17.461429,11.3774642 18,11.6005476 18,12.046 L18,14.2052553 L16.0453382,12.7935551 Z M18,17.9058558 L18,23.046 C18,23.4914524 17.461429,23.7145358 17.1464466,23.3995534 L15.1715729,21.4246797 C14.6089637,20.8620705 13.845902,20.546 13.0502525,20.546 L11,20.546 C9.8954305,20.546 9,19.6505695 9,18.546 L9,16.546 C9,15.4414305 9.8954305,14.546 11,14.546 L13.0502525,14.546 C13.1439879,14.546 13.237271,14.5416132 13.3298273,14.5329533 L18,17.9058558 Z M27,20.7052553 L26,19.9830331 L26,10.5 C26,10.2238576 26.2238576,10 26.5,10 C26.7761424,10 27,10.2238576 27,10.5 L27,20.7052553 Z M27,24.4058558 L27,24.635 C27,24.9111424 26.7761424,25.135 26.5,25.135 C26.2238576,25.135 26,24.9111424 26,24.635 L26,23.6836336 L27,24.4058558 Z M24,18.5385886 L23,17.8163664 L23,12.343 C23,12.0668576 23.2238576,11.843 23.5,11.843 C23.7761424,11.843 24,12.0668576 24,12.343 L24,18.5385886 Z M24,22.2391892 L24,22.792 C24,23.0681424 23.7761424,23.292 23.5,23.292 C23.2238576,23.292 23,23.0681424 23,22.792 L23,21.5169669 L24,22.2391892 Z M21.014,16.3820331 L20.014,15.6598108 L20.014,14.164 C20.014,13.8878576 20.2378576,13.664 20.514,13.664 C20.7901424,13.664 21.014,13.8878576 21.014,14.164 L21.014,16.3820331 Z M21.014,20.0826336 L21.014,20.928 C21.014,21.2041424 20.7901424,21.428 20.514,21.428 C20.2378576,21.428 20.014,21.2041424 20.014,20.928 L20.014,19.3604114 L21.014,20.0826336 Z" id="形状结合" fill="#000000" fill-rule="nonzero"></path>
                    <path d="M11,11 L29,24" id="直线" stroke="#000000" stroke-linecap="square" transform="translate(20.000000, 17.500000) rotate(-180.000000) translate(-20.000000, -17.500000) "></path>
                </g>
            </g>
        </g>
    </g>
</svg>