<?xml version="1.0" encoding="UTF-8"?>
<svg width="36px" height="36px" viewBox="0 0 36 36" version="1.1" xmlns="http://www.w3.org/2000/svg" xmlns:xlink="http://www.w3.org/1999/xlink">
    <!-- Generator: Sketch 58 (84663) - https://sketch.com -->
    <title>next_normal</title>
    <desc>Created with Sketch.</desc>
    <g id="页面-1" stroke="none" stroke-width="1" fill="none" fill-rule="evenodd">
        <g id="按钮规范" transform="translate(-601.000000, -138.000000)" fill="#000000" fill-rule="nonzero">
            <g id="编组" transform="translate(519.000000, 131.000000)">
                <g id="next_normal" transform="translate(82.000000, 7.000000)">
                    <path d="M14,12.8915284 L14,23.8915284 L13,23.8915284 L13,12.8915284 L14,12.8915284 Z M23.9961845,14.8349198 L23.99995,14.9970589 L23.99995,21.785998 C23.99995,23.3840995 22.9295521,24.0389911 21.581803,23.3008592 L21.4414239,23.2195131 L16.0996114,19.9550722 C14.7309675,19.1186786 14.6879449,17.7905597 15.9535986,16.9224948 L16.0996114,16.8279847 L21.4414239,13.5635437 C22.8134472,12.725085 23.9236926,13.3004664 23.9961845,14.8349198 Z M22.2368763,14.2552221 L22.1442446,14.3059879 L16.306654,17.8734044 C15.8740759,18.1377577 15.8410514,18.5600677 16.2155183,18.849292 L16.3091709,18.9135412 L22.1640473,22.4894693 C22.6001312,22.7558122 22.9638867,22.5867367 23.0093577,22.1118949 L23.0141401,22.0055103 L22.9966826,14.7911864 C22.9954184,14.2687317 22.6628853,14.0489565 22.2368763,14.2552221 Z" id="Combined-Shape" transform="translate(18.499975, 18.391528) scale(-1, 1) translate(-18.499975, -18.391528) "></path>
                </g>
            </g>
        </g>
    </g>
</svg>