<?xml version="1.0" encoding="UTF-8"?>
<svg width="18px" height="18px" viewBox="0 0 18 18" version="1.1" xmlns="http://www.w3.org/2000/svg" xmlns:xlink="http://www.w3.org/1999/xlink">
    <!-- Generator: Sketch 56.2 (81672) - https://sketch.com -->
    <title>random play_normal</title>
    <desc>Created with Sketch.</desc>
    <g id="页面-1" stroke="none" stroke-width="1" fill="none" fill-rule="evenodd">
        <g id="按钮规范" transform="translate(-169.000000, -217.000000)" fill="#FFFFFF" fill-rule="nonzero">
            <g id="button-playall备份-2" transform="translate(162.000000, 211.000000)">
                <g id="random-play_normal" transform="translate(7.000000, 6.000000)">
                    <path d="M13.5,14 C11.2114544,14 9.73805021,13.13045 8.30684083,11.3089108 L9.09315917,10.6910892 C10.3495044,12.290074 11.5524345,13 13.5,13 L13.5,11 L16.5,13.5 L13.5,16 L13.5,14 Z M13.5,5 C10.9295868,5 9.86381711,5.95843755 8.19631721,8.93613914 C8.1102633,9.08991533 8.1102633,9.08991533 8.02354631,9.24467043 C6.10169752,12.6697475 4.53249223,14 1,14 L1,13 C4.0883411,13 5.38786087,11.8983663 7.15145369,8.75532957 C7.2375349,8.60170903 7.2375349,8.60170903 7.32380957,8.44753867 C9.15045491,5.18564658 10.468878,4 13.5,4 L13.5,2 L16.5,4.5 L13.5,7 L13.5,5 Z M1,5 L1,4 C3.48614528,4 4.70231623,4.71774023 6.3796283,6.67460431 L5.6203717,7.32539569 C4.11569325,5.56993749 3.14996583,5 1,5 Z" id="Combined-Shape"></path>
                </g>
            </g>
        </g>
    </g>
</svg>