<?xml version="1.0" encoding="iso-8859-1"?>
<!-- Generator: Adobe Illustrator 18.0.0, SVG Export Plug-In . SVG Version: 6.00 Build 0)  -->
<!DOCTYPE svg PUBLIC "-//W3C//DTD SVG 1.1//EN" "http://www.w3.org/Graphics/SVG/1.1/DTD/svg11.dtd">
<svg version="1.1" id="&#x56FE;&#x5C42;_1" xmlns="http://www.w3.org/2000/svg" xmlns:xlink="http://www.w3.org/1999/xlink" x="0px"
	 y="0px" viewBox="0 0 64 64" enable-background="new 0 0 64 64" xml:space="preserve">
<g>
	<path fill="#B5B5B6" d="M35,27.815C35,26.142,33.93,25,32.257,25H28v7h4.257C33.93,32,35,30.501,35,28.828V27.815z"/>
	<path fill="#B5B5B6" d="M53,13H11c-1.657,0-3,1.343-3,3v33c0,1.657,1.343,3,3,3h42c1.657,0,3-1.343,3-3V16
		C56,14.343,54.657,13,53,13z M23,43H12V22h3v18h8V43z M36.472,43l-5.476-8H28v8h-3V22h7c3.314,0,6,2.686,6,6v0.829
		c0,2.709-1.307,4.585-3.687,5.742L40.214,43H36.472z M46.71,43.179c-4.946,0-7.015-4.781-7.015-10.679
		c0-5.898,2.154-10.679,7.015-10.679c3.812,0,5.953,2.946,6.702,7.06l-3.214,0.641c-0.458-2.697-1.583-4.85-3.488-4.85
		c-2.576,0-3.729,3.931-3.729,7.827c0,3.611,0.977,7.828,3.729,7.828c1.998,0,3.057-2.224,3.489-4.824l3.231,0.568
		C52.708,40.21,50.604,43.179,46.71,43.179z"/>
</g>
</svg>
