<?xml version="1.0" encoding="iso-8859-1"?>
<!-- Generator: Adobe Illustrator 18.0.0, SVG Export Plug-In . SVG Version: 6.00 Build 0)  -->
<!DOCTYPE svg PUBLIC "-//W3C//DTD SVG 1.1//EN" "http://www.w3.org/Graphics/SVG/1.1/DTD/svg11.dtd">
<svg version="1.1" id="&#x56FE;&#x5C42;_1" xmlns="http://www.w3.org/2000/svg" xmlns:xlink="http://www.w3.org/1999/xlink" x="0px"
	 y="0px" viewBox="0 0 64 64" enable-background="new 0 0 64 64" xml:space="preserve">
<g>
	<path fill="#B5B5B6" d="M32,6.011c-14.359,0-26,11.641-26,26s11.641,26,26,26s26-11.641,26-26S46.359,6.011,32,6.011z M32,53.011
		c-11.598,0-21-9.402-21-21c0-11.598,9.402-21,21-21s21,9.402,21,21C53,43.609,43.598,53.011,32,53.011z"/>
	<path fill="#B5B5B6" d="M46.047,32.798L34.52,38.802l-10.465,5.823C23.386,44.972,23,44.693,23,43.94v-11.93V20.082
		c0-0.753,0.305-1.083,0.974-0.736l10.937,5.876l11.17,5.898C46.803,31.494,46.769,32.423,46.047,32.798z"/>
</g>
</svg>
