<?xml version="1.0" encoding="iso-8859-1"?>
<!-- Generator: Adobe Illustrator 18.0.0, SVG Export Plug-In . SVG Version: 6.00 Build 0)  -->
<!DOCTYPE svg PUBLIC "-//W3C//DTD SVG 1.1//EN" "http://www.w3.org/Graphics/SVG/1.1/DTD/svg11.dtd">
<svg version="1.1" id="&#x56FE;&#x5C42;_1" xmlns="http://www.w3.org/2000/svg" xmlns:xlink="http://www.w3.org/1999/xlink" x="0px"
	 y="0px" viewBox="0 0 24 24" enable-background="new 0 0 24 24" xml:space="preserve">
<g>
	<path id="gear-icon_3_" fill="#B5B5B6" d="M22.05,12.942v-2.833l-1.532-0.545c-0.583-0.209-1.053-0.655-1.291-1.227V8.336
		c-0.238-0.575-0.222-1.222,0.045-1.784l0.698-1.467l-2.004-2.004l-1.467,0.697c-0.562,0.266-1.211,0.283-1.784,0.045h-0.001
		c-0.572-0.238-1.018-0.707-1.227-1.292L12.942,1h-2.835L9.563,2.531C9.355,3.116,8.909,3.586,8.337,3.823H8.335
		C7.762,4.061,7.114,4.044,6.552,3.778L5.085,3.081L3.08,5.085l0.698,1.467c0.266,0.562,0.283,1.209,0.045,1.784v0.001
		C3.585,8.909,3.116,9.355,2.531,9.564L1,10.108v2.833l1.531,0.546c0.584,0.208,1.054,0.654,1.292,1.226v0.001
		c0.238,0.575,0.222,1.222-0.045,1.784L3.08,17.965l2.005,2.004l1.467-0.697c0.561-0.266,1.209-0.283,1.783-0.045h0.002
		c0.572,0.237,1.018,0.707,1.226,1.292l0.544,1.531h2.835l0.541-1.521c0.211-0.59,0.66-1.065,1.238-1.305l0,0
		c0.57-0.236,1.211-0.22,1.767,0.045l1.478,0.701l2.004-2.004l-0.698-1.468c-0.266-0.561-0.283-1.209-0.045-1.782v-0.001
		c0.238-0.573,0.708-1.018,1.292-1.227L22.05,12.942z M11.525,16.036c-2.492,0-4.511-2.018-4.511-4.511
		c0-2.492,2.019-4.511,4.511-4.511c2.491,0,4.511,2.019,4.511,4.511C16.036,14.018,14.016,16.036,11.525,16.036z"/>
</g>
</svg>
