<?xml version="1.0" encoding="iso-8859-1"?>
<!-- Generator: Adobe Illustrator 18.0.0, SVG Export Plug-In . SVG Version: 6.00 Build 0)  -->
<!DOCTYPE svg PUBLIC "-//W3C//DTD SVG 1.1//EN" "http://www.w3.org/Graphics/SVG/1.1/DTD/svg11.dtd">
<svg version="1.1" id="&#x56FE;&#x5C42;_1" xmlns="http://www.w3.org/2000/svg" xmlns:xlink="http://www.w3.org/1999/xlink" x="0px"
	 y="0px" viewBox="0 0 24 24" enable-background="new 0 0 24 24" xml:space="preserve">
<path fill="#B5B5B6" d="M21,6.036H3v-1c0-0.552,0.448-1,1-1h10.085l1.071-2H20c0.552,0,1,0.448,1,1V6.036z"/>
<path fill="#B5B5B6" d="M21.5,7h-19C2.224,7,2,7.26,2,7.536v12.5C2,20.589,2.448,21,3,21h18c0.552,0,1-0.411,1-0.964v-12.5
	C22,7.26,21.776,7,21.5,7z M15.809,15.656c0,0-0.068,0.145-0.22,0.084c-0.12-0.048-0.079-0.201-0.079-0.201s0.488-1.226,0.079-2.218
	c0,0-0.378-1.364-2.703-1.979c0,0-0.003,5.37-0.011,5.412c-0.008,0.793-0.666,1.625-1.676,2.021
	c-1.234,0.482-2.526,0.13-2.885-0.788c-0.359-0.918,0.331-2.104,1.583-2.536c0.812-0.28,1.578-0.132,2.104,0.096l0.057-6.445
	c0-0.297,0.236-0.474,0.463-0.475C12.748,8.625,13,8.8,13,9.097V9.25c0,0.223,0.173,0.74,1.27,1.422c0,0,1.432,0.77,1.84,2.166
	C16.11,12.837,16.533,14.083,15.809,15.656z"/>
</svg>
