<?xml version="1.0" encoding="iso-8859-1"?>
<!-- Generator: Adobe Illustrator 18.0.0, SVG Export Plug-In . SVG Version: 6.00 Build 0)  -->
<!DOCTYPE svg PUBLIC "-//W3C//DTD SVG 1.1//EN" "http://www.w3.org/Graphics/SVG/1.1/DTD/svg11.dtd">
<svg version="1.1" id="&#x56FE;&#x5C42;_1" xmlns="http://www.w3.org/2000/svg" xmlns:xlink="http://www.w3.org/1999/xlink" x="0px"
	 y="0px" viewBox="0 0 64 64" enable-background="new 0 0 64 64" xml:space="preserve">
<g>
	<g>
		<path fill="#B5B5B6" d="M31.741,9.55c-0.76-0.305-1.628-0.113-2.192,0.481L19.141,21H9c-1.104,0-2,0.896-2,2v18
			c0,1.104,0.896,2,2,2h10.138l10.407,11.03c0.386,0.409,0.915,0.627,1.455,0.627c0.248,0,0.499-0.046,0.738-0.141
			C32.5,54.214,33,53.477,33,52.658v-41.25C33,10.589,32.501,9.854,31.741,9.55z"/>
		<path fill="#B5B5B6" d="M55.622,23.361c-1.135-2.679-2.759-5.085-4.825-7.151c-2.066-2.066-4.473-3.69-7.151-4.826
			c-0.952-0.405-2.054,0.041-2.458,0.995c-0.404,0.953,0.041,2.054,0.995,2.458c2.232,0.946,4.238,2.3,5.963,4.024
			c1.724,1.723,3.078,3.729,4.023,5.962c0.979,2.31,1.475,4.762,1.475,7.289s-0.496,4.979-1.475,7.289
			c-0.945,2.233-2.3,4.239-4.024,5.962c-1.724,1.724-3.729,3.078-5.962,4.023c-0.953,0.404-1.399,1.504-0.995,2.458
			c0.303,0.715,0.997,1.144,1.728,1.144c0.244,0,0.491-0.048,0.73-0.149c2.679-1.135,5.085-2.758,7.15-4.825
			c2.067-2.066,3.691-4.472,4.826-7.151c1.176-2.775,1.771-5.72,1.771-8.752S56.798,26.137,55.622,23.361z"/>
		<path fill="#B5B5B6" d="M48.712,37.948c0.784-1.851,1.182-3.814,1.182-5.835c0-2.021-0.397-3.984-1.182-5.835
			c-0.757-1.786-1.839-3.39-3.217-4.768s-2.982-2.46-4.767-3.216c-0.957-0.405-2.055,0.041-2.458,0.995
			c-0.404,0.954,0.042,2.054,0.995,2.458c1.339,0.567,2.543,1.379,3.578,2.415s1.848,2.239,2.415,3.579
			c0.587,1.385,0.885,2.856,0.885,4.372c0,1.516-0.298,2.986-0.885,4.372c-0.567,1.34-1.38,2.543-2.415,3.579
			c-1.034,1.034-2.238,1.847-3.578,2.415c-0.954,0.404-1.399,1.505-0.995,2.458c0.303,0.715,0.997,1.144,1.728,1.144
			c0.244,0,0.492-0.048,0.73-0.149c1.786-0.757,3.391-1.839,4.768-3.216C46.873,41.338,47.955,39.734,48.712,37.948z"/>
		<path fill="#B5B5B6" d="M41.523,34.953c0.392-0.925,0.591-1.908,0.591-2.92c0-1.013-0.199-1.996-0.59-2.919
			c-0.377-0.893-0.918-1.694-1.606-2.384c-0.688-0.688-1.489-1.228-2.384-1.606c-0.954-0.404-2.054,0.043-2.457,0.997
			s0.042,2.054,0.996,2.458c0.447,0.189,0.849,0.459,1.192,0.803c0.346,0.346,0.616,0.747,0.805,1.194
			c0.195,0.461,0.294,0.952,0.294,1.459s-0.099,0.998-0.295,1.46c-0.188,0.445-0.458,0.847-0.804,1.192
			c-0.344,0.344-0.745,0.615-1.192,0.804c-0.954,0.404-1.399,1.504-0.996,2.458c0.303,0.715,0.997,1.145,1.728,1.145
			c0.243,0,0.491-0.048,0.729-0.148c0.895-0.378,1.696-0.919,2.384-1.607C40.606,36.646,41.147,35.844,41.523,34.953z"/>
	</g>
</g>
</svg>
