<?xml version="1.0" encoding="iso-8859-1"?>
<!-- Generator: Adobe Illustrator 18.1.1, SVG Export Plug-In . SVG Version: 6.00 Build 0)  -->
<!DOCTYPE svg PUBLIC "-//W3C//DTD SVG 1.1//EN" "http://www.w3.org/Graphics/SVG/1.1/DTD/svg11.dtd" [
	<!ENTITY ns_extend "http://ns.adobe.com/Extensibility/1.0/">
	<!ENTITY ns_ai "http://ns.adobe.com/AdobeIllustrator/10.0/">
	<!ENTITY ns_graphs "http://ns.adobe.com/Graphs/1.0/">
	<!ENTITY ns_vars "http://ns.adobe.com/Variables/1.0/">
	<!ENTITY ns_imrep "http://ns.adobe.com/ImageReplacement/1.0/">
	<!ENTITY ns_sfw "http://ns.adobe.com/SaveForWeb/1.0/">
	<!ENTITY ns_custom "http://ns.adobe.com/GenericCustomNamespace/1.0/">
	<!ENTITY ns_adobe_xpath "http://ns.adobe.com/XPath/1.0/">
]>
<svg version="1.1" id="&#x56FE;&#x5C42;_1" xmlns:x="&ns_extend;" xmlns:i="&ns_ai;" xmlns:graph="&ns_graphs;"
	 xmlns="http://www.w3.org/2000/svg" xmlns:xlink="http://www.w3.org/1999/xlink" x="0px" y="0px" viewBox="0 0 64 64"
	 enable-background="new 0 0 64 64" xml:space="preserve">
<metadata>
	<sfw  xmlns="&ns_sfw;">
		<slices></slices>
		<sliceSourceBounds  height="776" width="16383" x="-8088" y="-784" bottomLeftOrigin="true"></sliceSourceBounds>
	</sfw>
</metadata>
<path fill="#B5B5B6" d="M58,19.19c0-1.657-1.466-3.19-3.123-3.19H9.147C7.49,16,6,17.533,6,19.19v28.766C6,49.612,7.49,51,9.147,51
	h45.877C56.681,51,58,49.612,58,47.956V19.19z M28,43h-3v-8.544c0-1.378-1.122-2.5-2.5-2.5s-2.5,1.122-2.5,2.5V43h-3v-8.544
	c0-1.378-1.122-2.5-2.5-2.5s-2.5,1.122-2.5,2.5V43H9V29h3v0.561c0.751-0.384,1.599-0.605,2.5-0.605c1.578,0,2.997,0.668,4,1.733
	c1.003-1.065,2.422-1.733,4-1.733c3.038,0,5.5,2.462,5.5,5.5V43z M34,43h-3V29h3V43z M32.5,26.936c-1.105,0-2-0.895-2-2s0.895-2,2-2
	s2,0.895,2,2S33.605,26.936,32.5,26.936z M48,43h-3v-8.544c0-1.378-1.122-2.5-2.5-2.5s-2.5,1.122-2.5,2.5V43h-3V29h3v0.561
	c1-0.384,1.599-0.605,2.5-0.605c3.038,0,5.5,2.462,5.5,5.5V43z M54,43h-3V29h3V43z M52.5,26.936c-1.105,0-2-0.895-2-2s0.895-2,2-2
	s2,0.895,2,2S53.605,26.936,52.5,26.936z"/>
</svg>
