<?xml version="1.0" encoding="iso-8859-1"?>
<!-- Generator: Adobe Illustrator 18.0.0, SVG Export Plug-In . SVG Version: 6.00 Build 0)  -->
<!DOCTYPE svg PUBLIC "-//W3C//DTD SVG 1.1//EN" "http://www.w3.org/Graphics/SVG/1.1/DTD/svg11.dtd">
<svg version="1.1" id="&#x56FE;&#x5C42;_1" xmlns="http://www.w3.org/2000/svg" xmlns:xlink="http://www.w3.org/1999/xlink" x="0px"
	 y="0px" viewBox="0 0 64 64" enable-background="new 0 0 64 64" xml:space="preserve">
<path fill="#B5B5B6" d="M57.199,47.645c0,0-0.215,0.455-0.691,0.265c-0.376-0.15-0.249-0.63-0.249-0.63s1.533-3.85,0.247-6.966
	c0,0-1.186-4.284-8.491-6.216c0,0-0.01,16.869-0.035,17c-0.026,2.49-2.09,5.106-5.264,6.348c-3.875,1.514-7.934,0.408-9.062-2.476
	c-1.128-2.883,1.036-6.622,4.974-7.967c2.435-0.831,4.737-0.547,6.389,0.169l-0.03-20.014c-0.002-0.933,0.847-1.48,1.562-1.485
	C47.261,25.67,48,26.331,48,27.172v0.351c0,0.7,0.732,2.326,4.177,4.466c0,0,4.591,2.42,5.874,6.804
	C58.051,38.792,59.475,42.704,57.199,47.645z"/>
<path fill="#B5B5B6" d="M31.166,49.807c1.2-2.587,3.566-4.644,6.492-5.643c1.3-0.444,2.643-0.669,3.989-0.669
	c0.121,0,0.242,0.002,0.363,0.006l-0.016-10.242c-1.88-0.091-2.556-2.276-2.556-2.276c-1.561-1.505-0.296-3.791-0.296-3.791
	c1.143-0.121,2.167-1.866,2.167-1.866c-0.304-0.964,2.142-0.866,1.322-2.398c0,0-2.468-0.771,0.419-2.104
	c0,0,1.144-0.613,0.241-0.974c0,0,0.542-1.446-0.961-1.143c0,0-2.323,0-0.681-1.568c0,0,0.035-0.821,0.99-0.944
	c1.929,1.84,3.484,4.065,4.551,6.547c2.124,0.334,3.801,2.208,3.81,4.413c0.11,0.163,0.367,0.481,0.871,0.92
	C50.656,16.529,40.863,7.5,29,7.5c-12.682,0-23,10.317-23,23c0,12.683,10.318,23,23,23c0.459,0,0.913-0.017,1.365-0.044
	C30.35,52.243,30.611,51.002,31.166,49.807z M16.094,29.451c0,0-1.867,0.339-2.408-1.107c-0.541-1.444,0.134-0.998-1.376-1.539
	c-1.513-0.539,0.534-1.19-0.67-1.911c-0.788-0.474-1.164-0.135-1.482-0.434C12.716,16.49,20.192,10.709,29,10.709
	c3.781,0,7.305,1.085,10.312,2.931c-1.147,1.447-2.808,1.047-2.808,1.047c-0.964-0.01-1.704,0.711-1.704,0.711
	c-2.048,0.602-1.145-1.743-1.145-1.743c1.145-1.145-1.257-1.745-1.257-1.745c-1.563,0.781-2.45-0.121-2.45-0.121
	c-0.592-1.085-1.339-0.24-1.339-0.24c-1.082,1.145,0.241,1.28,0.241,1.28c1.262,0.372,1.083,1.682,1.083,1.682
	c0.179,2.347-1.144,1.307-0.966,2.69c0,0,2.287,0.542,1.206,2.107c0,0-0.423,1.143-1.384,0c0,0-1.262-1.445-0.964-0.061
	c0,0,1.087,0.781-1.024,1.204c0,0-1.573-0.481-2.139,1.381c0,0-0.142,0.843-1.83,1.687c0,0-0.963,0.058-0.84,1.322
	c0,0-0.122,1.622-1.507,1.564c0,0-0.781,0.051-0.843-1.512c0,0-0.48-1.94-3.727,0.649c0,0-1.386,1.417,0.42,2.502
	c0,0,0.902,0.491,1.563-0.05c0,0,1.988-0.721,0.543,0.782c0,0,2.679,1.223,0.082,1.223c0,0,0.002,0,0.005,0
	c-0.005,0-0.008,0.398-0.011,0.397C15.917,30.158,18.196,28.743,16.094,29.451z M27.054,46.321
	c-0.708,1.095-0.007,2.985,0.406,3.891c-0.717-0.056-1.423-0.144-2.116-0.275c-0.137-0.096-0.269-0.186-0.425-0.307
	c-2.252-1.751-1.177-7.205-1.177-7.205c0.517-2.355-0.515-3.165-0.515-3.165c-4.633-2.354-2.646-4.926-2.646-4.926
	c1.47-1.987-0.517-2.502-0.517-2.502c-0.578-0.135-1.119-0.586-1.537-1.032c1.211,0.6,3.303,0.15,3.303,0.15
	c2.872-1.837,4.783,0.954,4.783,0.954c1.692,0.15,2.725,1.914,2.725,1.914c0.666,1.177,3.377,1.397,3.377,1.397
	c1.912,0.808,0.515,2.131,0.515,2.131c-0.732,0.074-0.881,1.473-0.881,1.473c1.546,1.323-2.134,3.382-2.134,3.382
	C30.51,44.409,27.054,46.321,27.054,46.321z"/>
</svg>
