<?xml version="1.0" encoding="iso-8859-1"?>
<!-- Generator: Adobe Illustrator 18.0.0, SVG Export Plug-In . SVG Version: 6.00 Build 0)  -->
<!DOCTYPE svg PUBLIC "-//W3C//DTD SVG 1.1//EN" "http://www.w3.org/Graphics/SVG/1.1/DTD/svg11.dtd">
<svg version="1.1" id="&#x56FE;&#x5C42;_1" xmlns="http://www.w3.org/2000/svg" xmlns:xlink="http://www.w3.org/1999/xlink" x="0px"
	 y="0px" viewBox="0 0 24 24" enable-background="new 0 0 24 24" xml:space="preserve">
<g>
	<path fill="#B5B5B6" d="M13,10.244C13,9.542,12.522,9,11.82,9H10v3h1.82c0.702,0,1.18-0.629,1.18-1.331V10.244z"/>
	<path fill="#B5B5B6" d="M21,4H3C2.448,4,2,4.448,2,5v14c0,0.552,0.448,1,1,1h18c0.552,0,1-0.448,1-1V5C22,4.448,21.552,4,21,4z
		 M8,16H4V8h1v7h3V16z M13.41,16l-2.081-3H10v3H9V8h2.71c1.56-0.021,2.435,1.079,2.435,2.342v0.316c0,1.033-0.458,1.842-1.484,2.229
		L14.832,16H13.41z M17.653,15.984c-1.827,0-2.592-1.78-2.592-3.975c0-2.195,0.796-3.975,2.592-3.975
		c1.408,0,2.199,1.097,2.476,2.628l-1.145,0.213c-0.169-1.004-0.624-1.75-1.328-1.75c-0.952,0-1.422,1.425-1.422,2.875
		c0,1.344,0.374,2.891,1.391,2.891c0.738,0,1.231-0.767,1.391-1.734l1.12,0.182C19.869,14.879,19.092,15.984,17.653,15.984z"/>
</g>
</svg>
