<?xml version="1.0" encoding="iso-8859-1"?>
<!-- Generator: Adobe Illustrator 18.0.0, SVG Export Plug-In . SVG Version: 6.00 Build 0)  -->
<!DOCTYPE svg PUBLIC "-//W3C//DTD SVG 1.1//EN" "http://www.w3.org/Graphics/SVG/1.1/DTD/svg11.dtd">
<svg version="1.1" id="&#x56FE;&#x5C42;_1" xmlns="http://www.w3.org/2000/svg" xmlns:xlink="http://www.w3.org/1999/xlink" x="0px"
	 y="0px" viewBox="0 0 64 64" enable-background="new 0 0 64 64" xml:space="preserve">
<path fill="#B5B5B6" d="M51.975,16v-3.938c0-1.65-1.35-3-3-3H36.669l-3.488,3H15.068c-1.657,0-3,1.343-3,3V16H51.975z"/>
<path fill="#B5B5B6" d="M51.725,18H12.068C10.411,18,9,19.343,9,21v30.02C9,52.67,10.418,54,12.068,54h39.907
	C53.632,54,55,52.677,55,51.02V21.25C55,19.455,53.52,18,51.725,18z M40.706,39.498c0,0-0.156,0.331-0.503,0.193
	c-0.273-0.109-0.181-0.458-0.181-0.458s1.115-2.801,0.18-5.069c0,0-0.863-3.117-6.179-4.523c0,0-0.008,12.275-0.026,12.37
	c-0.019,1.812-1.521,3.715-3.831,4.619c-2.82,1.102-5.773,0.297-6.594-1.801c-0.821-2.098,0.757-4.809,3.619-5.797
	c1.855-0.641,3.746-0.469,4.947,0.052L32.13,24.518c-0.001-0.679,0.396-1.083,0.916-1.087C33.566,23.43,34,23.828,34,24.508v0.349
	c0,0.51,0.538,1.692,3.045,3.249c0,0,3.343,1.761,4.277,4.951C41.323,33.057,42.362,35.903,40.706,39.498z"/>
</svg>
