<?xml version="1.0" encoding="iso-8859-1"?>
<!-- Generator: Adobe Illustrator 18.0.0, SVG Export Plug-In . SVG Version: 6.00 Build 0)  -->
<!DOCTYPE svg PUBLIC "-//W3C//DTD SVG 1.1//EN" "http://www.w3.org/Graphics/SVG/1.1/DTD/svg11.dtd">
<svg version="1.1" id="&#x56FE;&#x5C42;_1" xmlns="http://www.w3.org/2000/svg" xmlns:xlink="http://www.w3.org/1999/xlink" x="0px"
	 y="0px" viewBox="0 0 24 24" enable-background="new 0 0 24 24" xml:space="preserve">
<g>
	<path fill="#B5B5B6" d="M6.5,8h-3C3.224,8,3,7.776,3,7.5v-3C3,4.224,3.224,4,3.5,4h3C6.776,4,7,4.224,7,4.5v3
		C7,7.776,6.776,8,6.5,8z"/>
	<path fill="#B5B5B6" d="M6.5,14h-3C3.224,14,3,13.776,3,13.5v-3C3,10.224,3.224,10,3.5,10h3C6.776,10,7,10.224,7,10.5v3
		C7,13.776,6.776,14,6.5,14z"/>
	<path fill="#B5B5B6" d="M6.5,20h-3C3.224,20,3,19.776,3,19.5v-3C3,16.224,3.224,16,3.5,16h3C6.776,16,7,16.224,7,16.5v3
		C7,19.776,6.776,20,6.5,20z"/>
	<path fill="#B5B5B6" d="M20.5,20h-11C9.224,20,9,19.776,9,19.5v-3C9,16.224,9.224,16,9.5,16h11c0.276,0,0.5,0.224,0.5,0.5v3
		C21,19.776,20.776,20,20.5,20z"/>
	<path fill="#B5B5B6" d="M20.5,14h-11C9.224,14,9,13.776,9,13.5v-3C9,10.224,9.224,10,9.5,10h11c0.276,0,0.5,0.224,0.5,0.5v3
		C21,13.776,20.776,14,20.5,14z"/>
	<path fill="#B5B5B6" d="M20.5,8h-11C9.224,8,9,7.776,9,7.5v-3C9,4.224,9.224,4,9.5,4h11C20.776,4,21,4.224,21,4.5v3
		C21,7.776,20.776,8,20.5,8z"/>
</g>
</svg>
