<?xml version="1.0" encoding="iso-8859-1"?>
<!-- Generator: Adobe Illustrator 18.0.0, SVG Export Plug-In . SVG Version: 6.00 Build 0)  -->
<!DOCTYPE svg PUBLIC "-//W3C//DTD SVG 1.1//EN" "http://www.w3.org/Graphics/SVG/1.1/DTD/svg11.dtd">
<svg version="1.1" id="&#x56FE;&#x5C42;_1" xmlns="http://www.w3.org/2000/svg" xmlns:xlink="http://www.w3.org/1999/xlink" x="0px"
	 y="0px" viewBox="0 0 64 64" enable-background="new 0 0 64 64" xml:space="preserve">
<path fill="#B5B5B6" d="M39.703,10.138c-8.074,4.887-15.414,0-15.414,0L5.969,20.145l4.248,10.512L17,30.152V53c0,0.552,0.448,1,1,1
	h28c0.552,0,1-0.448,1-1V30.152l6.776,0.604l4.088-10.611L39.703,10.138z M31.719,17.065c-3.128,0-5.79-1.636-6.837-3.932
	c1.876,0.831,4.249,1.331,6.837,1.331c2.587,0,4.961-0.5,6.837-1.332C37.509,15.43,34.847,17.065,31.719,17.065z"/>
</svg>
