<?xml version="1.0" encoding="iso-8859-1"?>
<!-- Generator: Adobe Illustrator 18.0.0, SVG Export Plug-In . SVG Version: 6.00 Build 0)  -->
<!DOCTYPE svg PUBLIC "-//W3C//DTD SVG 1.1//EN" "http://www.w3.org/Graphics/SVG/1.1/DTD/svg11.dtd">
<svg version="1.1" id="&#x56FE;&#x5C42;_1" xmlns="http://www.w3.org/2000/svg" xmlns:xlink="http://www.w3.org/1999/xlink" x="0px"
	 y="0px" viewBox="0 0 24 24" enable-background="new 0 0 24 24" xml:space="preserve">
<g>
	<g>
		<path fill="#B5B5B6" d="M11.509,2.485c-0.294-0.121-0.63-0.073-0.849,0.162L6.63,6.965H2.94c-0.5,0-0.906,0.405-0.906,0.906v7.245
			c0,0.5,0.405,0.906,0.906,0.906h3.689l4.03,4.229c0.149,0.162,0.354,0.178,0.563,0.178c0.096,0,0.193-0.054,0.286-0.091
			c0.295-0.12,0.489-0.447,0.489-0.772V3.221C11.997,2.896,11.804,2.605,11.509,2.485z"/>
		<path fill="#B5B5B6" d="M21.258,7.931c-0.457-1.087-1.112-2.063-1.944-2.901c-0.833-0.838-1.802-1.497-2.882-1.958
			c-0.384-0.164-0.828,0.017-0.99,0.404c-0.163,0.387,0.017,0.833,0.401,0.997c0.9,0.384,1.708,0.933,2.403,1.632
			c0.695,0.699,1.24,1.513,1.621,2.418c0.394,0.937,0.594,1.932,0.594,2.957s-0.2,2.02-0.594,2.957
			c-0.381,0.906-0.927,1.719-1.622,2.419c-0.695,0.699-1.503,1.249-2.402,1.632c-0.384,0.164-0.564,0.61-0.401,0.997
			c0.122,0.29,0.402,0.464,0.696,0.464c0.098,0,0.198-0.019,0.294-0.06c1.079-0.46,2.049-1.119,2.881-1.957
			c0.833-0.838,1.487-1.814,1.945-2.901c0.474-1.126,0.714-2.32,0.714-3.55S21.732,9.056,21.258,7.931z"/>
		<path fill="#B5B5B6" d="M18.474,13.848c0.316-0.751,0.476-1.547,0.476-2.367c0-0.82-0.16-1.616-0.476-2.367
			c-0.305-0.724-0.741-1.375-1.296-1.934c-0.555-0.559-1.202-0.998-1.921-1.304c-0.386-0.164-0.828,0.017-0.99,0.404
			c-0.163,0.387,0.017,0.833,0.401,0.997c0.54,0.23,1.025,0.56,1.442,0.979c0.417,0.42,0.745,0.908,0.973,1.452
			c0.236,0.562,0.357,1.159,0.357,1.774c0,0.615-0.12,1.211-0.357,1.774c-0.229,0.544-0.556,1.032-0.973,1.452
			c-0.417,0.42-0.902,0.749-1.442,0.979c-0.384,0.164-0.564,0.61-0.401,0.997c0.122,0.29,0.402,0.464,0.696,0.464
			c0.098,0,0.198-0.019,0.294-0.06c0.72-0.307,1.366-0.746,1.921-1.305C17.733,15.223,18.169,14.572,18.474,13.848z"/>
		<path fill="#B5B5B6" d="M15.577,12.633c0.158-0.375,0.238-0.774,0.238-1.185c0-0.411-0.08-0.81-0.238-1.184
			c-0.152-0.362-0.37-0.687-0.647-0.967c-0.277-0.279-0.6-0.498-0.961-0.652c-0.384-0.164-0.828,0.017-0.99,0.404
			c-0.163,0.387,0.017,0.833,0.401,0.997c0.18,0.077,0.342,0.186,0.48,0.326c0.139,0.14,0.248,0.303,0.324,0.484
			c0.079,0.187,0.118,0.386,0.118,0.592s-0.04,0.405-0.119,0.592c-0.076,0.181-0.185,0.343-0.324,0.483
			c-0.139,0.14-0.3,0.249-0.48,0.326c-0.384,0.164-0.564,0.61-0.401,0.997c0.122,0.29,0.402,0.464,0.696,0.464
			c0.098,0,0.198-0.019,0.294-0.06c0.36-0.154,0.684-0.373,0.961-0.652C15.208,13.319,15.426,12.994,15.577,12.633z"/>
	</g>
</g>
</svg>
