<?xml version="1.0" encoding="iso-8859-1"?>
<!-- Generator: Adobe Illustrator 18.1.1, SVG Export Plug-In . SVG Version: 6.00 Build 0)  -->
<!DOCTYPE svg PUBLIC "-//W3C//DTD SVG 1.1//EN" "http://www.w3.org/Graphics/SVG/1.1/DTD/svg11.dtd" [
	<!ENTITY ns_extend "http://ns.adobe.com/Extensibility/1.0/">
	<!ENTITY ns_ai "http://ns.adobe.com/AdobeIllustrator/10.0/">
	<!ENTITY ns_graphs "http://ns.adobe.com/Graphs/1.0/">
	<!ENTITY ns_vars "http://ns.adobe.com/Variables/1.0/">
	<!ENTITY ns_imrep "http://ns.adobe.com/ImageReplacement/1.0/">
	<!ENTITY ns_sfw "http://ns.adobe.com/SaveForWeb/1.0/">
	<!ENTITY ns_custom "http://ns.adobe.com/GenericCustomNamespace/1.0/">
	<!ENTITY ns_adobe_xpath "http://ns.adobe.com/XPath/1.0/">
]>
<svg version="1.1" id="&#x56FE;&#x5C42;_1" xmlns:x="&ns_extend;" xmlns:i="&ns_ai;" xmlns:graph="&ns_graphs;"
	 xmlns="http://www.w3.org/2000/svg" xmlns:xlink="http://www.w3.org/1999/xlink" x="0px" y="0px" viewBox="0 0 24 24"
	 enable-background="new 0 0 24 24" xml:space="preserve">
<metadata>
	<sfw  xmlns="&ns_sfw;">
		<slices></slices>
		<sliceSourceBounds  height="15" width="20" x="2" y="4" bottomLeftOrigin="true"></sliceSourceBounds>
	</sfw>
</metadata>
<path fill="#B5B5B6" d="M20.896,5H3.292C2.591,5,2,5.681,2,6.39v12.314C2,19.414,2.591,20,3.292,20h17.667
	c0.7,0,1.041-0.586,1.041-1.296V6.39C22,5.681,21.597,5,20.896,5z M11,16h-1v-3.016C10,12.441,9.559,12,8.984,12
	C8.441,12,8,12.441,8,12.984V16H7v-3.016C7,12.441,6.559,12,5.984,12C5.441,12,5,12.441,5,12.984V16H4v-3.016V11h1v0.271
	C5.291,11.103,5.624,11,5.984,11h0.032c0.594,0,1.12,0.266,1.484,0.679C7.864,11.266,8.39,11,8.984,11h0.032
	C10.112,11,11,11.888,11,12.984V16z M13,16h-1v-5h1V16z M12.516,10.234c-0.414,0-0.75-0.336-0.75-0.75s0.336-0.75,0.75-0.75
	s0.75,0.336,0.75,0.75C13.266,9.899,12.93,10.234,12.516,10.234z M18,16h-1v-3.016C17,12.441,16.559,12,15.984,12
	C15.441,12,15,12.441,15,12.984V16h-1l0.016-5H15v0.271C15.291,11.103,15.624,11,15.984,11h0.032C17.112,11,18,11.888,18,12.984V16z
	 M20,16h-1v-5h1V16z M19.5,10.234c-0.414,0-0.75-0.336-0.75-0.75s0.336-0.75,0.75-0.75s0.75,0.336,0.75,0.75
	C20.25,9.899,19.914,10.234,19.5,10.234z"/>
</svg>
