<?xml version="1.0" encoding="iso-8859-1"?>
<!-- Generator: Adobe Illustrator 18.0.0, SVG Export Plug-In . SVG Version: 6.00 Build 0)  -->
<!DOCTYPE svg PUBLIC "-//W3C//DTD SVG 1.1//EN" "http://www.w3.org/Graphics/SVG/1.1/DTD/svg11.dtd">
<svg version="1.1" id="&#x56FE;&#x5C42;_1" xmlns="http://www.w3.org/2000/svg" xmlns:xlink="http://www.w3.org/1999/xlink" x="0px"
	 y="0px" viewBox="0 0 64 64" enable-background="new 0 0 64 64" xml:space="preserve">
<g>
	<path fill="#B5B5B6" d="M17,20h-6c-0.552,0-1-0.448-1-1v-6c0-0.552,0.448-1,1-1h6c0.552,0,1,0.448,1,1v6C18,19.552,17.552,20,17,20
		z"/>
	<path fill="#B5B5B6" d="M17,36h-6c-0.552,0-1-0.448-1-1v-6c0-0.552,0.448-1,1-1h6c0.552,0,1,0.448,1,1v6C18,35.552,17.552,36,17,36
		z"/>
	<path fill="#B5B5B6" d="M17,52h-6c-0.552,0-1-0.448-1-1v-6c0-0.552,0.448-1,1-1h6c0.552,0,1,0.448,1,1v6C18,51.552,17.552,52,17,52
		z"/>
	<path fill="#B5B5B6" d="M53,52H24c-0.552,0-1-0.448-1-1v-6c0-0.552,0.448-1,1-1h29c0.552,0,1,0.448,1,1v6
		C54,51.552,53.552,52,53,52z"/>
	<path fill="#B5B5B6" d="M53,36H24c-0.552,0-1-0.448-1-1v-6c0-0.552,0.448-1,1-1h29c0.552,0,1,0.448,1,1v6
		C54,35.552,53.552,36,53,36z"/>
	<path fill="#B5B5B6" d="M53,20H24c-0.552,0-1-0.448-1-1v-6c0-0.552,0.448-1,1-1h29c0.552,0,1,0.448,1,1v6
		C54,19.552,53.552,20,53,20z"/>
</g>
</svg>
