<?xml version="1.0" encoding="iso-8859-1"?>
<!-- Generator: Adobe Illustrator 18.0.0, SVG Export Plug-In . SVG Version: 6.00 Build 0)  -->
<!DOCTYPE svg PUBLIC "-//W3C//DTD SVG 1.1//EN" "http://www.w3.org/Graphics/SVG/1.1/DTD/svg11.dtd">
<svg version="1.1" id="&#x56FE;&#x5C42;_1" xmlns="http://www.w3.org/2000/svg" xmlns:xlink="http://www.w3.org/1999/xlink" x="0px"
	 y="0px" viewBox="0 0 24 24" enable-background="new 0 0 24 24" xml:space="preserve">
<g>
	<path fill="#B5B5B6" d="M11.5,1C5.701,1,1,5.701,1,11.5S5.701,22,11.5,22S22,17.299,22,11.5S17.299,1,11.5,1z M11.5,19.981
		c-4.684,0-8.481-3.797-8.481-8.481c0-4.684,3.797-8.481,8.481-8.481s8.481,3.797,8.481,8.481
		C19.981,16.184,16.184,19.981,11.5,19.981z"/>
	<path fill="#B5B5B6" d="M17.298,11.826l-4.656,2.425l-4.226,2.352c-0.27,0.14-0.426,0.027-0.426-0.277v-4.818V6.691
		c0-0.304,0.226-0.382,0.496-0.242L12.8,8.766l4.511,2.382C17.603,11.3,17.59,11.675,17.298,11.826z"/>
</g>
</svg>
