<?xml version="1.0" encoding="iso-8859-1"?>
<!-- Generator: Adobe Illustrator 18.0.0, SVG Export Plug-In . SVG Version: 6.00 Build 0)  -->
<!DOCTYPE svg PUBLIC "-//W3C//DTD SVG 1.1//EN" "http://www.w3.org/Graphics/SVG/1.1/DTD/svg11.dtd">
<svg version="1.1" id="&#x56FE;&#x5C42;_1" xmlns="http://www.w3.org/2000/svg" xmlns:xlink="http://www.w3.org/1999/xlink" x="0px"
	 y="0px" viewBox="0 0 64 64" enable-background="new 0 0 64 64" xml:space="preserve">
<g>
	<path id="gear-icon_1_" fill="#B5B5B6" d="M57,35.365v-6.73l-3.64-1.294c-1.386-0.497-2.502-1.555-3.066-2.914v-0.002
		c-0.565-1.365-0.527-2.903,0.106-4.238l1.658-3.485l-4.76-4.76l-3.485,1.656c-1.335,0.633-2.877,0.673-4.238,0.108h-0.002
		c-1.359-0.565-2.419-1.678-2.913-3.068L35.365,7h-6.734l-1.292,3.638c-0.494,1.388-1.552,2.504-2.912,3.068h-0.004
		c-1.363,0.565-2.901,0.525-4.236-0.108l-3.485-1.656l-4.763,4.76l1.658,3.485c0.633,1.335,0.673,2.873,0.108,4.238v0.002
		c-0.565,1.359-1.68,2.417-3.068,2.914L7,28.635v6.73l3.638,1.296c1.388,0.494,2.503,1.552,3.068,2.911v0.002
		c0.565,1.365,0.527,2.903-0.108,4.238l-1.658,3.485l4.763,4.761l3.485-1.656c1.333-0.633,2.873-0.673,4.236-0.108h0.004
		c1.359,0.563,2.417,1.68,2.912,3.068L28.631,57h6.734l1.286-3.613c0.501-1.402,1.569-2.529,2.94-3.1l0,0
		c1.353-0.562,2.877-0.523,4.197,0.106l3.51,1.666l4.76-4.761L50.4,43.81c-0.633-1.333-0.671-2.871-0.108-4.234v-0.002
		c0.566-1.361,1.682-2.419,3.07-2.915L57,35.365z M32,42.714c-5.918,0-10.714-4.794-10.714-10.714
		c0-5.918,4.796-10.714,10.714-10.714c5.916,0,10.714,4.796,10.714,10.714C42.714,37.92,37.916,42.714,32,42.714z"/>
</g>
</svg>
