<?xml version="1.0" encoding="iso-8859-1"?>
<!-- Generator: Adobe Illustrator 18.0.0, SVG Export Plug-In . SVG Version: 6.00 Build 0)  -->
<!DOCTYPE svg PUBLIC "-//W3C//DTD SVG 1.1//EN" "http://www.w3.org/Graphics/SVG/1.1/DTD/svg11.dtd">
<svg version="1.1" id="&#x56FE;&#x5C42;_1" xmlns="http://www.w3.org/2000/svg" xmlns:xlink="http://www.w3.org/1999/xlink" x="0px"
	 y="0px" viewBox="0 0 24 24" enable-background="new 0 0 24 24" xml:space="preserve">
<path fill="#B5B5B6" d="M15.459,2c-3.587,2.171-6.848,0-6.848,0L0.5,6.446l1.711,4.635L5,10.457v9.523c0,0.552,0.448,1,1,1h12
	c0.552,0,1-0.448,1-1v-9.523l2.856,0.651L23.5,6.446L15.459,2z M11.912,5.078c-1.39,0-2.572-0.727-3.037-1.747
	c0.833,0.369,1.976,0.7,3.125,0.7c1.149,0,2.116-0.331,2.95-0.7C14.485,4.351,13.302,5.078,11.912,5.078z"/>
</svg>
