<?xml version="1.0" encoding="iso-8859-1"?>
<!-- Generator: Adobe Illustrator 18.0.0, SVG Export Plug-In . SVG Version: 6.00 Build 0)  -->
<!DOCTYPE svg PUBLIC "-//W3C//DTD SVG 1.1//EN" "http://www.w3.org/Graphics/SVG/1.1/DTD/svg11.dtd">
<svg version="1.1" id="&#x56FE;&#x5C42;_1" xmlns="http://www.w3.org/2000/svg" xmlns:xlink="http://www.w3.org/1999/xlink" x="0px"
	 y="0px" viewBox="0 0 24 24" enable-background="new 0 0 24 24" xml:space="preserve">
<path fill="#B5B5B6" d="M22.147,18.615c0,0-0.089,0.187-0.285,0.109c-0.155-0.062-0.103-0.26-0.103-0.26s0.632-1.587,0.102-2.872
	c0,0-0.489-1.766-3.501-2.563c0,0-0.004,6.956-0.015,7.01c-0.011,1.027-0.862,2.105-2.171,2.617
	c-1.598,0.624-3.271,0.168-3.737-1.021c-0.465-1.189,0.427-2.731,2.051-3.285c1.004-0.343,1.953-0.226,2.634,0.07l-0.013-8.253
	c-0.001-0.385,0.349-0.61,0.644-0.612c0.295-0.001,0.599,0.272,0.599,0.618v0.145c0,0.289,0.302,0.959,1.722,1.841
	c0,0,1.893,0.998,2.422,2.806C22.498,14.965,23.085,16.578,22.147,18.615z"/>
<path fill="#B5B5B6" d="M11.412,19.507c0.495-1.067,1.471-1.915,2.677-2.327c0.536-0.183,1.09-0.276,1.645-0.276
	c0.05,0,0.1,0.001,0.15,0.002l-0.006-4.223c-0.775-0.038-1.054-0.938-1.054-0.938c-0.644-0.621-0.122-1.563-0.122-1.563
	c0.471-0.05,0.893-0.769,0.893-0.769c-0.125-0.397,0.883-0.357,0.545-0.989c0,0-1.018-0.318,0.173-0.868c0,0,0.472-0.253,0.1-0.402
	c0,0,0.224-0.596-0.396-0.471c0,0-0.958,0-0.281-0.647c0,0,0.015-0.338,0.408-0.389c0.795,0.759,1.437,1.676,1.877,2.7
	c0.876,0.138,1.567,0.911,1.571,1.82c0.045,0.067,0.151,0.198,0.359,0.38c-0.501-4.761-4.539-8.484-9.431-8.484
	c-5.229,0-9.484,4.254-9.484,9.484c0,5.23,4.255,9.484,9.484,9.484c0.189,0,0.376-0.007,0.563-0.018
	C11.076,20.512,11.184,20,11.412,19.507z M5.197,11.113c0,0-0.77,0.14-0.993-0.456c-0.223-0.595,0.055-0.412-0.568-0.635
	C3.013,9.8,3.857,9.532,3.361,9.234C3.036,9.039,2.881,9.179,2.75,9.055c1.055-3.286,4.138-5.67,7.77-5.67
	c1.559,0,3.012,0.447,4.252,1.209c-0.473,0.597-1.158,0.432-1.158,0.432c-0.397-0.004-0.703,0.293-0.703,0.293
	C12.067,5.567,12.439,4.6,12.439,4.6c0.472-0.472-0.518-0.719-0.518-0.719c-0.644,0.322-1.01-0.05-1.01-0.05
	c-0.244-0.447-0.552-0.099-0.552-0.099c-0.446,0.472,0.1,0.528,0.1,0.528c0.52,0.153,0.447,0.694,0.447,0.694
	c0.074,0.968-0.472,0.539-0.398,1.109c0,0,0.943,0.224,0.497,0.869c0,0-0.175,0.471-0.571,0c0,0-0.521-0.596-0.398-0.025
	c0,0,0.448,0.322-0.422,0.496c0,0-0.648-0.198-0.882,0.57c0,0-0.058,0.348-0.755,0.696c0,0-0.397,0.024-0.347,0.545
	c0,0-0.05,0.669-0.621,0.645c0,0-0.322,0.021-0.348-0.624c0,0-0.198-0.8-1.537,0.268c0,0-0.572,0.584,0.173,1.032
	c0,0,0.372,0.202,0.644-0.021c0,0,0.82-0.297,0.224,0.323c0,0,1.105,0.504,0.034,0.504c0,0,0.001,0,0.002,0
	c-0.002,0-0.003,0.164-0.005,0.164C5.124,11.405,6.064,10.821,5.197,11.113z M9.717,18.07c-0.292,0.452-0.003,1.231,0.167,1.605
	c-0.295-0.023-0.587-0.06-0.873-0.113c-0.057-0.04-0.111-0.077-0.175-0.127c-0.929-0.722-0.485-2.971-0.485-2.971
	c0.213-0.971-0.212-1.305-0.212-1.305c-1.91-0.97-1.091-2.031-1.091-2.031c0.606-0.819-0.213-1.032-0.213-1.032
	c-0.238-0.056-0.461-0.242-0.634-0.426c0.499,0.248,1.362,0.062,1.362,0.062c1.184-0.757,1.972,0.394,1.972,0.394
	c0.698,0.062,1.124,0.789,1.124,0.789c0.275,0.485,1.393,0.576,1.393,0.576c0.789,0.333,0.212,0.879,0.212,0.879
	c-0.302,0.031-0.363,0.607-0.363,0.607c0.637,0.546-0.88,1.395-0.88,1.395C11.142,17.281,9.717,18.07,9.717,18.07z"/>
</svg>
