<?xml version="1.0" encoding="UTF-8"?>
<svg width="200px" height="200px" viewBox="0 0 200 200" version="1.1" xmlns="http://www.w3.org/2000/svg" xmlns:xlink="http://www.w3.org/1999/xlink">
    <!-- Generator: Sketch 46.2 (44496) - http://www.bohemiancoding.com/sketch -->
    <title>cover_max</title>
    <desc>Created with Sketch.</desc>
    <defs>
        <rect id="path-1" x="0" y="0" width="200" height="200" rx="4"></rect>
        <filter x="-4.0%" y="-3.0%" width="108.0%" height="108.0%" filterUnits="objectBoundingBox" id="filter-2">
            <feMorphology radius="1" operator="dilate" in="SourceAlpha" result="shadowSpreadOuter1"></feMorphology>
            <feOffset dx="0" dy="2" in="shadowSpreadOuter1" result="shadowOffsetOuter1"></feOffset>
            <feGaussianBlur stdDeviation="2" in="shadowOffsetOuter1" result="shadowBlurOuter1"></feGaussianBlur>
            <feComposite in="shadowBlurOuter1" in2="SourceAlpha" operator="out" result="shadowBlurOuter1"></feComposite>
            <feColorMatrix values="0 0 0 0 0   0 0 0 0 0   0 0 0 0 0  0 0 0 0.1 0" type="matrix" in="shadowBlurOuter1"></feColorMatrix>
        </filter>
        <path d="M82.9541109,68.0430098 C82.8894459,63.0927652 86.7806995,58.3001892 91.6689858,57.3338426 L127.790434,50.193132 C134.291064,48.9080474 139.59105,53.2323266 139.628399,59.8722547 L140,125.935974 C140,125.935974 140,136.738372 127.885326,139.189194 C115.770652,141.640015 112.922874,136.13517 111.849668,132.670718 C110.776462,129.206267 110.477462,124.981073 113.504917,121.012224 C116.532371,117.043375 121.57547,116.127515 123.802702,115.623461 C126.029935,115.119407 131.560034,115.00229 132.909346,113.004737 C134.258659,111.007185 134.109506,106.85938 134.109506,106.85938 L133.989785,77.4757102 C133.979661,74.9907538 131.994364,73.3625313 129.554105,73.8392465 L93.3883675,80.9043789 C90.9487334,81.3809719 88.9777477,83.7833901 88.9856336,86.2716376 C88.9856336,86.2716376 89.1293365,127.119187 88.9932188,131.435981 C88.857101,135.752775 88.4722246,138.337934 87.0750447,141.895667 C85.6778647,145.453399 83.9584453,146.812852 80.9368876,148.400672 C77.9153298,149.988491 70.7618932,150.498064 67.1822265,149.454725 C63.6025599,148.411385 60,144.604907 60,139.189194 C60,133.77348 61.8600259,131.514359 63.8722836,129.793164 C66.8118423,127.278798 72.3252335,125.819582 76.2971956,125.176614 C79.3610711,124.680644 81.9934442,125.176614 82.8370246,121.012224 C83.6806049,116.847835 82.9541109,68.0430098 82.9541109,68.0430098 Z" id="path-3"></path>
    </defs>
    <g id="Page-1" stroke="none" stroke-width="1" fill="none" fill-rule="evenodd">
        <g id="cover_max">
            <g id="Group-7">
                <g id="Group-22">
                    <g id="Rectangle-90">
                        <use fill="black" fill-opacity="1" filter="url(#filter-2)" xlink:href="#path-1"></use>
                        <use fill="#FFFFFF" fill-rule="evenodd" xlink:href="#path-1"></use>
                        <rect stroke-opacity="0.1" stroke="#000000" stroke-width="1" x="-0.5" y="-0.5" width="201" height="201" rx="4"></rect>
                    </g>
                    <g id="Path-21">
                        <use fill="#92DE00" fill-rule="evenodd" xlink:href="#path-3"></use>
                        <path stroke-opacity="0.5" stroke="#05C208" stroke-width="2.5" d="M84.2040042,68.0266825 L84.2039724,68.0244047 C84.2062491,68.1773515 84.2105137,68.4713712 84.2164822,68.8949102 C84.2264271,69.6006279 84.2375078,70.4127546 84.2494405,71.3197374 C84.2835319,73.9109667 84.3176225,76.742956 84.3494406,79.7232941 C84.4044962,84.8802378 84.4468295,89.9278872 84.4714242,94.6623808 C84.5503841,109.862232 84.4444372,119.373167 84.0621412,121.260396 C83.340522,124.822716 81.7523797,125.798308 78.0023526,126.21881 C77.1492787,126.314467 76.906323,126.344282 76.4969413,126.410551 C71.5798079,127.20652 67.0097405,128.754418 64.6847935,130.743074 C62.2954607,132.786802 61.25,134.912472 61.25,139.189194 C61.25,143.59686 64.0396188,147.236759 67.5320011,148.254659 C70.8457457,149.220492 77.6593323,148.710933 80.3554142,147.294151 C83.5091646,145.636865 84.7509911,144.39395 85.9115496,141.438743 C87.1864772,138.19231 87.6041544,135.826519 87.7438397,131.396585 C87.7998283,129.62098 87.8128837,121.464125 87.7934688,109.039741 C87.7876824,105.336789 87.779198,101.400343 87.7687259,97.3601881 C87.7614885,94.568014 87.7537341,91.8913705 87.7459798,89.4247219 C87.7432658,88.561405 87.7407457,87.7860081 87.7384841,87.1103386 C87.736158,86.4228918 87.736158,86.4228918 87.7356399,86.2755991 C87.7258552,83.1882097 90.1204543,80.2691511 93.148705,79.6775693 L129.314442,72.6124369 C132.524311,71.9853753 135.226453,74.2009153 135.239775,77.4706172 L135.358698,106.81446 C135.359641,106.841353 135.359641,106.841353 135.361718,106.932553 C135.369115,107.31571 135.363141,107.796775 135.333904,108.341178 C135.290768,109.144402 135.203755,109.938068 135.061041,110.690424 C134.832307,111.896267 134.477969,112.915661 133.945175,113.704422 C133.019523,115.074778 131.193273,115.73669 128.240568,116.220797 C127.784952,116.295497 127.318813,116.363359 126.728107,116.443203 C126.671428,116.450864 125.639194,116.587947 125.367221,116.625928 C124.781591,116.707711 124.380077,116.774405 124.078617,116.842629 C124.036521,116.852156 123.218968,117.033101 122.94602,117.096132 C122.460271,117.208304 122.026956,117.317089 121.594884,117.438079 C120.491612,117.747021 119.485378,118.112744 118.542255,118.571389 C116.889374,119.375192 115.528197,120.420821 114.498775,121.770344 C112.117508,124.892072 111.821722,128.356164 113.04369,132.300838 C114.644161,137.467371 118.369023,139.839037 127.637469,137.964013 C132.006513,137.080147 134.946094,135.02395 136.770394,132.139631 C137.635776,130.771413 138.194653,129.29872 138.50524,127.825554 C138.6136,127.311583 138.682945,126.83649 138.721116,126.414036 C138.743087,126.170868 138.75,126.006925 138.75002,125.943005 L138.378419,59.8792857 C138.345502,54.0272866 133.766646,50.2859084 128.03285,51.4194005 L91.9114021,58.5601111 C87.6175968,59.408937 84.1471779,63.6765074 84.2040042,68.0266825 Z"></path>
                    </g>
                </g>
            </g>
        </g>
    </g>
</svg>