<?xml version="1.0" encoding="UTF-8"?>
<svg width="64px" height="64px" viewBox="0 0 64 64" version="1.1" xmlns="http://www.w3.org/2000/svg" xmlns:xlink="http://www.w3.org/1999/xlink">
    <!-- Generator: Sketch 46.2 (44496) - http://www.bohemiancoding.com/sketch -->
    <title>del_notify</title>
    <desc>Created with Sketch.</desc>
    <defs>
        <linearGradient x1="50%" y1="0%" x2="50%" y2="100%" id="linearGradient-1">
            <stop stop-color="#75F100" offset="0%"></stop>
            <stop stop-color="#30DF00" offset="100%"></stop>
        </linearGradient>
        <rect id="path-2" x="0.5" y="0.5" width="54" height="54" rx="27"></rect>
        <filter x="-13.0%" y="-9.3%" width="125.9%" height="125.9%" filterUnits="objectBoundingBox" id="filter-3">
            <feOffset dx="0" dy="2" in="SourceAlpha" result="shadowOffsetOuter1"></feOffset>
            <feGaussianBlur stdDeviation="2" in="shadowOffsetOuter1" result="shadowBlurOuter1"></feGaussianBlur>
            <feComposite in="shadowBlurOuter1" in2="SourceAlpha" operator="out" result="shadowBlurOuter1"></feComposite>
            <feColorMatrix values="0 0 0 0 0   0 0 0 0 0   0 0 0 0 0  0 0 0 0.1 0" type="matrix" in="shadowBlurOuter1"></feColorMatrix>
        </filter>
        <filter x="-9.3%" y="-5.6%" width="118.5%" height="118.5%" filterUnits="objectBoundingBox" id="filter-4">
            <feOffset dx="0" dy="2" in="SourceAlpha" result="shadowOffsetInner1"></feOffset>
            <feComposite in="shadowOffsetInner1" in2="SourceAlpha" operator="arithmetic" k2="-1" k3="1" result="shadowInnerInner1"></feComposite>
            <feColorMatrix values="0 0 0 0 1   0 0 0 0 1   0 0 0 0 1  0 0 0 0.2 0" type="matrix" in="shadowInnerInner1"></feColorMatrix>
        </filter>
    </defs>
    <g id="Page-1" stroke="none" stroke-width="1" fill="none" fill-rule="evenodd">
        <g id="del_notify">
            <g id="Group" transform="translate(5.000000, 5.000000)">
                <g id="Oblina-">
                    <use fill="black" fill-opacity="1" filter="url(#filter-3)" xlink:href="#path-2"></use>
                    <use fill="url(#linearGradient-1)" fill-rule="evenodd" xlink:href="#path-2"></use>
                    <use fill="black" fill-opacity="1" filter="url(#filter-4)" xlink:href="#path-2"></use>
                    <rect stroke-opacity="0.1" stroke="#000000" stroke-width="1" x="1" y="1" width="53" height="53" rx="26.5"></rect>
                </g>
                <g id="Page-1" transform="translate(16.000000, 16.000000)">
                    <polygon id="Stroke-1" stroke-opacity="0.00784313771" stroke="#000000" stroke-width="1.33333335e-11" points="0 0 23.9999985 0 23.9999985 23.9999985 0 23.9999985"></polygon>
                    <path d="M15.7142847,3.99999982 L0.28571435,3.99999982 L0.28571435,6.57142822 L15.7142847,6.57142822 L15.7142847,3.99999982 L15.7142847,3.99999982 Z M15.7142847,9.14285662 L0.28571435,9.14285662 L0.28571435,11.714285 L15.7142847,11.714285 L15.7142847,9.14285662 L15.7142847,9.14285662 Z M0.28571435,16.8571418 L10.5714279,16.8571418 L10.5714279,14.2857134 L0.28571435,14.2857134 L0.28571435,16.8571418 L0.28571435,16.8571418 Z M18.2857131,3.99999982 L18.2857131,14.5171424 C17.8871424,14.3757142 17.4499993,14.2857134 16.9999989,14.2857134 C14.8657135,14.2857134 13.1428563,16.0085706 13.1428563,18.142856 C13.1428563,20.2771413 14.8657135,21.9999986 16.9999989,21.9999986 C19.1342843,21.9999986 20.8571415,20.2771413 20.8571415,18.142856 L20.8571415,6.57142822 L24.7142841,6.57142822 L24.7142841,3.99999982 L18.2857131,3.99999982 L18.2857131,3.99999982 Z" id="Fill-2" fill="#FFFFFF"></path>
                </g>
            </g>
        </g>
    </g>
</svg>