<?xml version="1.0" encoding="UTF-8"?>
<svg width="24px" height="24px" viewBox="0 0 24 24" version="1.1" xmlns="http://www.w3.org/2000/svg" xmlns:xlink="http://www.w3.org/1999/xlink">
    <!-- Generator: Sketch 46.2 (44496) - http://www.bohemiancoding.com/sketch -->
    <title>unfav_normal</title>
    <desc>Created with Sketch.</desc>
    <defs></defs>
    <g id="Page-1" stroke="none" stroke-width="1" fill="none" fill-rule="evenodd">
        <g id="unfav_normal" fill="#F13D5B">
            <path d="M15.7,5 C14.2,5 12.9,5.7 12,7 C11.1,5.7 9.7,5 8.3,5 C6.2,5 4,6.6 4,9.5 C4,12.5 6.5,14.3 8.7,15.9 C10,16.8 11.2,17.7 11.6,18.6 C11.7,18.8 11.9,18.9 12.1,18.9 C12.3,18.9 12.5,18.8 12.6,18.6 C13,17.7 14.2,16.8 15.5,15.9 C17.7,14.3 20.2,12.5 20.2,9.5 C20,6.6 17.9,5 15.7,5 L15.7,5 Z" id="path211"></path>
        </g>
    </g>
</svg>