<?xml version="1.0" encoding="UTF-8"?>
<svg width="24px" height="24px" viewBox="0 0 24 24" version="1.1" xmlns="http://www.w3.org/2000/svg" xmlns:xlink="http://www.w3.org/1999/xlink">
    <!-- Generator: Sketch 46.2 (44496) - http://www.bohemiancoding.com/sketch -->
    <title>volume_mute_press</title>
    <desc>Created with Sketch.</desc>
    <defs></defs>
    <g id="Page-1" stroke="none" stroke-width="1" fill="none" fill-rule="evenodd">
        <g id="volume_mute_press" fill-rule="nonzero" fill="#2CA7F8">
            <path d="M17,12.7092281 L19.1453859,14.8546141 C19.3412339,15.050462 19.6587661,15.050462 19.8546141,14.8546141 C20.050462,14.6587661 20.050462,14.3412339 19.8546141,14.1453859 L17.7092281,12 L19.8546141,9.85461405 C20.050462,9.65876612 20.050462,9.34123388 19.8546141,9.14538595 C19.6587661,8.94953802 19.3412339,8.94953802 19.1453859,9.14538595 L17,11.2907719 L14.8546141,9.14538595 C14.6587661,8.94953802 14.3412339,8.94953802 14.1453859,9.14538595 C13.949538,9.34123388 13.949538,9.65876612 14.1453859,9.85461405 L16.2907719,12 L14.1453859,14.1453859 C13.949538,14.3412339 13.949538,14.6587661 14.1453859,14.8546141 C14.3412339,15.050462 14.6587661,15.050462 14.8546141,14.8546141 L17,12.7092281 Z M5,15.31579 L5,8.68421072 C5,8.40806835 5.22385763,8.18421072 5.5,8.18421072 L9,8.18421072 L8.63750027,8.339836 L12.1375003,4.65562528 C12.4485803,4.3281726 13,4.54834079 13,5 L13,19 C13,19.4516592 12.4485803,19.6718274 12.1375003,19.3443748 L8.63750031,15.6601648 L9,15.81579 L5.5,15.81579 C5.22385763,15.81579 5,15.5919324 5,15.31579 Z M5.5,9.18421072 L6,8.68421072 L6,15.31579 L5.5,14.81579 L9,14.81579 C9.13705558,14.81579 9.26810273,14.87205 9.36249969,14.9714152 L12.8624997,18.6556252 L12,19 L12,5 L12.8624997,5.34437472 L9.36249973,9.02858544 C9.26810276,9.12795068 9.1370556,9.18421072 9,9.18421072 L5.5,9.18421072 Z" id="Combined-Shape"></path>
        </g>
    </g>
</svg>