<?xml version="1.0" encoding="UTF-8"?>
<svg width="36px" height="36px" viewBox="0 0 36 36" version="1.1" xmlns="http://www.w3.org/2000/svg" xmlns:xlink="http://www.w3.org/1999/xlink">
    <!-- Generator: Sketch 58 (84663) - https://sketch.com -->
    <title>last_normal</title>
    <desc>Created with Sketch.</desc>
    <g id="页面-1" stroke="none" stroke-width="1" fill="none" fill-rule="evenodd">
        <g id="按钮规范" transform="translate(-521.000000, -326.000000)">
            <g id="编组备份-5" transform="translate(519.000000, 319.000000)">
                <g id="last_normal" transform="translate(0.000000, 5.000000)">
                    <polygon id="rect1141-5备份" stroke="#FFFFFF" fill="#000000" opacity="0" points="-9.47390314e-14 0 40 0 40 40 -9.47390314e-14 40"></polygon>
                    <path d="M16.43555,14.70081 L16.43555,25.70081 L15.43555,25.70081 L15.43555,14.70081 L16.43555,14.70081 Z M26.4317345,16.6442014 L26.4355,16.8063405 L26.4355,23.5952795 C26.4355,25.1933811 25.3651021,25.8482726 24.017353,25.1101408 L23.8769739,25.0287947 L18.5351614,21.7643537 C17.1665175,20.9279602 17.1234949,19.5998413 18.3891486,18.7317763 L18.5351614,18.6372663 L23.8769739,15.3728253 C25.2489972,14.5343666 26.3592426,15.1097479 26.4317345,16.6442014 Z M24.6724263,16.0645037 L24.5797946,16.1152695 L18.742204,19.682686 C18.3096259,19.9470393 18.2766014,20.3693493 18.6510683,20.6585736 L18.7447209,20.7228228 L24.5995973,24.2987509 C25.0356812,24.5650938 25.3994367,24.3960183 25.4449077,23.9211765 L25.4496901,23.8147918 L25.4322326,16.600468 C25.4309684,16.0780133 25.0984353,15.8582381 24.6724263,16.0645037 Z" id="Combined-Shape" fill="#FFFFFF"></path>
                </g>
            </g>
        </g>
    </g>
</svg>