<?xml version="1.0" encoding="UTF-8"?>
<svg width="36px" height="36px" viewBox="0 0 36 36" version="1.1" xmlns="http://www.w3.org/2000/svg" xmlns:xlink="http://www.w3.org/1999/xlink">
    <!-- Generator: Sketch 58 (84663) - https://sketch.com -->
    <title>lyric_hover</title>
    <desc>Created with Sketch.</desc>
    <g id="页面-1" stroke="none" stroke-width="1" fill="none" fill-rule="evenodd">
        <g id="按钮规范" transform="translate(-769.000000, -326.000000)" fill="#FFFFFF">
            <g id="lyric_normal备份" transform="translate(762.000000, 319.000000)">
                <g id="编组-9" transform="translate(7.000000, 7.000000)">
                    <path d="M9.0964,12.20081 L9.0964,21.20081 L13.0964,21.20081 L13.0964,22.20081 L8.0964,22.20081 L8.0964,12.20081 L9.0964,12.20081 Z M14.0964,12.20081 L17.0964,12.20081 C18.7964,12.20081 20.0964,13.50081 20.0964,15.20081 C20.0964,16.5371736 19.2763587,17.6001902 18.0711464,18.0419633 L17.8964,18.10081 L20.5964,22.20081 L19.4964,22.20081 L16.8964,18.20081 L15.0964,18.20081 L15.0964,22.20081 L14.0964,22.20081 L14.0964,12.20081 L17.0964,12.20081 Z M24.9964,12.10081 C25.6964,12.10081 26.3964,12.30081 26.8964,12.60081 C27.3464,12.87081 27.7154,13.38381 28.0034,13.99401 L28.0964,14.20081 L27.2964,14.50081 C27.0964,13.90081 26.7964,13.70081 26.3964,13.40081 C26.0964,13.10081 25.5964,13.00081 24.9964,13.00081 C23.9964,13.00081 23.3964,13.30081 22.8964,14.00081 C22.3964,14.80081 22.0964,15.80081 22.0964,17.10081 C22.0964,18.40081 22.3964,19.40081 22.8964,20.20081 C23.3964,21.00081 23.9964,21.20081 24.8964,21.20081 C25.5964,21.20081 26.0964,21.00081 26.4964,20.70081 C26.8519556,20.4341433 27.0494864,20.1674767 27.229459,19.6901104 L27.2964,19.50081 L28.1964,19.70081 C27.5964,21.20081 26.4964,22.00081 24.8964,22.00081 C23.7964,22.00081 22.8964,21.60081 22.1964,20.70081 C21.4964,19.80081 21.1964,18.60081 21.1964,17.00081 C21.1964,15.50081 21.4964,14.30081 22.1964,13.40081 C22.8964,12.50081 23.7964,12.10081 24.9964,12.10081 Z M17.0964,13.20081 L15.0964,13.20081 L15.0964,17.20081 L17.0964,17.20081 C18.1964,17.20081 19.0964,16.30081 19.0964,15.20081 C19.0964,14.10081 18.1964,13.20081 17.0964,13.20081 L17.0964,13.20081 Z" id="Combined-Shape"></path>
                </g>
            </g>
        </g>
    </g>
</svg>