<?xml version="1.0" encoding="UTF-8"?>
<svg width="18px" height="18px" viewBox="0 0 18 18" version="1.1" xmlns="http://www.w3.org/2000/svg" xmlns:xlink="http://www.w3.org/1999/xlink">
    <!-- Generator: Sketch 58 (84663) - https://sketch.com -->
    <title>clear list_normal</title>
    <desc>Created with Sketch.</desc>
    <g id="页面-1" stroke="none" stroke-width="1" fill="none" fill-rule="evenodd">
        <g id="按钮规范" transform="translate(-303.000000, -216.000000)" fill="#FFFFFF" fill-rule="nonzero">
            <g id="button-playall备份-3" transform="translate(295.000000, 211.000000)">
                <g id="clear-list_normal" transform="translate(8.000000, 5.000000)">
                    <g id="iconmonstr-trash-can-13" transform="translate(2.000000, 1.000000)">
                        <path d="M1,6 L1,14 C1,15.1045695 1.8954305,16 3,16 L10,16 C11.1045695,16 12,15.1045695 12,14 L12,6 C12,5.44771525 11.5522847,5 11,5 L2,5 C1.44771525,5 1,5.44771525 1,6 Z M4,14 L3,14 L3,7 L4,7 L4,14 Z M7,14 L6,14 L6,7 L7,7 L7,14 Z M10,14 L9,14 L9,7 L10,7 L10,14 Z M13.8902148,3.35191257 L13.5630148,4.83907648 L0.314201384,1.9788884 L0.641401384,0.491724497 L3.7496,1.23423971 C4.4544,1.37475315 5.2056,0.670666869 5.3528,0 L9.516,0.824851891 C9.3688,1.49475923 9.7616,2.42518609 10.4672,2.56494 L13.8902148,3.35191257 Z" id="Shape"></path>
                    </g>
                </g>
            </g>
        </g>
    </g>
</svg>