<?xml version="1.0" encoding="UTF-8"?>
<svg width="36px" height="36px" viewBox="0 0 36 36" version="1.1" xmlns="http://www.w3.org/2000/svg" xmlns:xlink="http://www.w3.org/1999/xlink">
    <!-- Generator: Sketch 56.2 (81672) - https://sketch.com -->
    <title>text list_normal</title>
    <desc>Created with Sketch.</desc>
    <g id="页面-1" stroke="none" stroke-width="1" fill="none" fill-rule="evenodd">
        <g id="按钮规范" transform="translate(-503.000000, -208.000000)" fill="#626E88" fill-rule="nonzero">
            <g id="text-list_normal" transform="translate(503.000000, 208.000000)">
                <path d="M23.5,23 L12.5,23 L12,23 L12,22 L12.5,22 L23.5,22 L24,22 L24,23 L23.5,23 Z M23.5,20 L12.5,20 L12,20 L12,19 L12.5,19 L23.5,19 L24,19 L24,20 L23.5,20 Z M23.5,17 L12.5,17 L12,17 L12,16 L12.5,16 L23.5,16 L24,16 L24,17 L23.5,17 Z M23.5,14 L12.5,14 L12,14 L12,13 L12.5,13 L23.5,13 L24,13 L24,14 L23.5,14 Z" id="列表视图-2"></path>
            </g>
        </g>
    </g>
</svg>