<?xml version="1.0" encoding="UTF-8"?>
<svg width="36px" height="36px" viewBox="0 0 36 36" version="1.1" xmlns="http://www.w3.org/2000/svg" xmlns:xlink="http://www.w3.org/1999/xlink">
    <!-- Generator: Sketch 58 (84663) - https://sketch.com -->
    <title>volume_normal 1</title>
    <desc>Created with Sketch.</desc>
    <g id="页面-1" stroke="none" stroke-width="1" fill="none" fill-rule="evenodd">
        <g id="按钮规范" transform="translate(-1115.000000, -239.000000)" fill="#000000" fill-rule="nonzero">
            <g id="编组-13" transform="translate(1115.000000, 239.000000)">
                <path d="M18,12.046 L18,23.046 C18,23.4914524 17.461429,23.7145358 17.1464466,23.3995534 L15.1715729,21.4246797 C14.6089637,20.8620705 13.845902,20.546 13.0502525,20.546 L11,20.546 C9.8954305,20.546 9,19.6505695 9,18.546 L9,16.546 C9,15.4414305 9.8954305,14.546 11,14.546 L13.0502525,14.546 C13.845902,14.546 14.6089637,14.2299295 15.1715729,13.6673203 L17.1464466,11.6924466 C17.461429,11.3774642 18,11.6005476 18,12.046 Z M20.514,13.664 C20.7901424,13.664 21.014,13.8878576 21.014,14.164 L21.014,20.928 C21.014,21.2041424 20.7901424,21.428 20.514,21.428 C20.2378576,21.428 20.014,21.2041424 20.014,20.928 L20.014,14.164 C20.014,13.8878576 20.2378576,13.664 20.514,13.664 Z" id="Combined-Shape"></path>
            </g>
        </g>
    </g>
</svg>