<?xml version="1.0" encoding="UTF-8"?>
<svg width="37px" height="37px" viewBox="0 0 37 37" version="1.1" xmlns="http://www.w3.org/2000/svg" xmlns:xlink="http://www.w3.org/1999/xlink">
    <!-- Generator: Sketch 58 (84663) - https://sketch.com -->
    <title>add_hover</title>
    <desc>Created with Sketch.</desc>
    <defs>
        <linearGradient x1="50%" y1="0%" x2="50%" y2="95.6533653%" id="linearGradient-1">
            <stop stop-color="#727272" offset="0%"></stop>
            <stop stop-color="#535353" offset="100%"></stop>
        </linearGradient>
        <circle id="path-2" cx="18.5000013" cy="16.5000013" r="10.5"></circle>
        <filter x="-33.3%" y="-23.8%" width="166.7%" height="166.7%" filterUnits="objectBoundingBox" id="filter-3">
            <feOffset dx="0" dy="2" in="SourceAlpha" result="shadowOffsetOuter1"></feOffset>
            <feGaussianBlur stdDeviation="2" in="shadowOffsetOuter1" result="shadowBlurOuter1"></feGaussianBlur>
            <feComposite in="shadowBlurOuter1" in2="SourceAlpha" operator="out" result="shadowBlurOuter1"></feComposite>
            <feColorMatrix values="0 0 0 0 0   0 0 0 0 0   0 0 0 0 0  0 0 0 0.05 0" type="matrix" in="shadowBlurOuter1"></feColorMatrix>
        </filter>
    </defs>
    <g id="页面-1" stroke="none" stroke-width="1" fill="none" fill-rule="evenodd">
        <g id="按钮规范" transform="translate(-574.000000, -409.000000)">
            <g id="add_normal备份" transform="translate(574.000000, 409.000000)">
                <g id="清除备份">
                    <use fill="black" fill-opacity="1" filter="url(#filter-3)" xlink:href="#path-2"></use>
                    <use fill-opacity="0.08" fill="#000000" fill-rule="evenodd" xlink:href="#path-2"></use>
                    <circle stroke-opacity="0.03" stroke="#FFFFFF" stroke-width="1" stroke-linejoin="square" fill="url(#linearGradient-1)" fill-rule="evenodd" cx="18.5000013" cy="16.5000013" r="10"></circle>
                </g>
                <path d="M18.9744192,16.0255808 L22.5255808,16.0255808 C22.7875953,16.0255808 23,16.2379855 23,16.5 C23,16.7620145 22.7875953,16.9744192 22.5255808,16.9744192 L18.9744192,16.9744192 L18.9744192,20.5255808 C18.9744192,20.7875953 18.7620145,21 18.5,21 C18.2379855,21 18.0255808,20.7875953 18.0255808,20.5255808 L18.0255808,16.9744192 L14.4744192,16.9744192 C14.2124047,16.9744192 14,16.7620145 14,16.5 C14,16.2379855 14.2124047,16.0255808 14.4744192,16.0255808 L18.0255808,16.0255808 L18.0255808,12.4744192 C18.0255808,12.2124047 18.2379855,12 18.5,12 C18.7620145,12 18.9744192,12.2124047 18.9744192,12.4744192 L18.9744192,16.0255808 L18.9744192,16.0255808 Z" id="路径" fill="#FFFFFF"></path>
            </g>
        </g>
    </g>
</svg>