<?xml version="1.0" encoding="UTF-8"?>
<svg width="36px" height="36px" viewBox="0 0 36 36" version="1.1" xmlns="http://www.w3.org/2000/svg" xmlns:xlink="http://www.w3.org/1999/xlink">
    <!-- Generator: Sketch 58 (84663) - https://sketch.com -->
    <title>cross-cycling_hover</title>
    <desc>Created with Sketch.</desc>
    <g id="页面-1" stroke="none" stroke-width="1" fill="none" fill-rule="evenodd">
        <g id="按钮规范" transform="translate(-855.000000, -326.000000)" fill="#FFFFFF">
            <g id="cross-cycling_normal备份" transform="translate(848.000000, 319.000000)">
                <g id="编组-10" transform="translate(7.000000, 7.000000)">
                    <path d="M18.9494592,19.6328192 C20.1486978,21.1591229 21.2992668,21.8753544 23.0952634,21.9373128 L23.3563,21.94173 L23.3563,19.94173 L26.3563,22.44173 L23.3563,24.94173 L23.3563,22.94173 C21.1631105,22.94173 19.7185491,22.1431329 18.3423177,20.4733809 L18.1631408,20.2506408 L18.9494592,19.6328192 Z M23.3563,10.94173 L26.3563,13.44173 L23.3563,15.94173 L23.3563,13.94173 C20.7858868,13.94173 19.7201171,14.9001675 18.0526172,17.8778691 C17.9665633,18.0316453 17.9665633,18.0316453 17.8798463,18.1864004 C16.0113822,21.5163365 14.4762424,22.8662107 11.1461793,22.9386343 L10.8563,22.94173 L10.8563,21.94173 C13.9446411,21.94173 15.2441609,20.8400963 17.0077537,17.6970596 C17.0938349,17.543439 17.0938349,17.543439 17.1801096,17.3892687 C18.95303,14.2233146 20.2471841,13.01327 23.0932363,12.9448296 L23.3563,12.94173 L23.3563,10.94173 Z M10.8563,12.94173 C13.3424453,12.94173 14.5586162,13.6594702 16.2359283,15.6163343 L16.2359283,15.6163343 L15.4766717,16.2671257 C13.9719932,14.5116675 13.0062658,13.94173 10.8563,13.94173 L10.8563,13.94173 Z" id="Combined-Shape"></path>
                </g>
            </g>
        </g>
    </g>
</svg>