<?xml version="1.0" encoding="UTF-8"?>
<svg width="48px" height="48px" viewBox="0 0 48 48" version="1.1" xmlns="http://www.w3.org/2000/svg" xmlns:xlink="http://www.w3.org/1999/xlink">
    <!-- Generator: Sketch 46.2 (44496) - http://www.bohemiancoding.com/sketch -->
    <title>playlist</title>
    <desc>Created with Sketch.</desc>
    <defs>
        <rect id="path-1" x="0" y="0" width="40" height="44" rx="2"></rect>
    </defs>
    <g id="Page-1" stroke="none" stroke-width="1" fill="none" fill-rule="evenodd">
        <g id="playlist">
            <g id="小图" transform="translate(4.000000, 2.000000)">
                <mask id="mask-2" fill="white">
                    <use xlink:href="#path-1"></use>
                </mask>
                <g id="Rectangle-44">
                    <use fill-opacity="0.4" fill="#FFFFFF" fill-rule="evenodd" xlink:href="#path-1"></use>
                    <rect stroke-opacity="0.05" stroke="#000000" stroke-width="1" x="0.5" y="0.5" width="39" height="43" rx="2"></rect>
                </g>
                <g id="Page-1" mask="url(#mask-2)">
                    <g transform="translate(7.000000, 10.000000)">
                        <polygon id="Stroke-1" stroke-opacity="0.00784313771" stroke="#000000" stroke-width="1.33333335e-11" fill="none" points="0 0 23.9999985 0 23.9999985 23.9999985 0 23.9999985"></polygon>
                        <path d="M14.9999991,5.99999964 L2.99999982,5.99999964 L2.99999982,7.99999952 L14.9999991,7.99999952 L14.9999991,5.99999964 L14.9999991,5.99999964 Z M14.9999991,9.9999994 L2.99999982,9.9999994 L2.99999982,11.9999993 L14.9999991,11.9999993 L14.9999991,9.9999994 L14.9999991,9.9999994 Z M2.99999982,15.999999 L10.9999993,15.999999 L10.9999993,13.9999992 L2.99999982,13.9999992 L2.99999982,15.999999 L2.99999982,15.999999 Z M16.999999,5.99999964 L16.999999,14.1799994 C16.6899995,14.0699998 16.3499993,13.9999992 15.999999,13.9999992 C14.3399992,13.9999992 12.9999992,15.3399992 12.9999992,16.999999 C12.9999992,18.6599987 14.3399992,19.9999988 15.999999,19.9999988 C17.6599987,19.9999988 18.9999989,18.6599987 18.9999989,16.999999 L18.9999989,7.99999952 L21.9999987,7.99999952 L21.9999987,5.99999964 L16.999999,5.99999964 L16.999999,5.99999964 Z" id="Fill-2" stroke="none" fill="#707070" fill-rule="evenodd"></path>
                    </g>
                </g>
            </g>
        </g>
    </g>
</svg>