<?xml version="1.0" encoding="UTF-8"?>
<svg width="36px" height="36px" viewBox="0 0 36 36" version="1.1" xmlns="http://www.w3.org/2000/svg" xmlns:xlink="http://www.w3.org/1999/xlink">
    <!-- Generator: Sketch 58 (84663) - https://sketch.com -->
    <title>next_disabled</title>
    <desc>Created with Sketch.</desc>
    <g id="页面-1" stroke="none" stroke-width="1" fill="none" fill-rule="evenodd">
        <g id="按钮规范" transform="translate(-112.000000, -994.000000)">
            <g id="编组备份-3" transform="translate(30.000000, 987.000000)">
                <g id="next_normal" transform="translate(80.000000, 5.000000)">
                    <polygon id="rect1141-5备份" stroke="#FFFFFF" fill="#000000" opacity="0" points="-9.47390314e-14 0 40 0 40 40 -9.47390314e-14 40"></polygon>
                    <path d="M16,14.8915284 L16,25.8915284 L15,25.8915284 L15,14.8915284 L16,14.8915284 Z M25.9961845,16.8349198 L25.99995,16.9970589 L25.99995,23.785998 C25.99995,25.3840995 24.9295521,26.0389911 23.581803,25.3008592 L23.4414239,25.2195131 L18.0996114,21.9550722 C16.7309675,21.1186786 16.6879449,19.7905597 17.9535986,18.9224948 L18.0996114,18.8279847 L23.4414239,15.5635437 C24.8134472,14.725085 25.9236926,15.3004664 25.9961845,16.8349198 Z M24.2368763,16.2552221 L24.1442446,16.3059879 L18.306654,19.8734044 C17.8740759,20.1377577 17.8410514,20.5600677 18.2155183,20.849292 L18.3091709,20.9135412 L24.1640473,24.4894693 C24.6001312,24.7558122 24.9638867,24.5867367 25.0093577,24.1118949 L25.0141401,24.0055103 L24.9966826,16.7911864 C24.9954184,16.2687317 24.6628853,16.0489565 24.2368763,16.2552221 Z" id="Combined-Shape" fill-opacity="0.4" fill="#C0C6D4" fill-rule="nonzero" transform="translate(20.499975, 20.391528) scale(-1, 1) translate(-20.499975, -20.391528) "></path>
                </g>
            </g>
        </g>
    </g>
</svg>