<?xml version="1.0" encoding="UTF-8"?>
<svg width="142px" height="142px" viewBox="0 0 142 142" version="1.1" xmlns="http://www.w3.org/2000/svg" xmlns:xlink="http://www.w3.org/1999/xlink">
    <!-- Generator: Sketch 46.2 (44496) - http://www.bohemiancoding.com/sketch -->
    <title>info_cover</title>
    <desc>Created with Sketch.</desc>
    <defs>
        <rect id="path-1" x="0" y="0" width="140" height="140"></rect>
        <path d="M58.0678776,47.6301069 C58.0226121,44.1649357 60.7464896,40.8101324 64.1682901,40.1336898 L89.4533039,35.1351924 C94.0037451,34.2356332 97.7137349,37.2626286 97.7398791,41.9105783 L98,88.1551817 C98,88.1551817 98,95.7168603 89.5197281,97.4324355 C81.0394561,99.1480106 79.0460119,95.2946188 78.2947675,92.8695028 C77.5435231,90.4443867 77.3342236,87.4867512 79.4534418,84.7085569 C81.5726599,81.9303625 85.1028287,81.2892608 86.6618915,80.9364229 C88.2209542,80.5835849 92.0920238,80.5016031 93.0365424,79.1033162 C93.9810611,77.7050293 93.8766541,74.8015661 93.8766541,74.8015661 L93.7928497,54.2329971 C93.7857624,52.4935276 92.3960551,51.3537719 90.6878732,51.6874726 L65.3718572,56.6330652 C63.6641134,56.9666803 62.2844234,58.648373 62.2899435,60.3901463 C62.2899435,60.3901463 62.3905355,88.9834306 62.2952531,92.0051864 C62.1999707,95.0269422 61.9305572,96.8365539 60.9525313,99.3269667 C59.9745053,101.817379 58.7709117,102.768997 56.6558213,103.88047 C54.5407308,104.991944 49.5333252,105.348645 47.0275586,104.618307 C44.5217919,103.887969 42,101.223435 42,97.4324355 C42,93.6414361 43.3020182,92.0600516 44.7105985,90.8552151 C46.7682896,89.0951585 50.6276634,88.0737072 53.4080369,87.6236295 C55.5527498,87.2764505 57.395411,87.6236295 57.9859172,84.7085569 C58.5764235,81.7934842 58.0678776,47.6301069 58.0678776,47.6301069 Z" id="path-2"></path>
    </defs>
    <g id="Page-1" stroke="none" stroke-width="1" fill="none" fill-rule="evenodd">
        <g id="info_cover" transform="translate(1.000000, 1.000000)">
            <g id="Group-22">
                <g id="Rectangle-90">
                    <use fill-opacity="0.4" fill="#FFFFFF" fill-rule="evenodd" xlink:href="#path-1"></use>
                    <rect stroke-opacity="0.1" stroke="#000000" stroke-width="0.7" x="-0.35" y="-0.35" width="140.7" height="140.7"></rect>
                </g>
                <g id="Path-21">
                    <use fill="#92DE00" fill-rule="evenodd" xlink:href="#path-2"></use>
                    <path stroke-opacity="0.5" stroke="#05C208" stroke-width="1" d="M58.5678349,47.6235759 L58.5678222,47.6226648 C58.5694153,47.7296885 58.5723982,47.935345 58.5765747,48.2317211 C58.5835346,48.725609 58.5912895,49.293981 58.5996408,49.9287494 C58.6235009,51.7423135 58.6473606,53.724399 58.6696298,55.8103092 C58.7081619,59.41953 58.7377896,62.9522186 58.755002,66.2656146 C58.8099024,76.8339932 58.7353414,83.5273913 58.4759638,84.8078256 C58.0101965,87.1071166 57.0414118,87.7022385 54.5598588,87.9805023 C53.9560563,88.0482084 53.7828786,88.0694601 53.4879352,88.1172045 C49.9832316,88.6845343 46.7289389,89.7867748 45.0356025,91.2351789 C43.2822736,92.7348978 42.5,94.3254462 42.5,97.4324355 C42.5,100.686094 44.5642587,103.379542 47.1674684,104.138281 C49.5772696,104.840648 54.4467856,104.476478 56.4232319,103.437862 C58.7052576,102.238664 59.6388391,101.304265 60.4871332,99.1441973 C61.3967657,96.8279394 61.6964591,95.1304284 61.7955015,91.9894282 C61.8349002,90.7399519 61.844033,85.0338375 61.8304277,76.3272325 C61.826377,73.7350266 61.8204377,70.979389 61.8131068,68.1511596 C61.8080405,66.1965649 61.8026122,64.3228462 61.797184,62.5961265 C61.7952841,61.9917786 61.794108,61.6299065 61.7919368,60.9759818 C61.7903084,60.4947353 61.7903084,60.4947353 61.789946,60.3917309 C61.7836665,58.410338 63.3327654,56.5219591 65.2759922,56.1423414 L90.5920082,51.1967487 C92.6079687,50.8029222 94.284479,52.1775262 94.2928455,54.2309599 L94.3763312,74.783598 C94.3768914,74.799454 94.3768914,74.799454 94.3782722,74.8600258 C94.3832841,75.1196227 94.3792135,75.4474028 94.3592727,75.818715 C94.3299141,76.3653939 94.2707762,76.9048003 94.1742987,77.4134102 C94.0228534,78.2118 93.7903982,78.8805506 93.450874,79.38319 C92.8835961,80.2230011 91.6704251,80.6627065 89.7077249,80.9844985 C89.3928464,81.036124 89.0697481,81.0831616 88.6594436,81.1386217 C88.6208739,81.1438351 87.8970517,81.2399604 87.7051897,81.2667538 C87.2856263,81.3253455 86.9960013,81.3734537 86.7722575,81.4240901 C86.7443389,81.4304085 86.1709231,81.5573199 85.9778373,81.6019084 C85.6325861,81.6816358 85.3238536,81.7591437 85.0152999,81.845546 C84.2227726,82.0674725 83.4977912,82.3309718 82.8155784,82.6627349 C81.6089123,83.249542 80.6097897,84.017048 79.8509852,85.0118047 C78.1016821,87.305058 77.8840457,89.8539021 78.7723763,92.7215507 C79.9482106,96.517299 82.7387987,98.2941015 89.4205855,96.9423633 C92.5801467,96.3031781 94.7250226,94.8028663 96.0562037,92.6981948 C96.6875865,91.6999435 97.0944992,90.6276907 97.3206019,89.5552483 C97.3995997,89.1805483 97.4502576,88.8334789 97.4782595,88.523571 C97.4946882,88.341748 97.5,88.215774 97.5000079,88.1579941 L97.2398871,41.9133907 C97.215521,37.5815671 93.794914,34.7865925 89.5502704,35.6256998 L64.2652566,40.6241972 C61.0823395,41.2534159 58.5256905,44.3973245 58.5678349,47.6235759 Z"></path>
                </g>
            </g>
        </g>
    </g>
</svg>