<?xml version="1.0" encoding="UTF-8"?>
<svg width="27px" height="23px" viewBox="0 0 27 23" version="1.1" xmlns="http://www.w3.org/2000/svg" xmlns:xlink="http://www.w3.org/1999/xlink">
    <!-- Generator: Sketch 46.2 (44496) - http://www.bohemiancoding.com/sketch -->
    <title>show_lyc_press</title>
    <desc>Created with Sketch.</desc>
    <defs></defs>
    <g id="Page-1" stroke="none" stroke-width="1" fill="none" fill-rule="evenodd">
        <g id="show_lyc_press">
            <g id="cover_lrc_press">
                <rect id="Rectangle-11" fill-opacity="0.288836051" fill="#000000" opacity="0" x="0" y="0" width="27" height="23"></rect>
                <path d="M6,17.5 L6,14.5 L6,13 L7.2,13 L10.8,13 L12,13 L12,14.5 L12,17.5 L12,19 L10.8,19 L7.2,19 L6,19 L6,17.5 Z M7,18 L12,18 L12,13 L7,13 L7,18 Z M22,5.5 L22,8.5 L22,10 L20.8,10 L17.2,10 L16,10 L16,8.5 L16,5.5 L16,4 L17.2,4 L20.8,4 L22,4 L22,5.5 Z M21,5 L16,5 L16,10 L21,10 L21,5 Z M18.1868867,8.52022006 L17.5202201,9.18688672 L17.1666667,9.54044011 L16.4595599,8.83333333 L16.8131133,8.47977994 L17.4797799,7.81311328 L17.8333333,7.45955989 L18.5404401,8.16666667 L18.1868867,8.52022006 Z M10.7273268,15.0606602 L10.0606602,15.7273268 L9.70710678,16.0808802 L9,15.3737734 L9.35355339,15.0202201 L10.0202201,14.3535534 L10.3737734,14 L11.0808802,14.7071068 L10.7273268,15.0606602 Z" id="Combined-Shape" fill="#2CA7F8"></path>
            </g>
        </g>
    </g>
</svg>