<?xml version="1.0" encoding="UTF-8"?>
<svg width="24px" height="24px" viewBox="0 0 24 24" version="1.1" xmlns="http://www.w3.org/2000/svg" xmlns:xlink="http://www.w3.org/1999/xlink">
    <!-- Generator: Sketch 56.2 (81672) - https://sketch.com -->
    <title>volume lessen_hover</title>
    <desc>Created with Sketch.</desc>
    <g id="页面-1" stroke="none" stroke-width="1" fill="none" fill-rule="evenodd">
        <g id="按钮规范" transform="translate(-383.000000, -337.000000)" fill="#001A2E">
            <g id="volume-lessen_normal备份" transform="translate(383.000000, 337.000000)">
                <path d="M10.5702371,8.68920021 L12.2412859,7.12285363 C12.5212703,6.86041212 13,7.04628389 13,7.41743224 L13,16.5825678 C13,16.9537161 12.5212703,17.1395879 12.2412859,16.8771464 L10.5702371,15.3107998 C10.0142182,14.7896192 9.28068938,14.4995824 8.51859611,14.4995824 L7,14.4995824 C5.8954305,14.4995824 5,13.6041519 5,12.4995824 L5,11.5004176 C5,10.3958481 5.8954305,9.50041759 7,9.50041759 L8.51859611,9.50041759 C9.28068938,9.50041759 10.0142182,9.2103808 10.5702371,8.68920021 Z M19.1411394,5.42946812 C19.1411394,5.19227943 19.3334019,5 19.5705697,5 C19.8077375,5 20,5.19227943 20,5.42946812 L20,17.5705319 C20,17.8077206 19.8077375,18 19.5705697,18 C19.3334019,18 19.1411394,17.8077206 19.1411394,17.5705319 L19.1411394,5.42946812 Z M16.5645577,7.01248761 C16.5645577,6.77529892 16.7568202,6.58301949 16.993988,6.58301949 C17.2311558,6.58301949 17.4234183,6.77529892 17.4234183,7.01248761 L17.4234183,15.9875124 C17.4234183,16.2247011 17.2311558,16.4169805 16.993988,16.4169805 C16.7568202,16.4169805 16.5645577,16.2247011 16.5645577,15.9875124 L16.5645577,7.01248761 Z M14,8.57661051 C14,8.33942181 14.1922625,8.14714239 14.4294303,8.14714239 C14.6665981,8.14714239 14.8588606,8.33942181 14.8588606,8.57661051 L14.8588606,14.3864552 C14.8588606,14.6236439 14.6665981,14.8159234 14.4294303,14.8159234 C14.1922625,14.8159234 14,14.6236439 14,14.3864552 L14,8.57661051 Z" id="Combined-Shape"></path>
            </g>
        </g>
    </g>
</svg>