<?xml version="1.0" encoding="UTF-8"?>
<svg width="128px" height="128px" viewBox="0 0 128 128" version="1.1" xmlns="http://www.w3.org/2000/svg" xmlns:xlink="http://www.w3.org/1999/xlink">
    <!-- Generator: Sketch 56.2 (81672) - https://sketch.com -->
    <title>icon_import_music</title>
    <desc>Created with Sketch.</desc>
    <g id="页面-1" stroke="none" stroke-width="1" fill="none" fill-rule="evenodd">
        <g id="6-0音乐首次打开" transform="translate(-908.000000, -434.000000)">
            <g id="编组-19" transform="translate(908.000000, 434.000000)">
                <path d="M22.2555408,35.5 C19.2307214,35.5 18.0346172,35.7309784 16.8000155,36.3912506 C15.7577145,36.9486793 14.9486793,37.7577145 14.3912506,38.8000155 C13.7309784,40.0346172 13.5,41.2307214 13.5,44.2555408 L13.5,83.7444592 C13.5,86.7692786 13.7309784,87.9653828 14.3912506,89.1999845 C14.9486793,90.2422855 15.7577145,91.0513207 16.8000155,91.6087494 C18.0346172,92.2690216 19.2307214,92.5 22.2555408,92.5 L75.7444592,92.5 C78.7692786,92.5 79.9653828,92.2690216 81.1999845,91.6087494 C82.2422855,91.0513207 83.0513207,90.2422855 83.6087494,89.1999845 C84.2690216,87.9653828 84.5,86.7692786 84.5,83.7444592 L84.5,44.2555408 C84.5,41.2307214 84.2690216,40.0346172 83.6087494,38.8000155 C83.0513207,37.7577145 82.2422855,36.9486793 81.1999845,36.3912506 C79.9653828,35.7309784 78.7692786,35.5 75.7444592,35.5 L22.2555408,35.5 Z" id="Rectangle备份-2" stroke="#E6E6E6" stroke-width="3" fill="#FFFFFF"></path>
                <path d="M52.2555408,35.5 C49.2307214,35.5 48.0346172,35.7309784 46.8000155,36.3912506 C45.7577145,36.9486793 44.9486793,37.7577145 44.3912506,38.8000155 C43.7309784,40.0346172 43.5,41.2307214 43.5,44.2555408 L43.5,83.7444592 C43.5,86.7692786 43.7309784,87.9653828 44.3912506,89.1999845 C44.9486793,90.2422855 45.7577145,91.0513207 46.8000155,91.6087494 C48.0346172,92.2690216 49.2307214,92.5 52.2555408,92.5 L105.744459,92.5 C108.769279,92.5 109.965383,92.2690216 111.199985,91.6087494 C112.242286,91.0513207 113.051321,90.2422855 113.608749,89.1999845 C114.269022,87.9653828 114.5,86.7692786 114.5,83.7444592 L114.5,44.2555408 C114.5,41.2307214 114.269022,40.0346172 113.608749,38.8000155 C113.051321,37.7577145 112.242286,36.9486793 111.199985,36.3912506 C109.965383,35.7309784 108.769279,35.5 105.744459,35.5 L52.2555408,35.5 Z" id="Rectangle备份-17" stroke="#E6E6E6" stroke-width="3" fill="#FFFFFF"></path>
                <path d="M32.2555408,23.5 C29.2307214,23.5 28.0346172,23.7309784 26.8000155,24.3912506 C25.7577145,24.9486793 24.9486793,25.7577145 24.3912506,26.8000155 C23.7309784,28.0346172 23.5,29.2307214 23.5,32.2555408 L23.5,95.7444592 C23.5,98.7692786 23.7309784,99.9653828 24.3912506,101.199985 C24.9486793,102.242286 25.7577145,103.051321 26.8000155,103.608749 C28.0346172,104.269022 29.2307214,104.5 32.2555408,104.5 L95.7444592,104.5 C98.7692786,104.5 99.9653828,104.269022 101.199985,103.608749 C102.242286,103.051321 103.051321,102.242286 103.608749,101.199985 C104.269022,99.9653828 104.5,98.7692786 104.5,95.7444592 L104.5,32.2555408 C104.5,29.2307214 104.269022,28.0346172 103.608749,26.8000155 C103.051321,25.7577145 102.242286,24.9486793 101.199985,24.3912506 C99.9653828,23.7309784 98.7692786,23.5 95.7444592,23.5 L32.2555408,23.5 Z" id="形状结合" stroke="#E6E6E6" stroke-width="3" fill="#FFFFFF"></path>
                <path d="M76.3333333,66.8696491 L76.3333333,48.1770549 C76.3333333,47.8132958 76.0384483,47.5184108 75.6746893,47.5184108 C75.6372783,47.5184108 75.5999354,47.5215982 75.5630656,47.5279385 L54.2113162,51.1996381 C53.8963147,51.2538066 53.6656696,51.526314 53.6643018,51.8459362 L53.5576996,76.7579813 C53.8432746,77.4899786 54,78.2864569 54,79.1195404 C54,82.7093912 51.0898509,85.6195404 47.5,85.6195404 C43.9101491,85.6195404 41,82.7093912 41,79.1195404 C41,75.5296895 43.9101491,72.6195404 47.5,72.6195404 C48.7886423,72.6195404 49.9896995,72.9945368 51,73.6413583 L51,46.4398645 C51,45.4876565 51.67912,44.6708856 52.6153377,44.4971139 L76.6634733,40.0335325 C77.7364248,39.8343817 78.7676675,40.5427371 78.9668183,41.6156886 C78.9888928,41.7346177 79,41.8553226 79,41.9762831 L79,72.0816499 C78.9999639,72.0942716 79,72.1069018 79,72.1195404 C79,75.7093912 76.0898509,78.6195404 72.5,78.6195404 C68.9101491,78.6195404 66,75.7093912 66,72.1195404 C66,68.5296895 68.9101491,65.6195404 72.5,65.6195404 C73.9335019,65.6195404 75.2586205,66.0835841 76.3333333,66.8696491 Z" id="Combined-Shape" fill="#E6E6E6"></path>
                <circle id="椭圆形" stroke="#E6E6E6" stroke-width="3" fill="#FFFFFF" cx="101" cy="86" r="19"></circle>
                <path d="M107.307034,85.6269144 C107.39234,85.6269144 107.480692,85.6475832 107.553812,85.6977787 C108.114392,86.0845794 108.108299,86.7105469 107.748796,87.0648682 L101.119323,93.587332 C100.781147,93.9180318 100.229706,93.9239372 99.8884831,93.59619 L99.8793432,93.587332 L93.2498698,87.0648682 C92.9116935,86.7312157 92.9177868,86.1967811 93.2620563,85.8719866 C93.4235279,85.7184474 93.6428855,85.6298671 93.8683363,85.6298671 L96.9637154,85.6298671 L96.9637154,78.4222328 C96.9637154,78.1889713 97.1586999,78 97.3993839,78 L103.599282,78 C103.839966,78 104.034951,78.1889713 104.034951,78.4222328 L104.034951,85.6269144 L107.307034,85.6269144 Z" id="形状" fill="#E6E6E6" fill-rule="nonzero" transform="translate(100.500000, 85.919355) scale(1, -1) rotate(-270.000000) translate(-100.500000, -85.919355) "></path>
            </g>
        </g>
    </g>
</svg>