<?xml version="1.0" encoding="UTF-8"?>
<svg width="48px" height="48px" viewBox="0 0 48 48" version="1.1" xmlns="http://www.w3.org/2000/svg" xmlns:xlink="http://www.w3.org/1999/xlink">
    <title>编组 14</title>
    <g id="浅色主题" stroke="none" stroke-width="1" fill="none" fill-rule="evenodd">
        <g id="编组-14">
            <rect id="path-1备份" fill="#FFFFFF" fill-rule="nonzero" x="0" y="0" width="48" height="48" rx="0.95049505"></rect>
            <g id="Path-21备份" transform="translate(14.257426, 11.643564)">
                <path d="M5.45444219,4.52507164 C5.43907625,3.34877589 6.36373057,2.20994595 7.52530356,1.98031903 L16.108618,0.283516515 C17.6533221,-0.0218501228 18.9127248,1.00570137 18.9215998,2.58350607 L19.009901,18.2818156 C19.009901,18.2818156 19.009901,20.8487221 16.1311666,21.4310956 C13.2524322,22.0134689 12.5757324,20.7053869 12.3207132,19.8821508 C12.0656939,19.0589149 11.9946444,18.0549084 12.7140397,17.1118156 C13.4334347,16.1687228 14.6317949,15.9510927 15.1610381,15.8313175 C15.6902816,15.7115423 17.0043645,15.6837125 17.3249931,15.2090464 C17.6456219,14.7343806 17.6101796,13.7487636 17.6101796,13.7487636 L17.5817311,6.76650539 C17.5793254,6.1760207 17.1075716,5.78911635 16.5277081,5.90239521 L7.9338695,7.58123855 C7.35415447,7.69448837 6.88580143,8.26536002 6.88767531,8.85662676 C6.88767531,8.85662676 6.92182253,18.5629751 6.88947773,19.588748 C6.85713291,20.6145208 6.76567713,21.228816 6.43367399,22.0742179 C6.10167082,22.9196196 5.69309591,23.2426579 4.975102,23.6199617 C4.25710807,23.9972652 2.55728155,24.1183518 1.70666768,23.8704297 C0.856053838,23.6225073 0,22.7179977 0,21.4310956 C0,20.1441933 0.441986352,19.6073724 0.920146598,19.1983756 C1.6186556,18.6009025 2.92876836,18.2541581 3.87260093,18.1013736 C4.60065056,17.9835194 5.22616496,18.1013736 5.42661971,17.1118156 C5.62707443,16.1222578 5.45444219,4.52507164 5.45444219,4.52507164 Z" id="path-3" fill="#92DE00" fill-rule="nonzero"></path>
                <path d="M5.75144654,4.52119188 L5.75143899,4.52065062 C5.75197998,4.55699442 5.75299335,4.62686048 5.75441161,4.72750341 C5.75677476,4.89519871 5.75940779,5.08817931 5.76224329,5.30369998 C5.77034421,5.91943763 5.77844495,6.59238558 5.78600569,7.30058474 C5.79908821,8.5259971 5.8091476,9.72543854 5.81499189,10.8504667 C5.83375464,14.4623126 5.80857914,16.7223367 5.71773652,17.1707872 C5.54626265,18.017279 5.1688823,18.2491029 4.27778676,18.3490242 C4.07507613,18.3717545 4.01734408,18.3788393 3.92006526,18.3945864 C2.75163752,18.5837275 1.66568091,18.9515449 1.11321826,19.4240968 C0.545456008,19.9097351 0.297029703,20.4148448 0.297029703,21.4310956 C0.297029703,22.4784618 0.959909418,23.3433883 1.78978244,23.5852655 C2.5772069,23.8147704 4.19627698,23.693687 4.83693011,23.357026 C5.58633614,22.9632154 5.88142363,22.6678693 6.1571999,21.9656419 C6.460153,21.1942123 6.55940303,20.6320441 6.59259557,19.5793865 C6.60589979,19.1574606 6.60900207,17.219198 6.60438863,14.2668691 C6.60301364,13.3869598 6.60099754,12.4515667 6.59850912,11.4915298 C6.59678935,10.8280429 6.59494672,10.1920088 6.59310411,9.60587451 C6.5924592,9.4007299 6.59186036,9.21647717 6.59132295,9.05592204 C6.59077022,8.89256835 6.59077022,8.89256835 6.5906471,8.8575681 C6.58832203,8.12393102 7.15733568,7.43029333 7.87692,7.28971944 L16.4707585,5.6108761 C17.2334996,5.46187136 17.8755928,5.98833631 17.8787584,6.76529518 L17.9070173,13.7380895 C17.9072414,13.7444799 17.9072414,13.7444799 17.907735,13.7661512 C17.9094927,13.8571984 17.9080731,13.9715109 17.9011257,14.100874 C17.8908756,14.2917391 17.8701992,14.480333 17.836287,14.6591107 C17.7819343,14.9456476 17.6977352,15.1878798 17.5711307,15.3753082 C17.3511738,15.7009373 16.9172134,15.8582234 16.2155805,15.9732587 C16.1073153,15.9910092 15.9965496,16.0071348 15.8561838,16.0261076 C15.8427156,16.0279281 15.5974322,16.0605023 15.532805,16.0695274 C15.3936454,16.088961 15.2982361,16.1048091 15.2266021,16.1210208 C15.216599,16.1232846 15.022329,16.1662814 14.9574701,16.1812591 C14.8420446,16.2079138 14.7390787,16.2337637 14.6364081,16.2625138 C14.3742444,16.3359258 14.1351393,16.4228303 13.9110309,16.5318152 C13.5182671,16.7228179 13.1948191,16.9712842 12.950204,17.2919629 C12.3843583,18.0337597 12.3140726,18.8569103 12.6044412,19.7942585 C12.9847511,21.0219495 13.8698669,21.5855137 16.0722699,21.1399635 C17.1104585,20.9299359 17.8089728,20.4413347 18.2424699,19.7559519 C18.4481052,19.4308308 18.5809076,19.080884 18.6547105,18.7308247 C18.6804594,18.608693 18.6969374,18.4957996 18.7060078,18.3954145 C18.7112286,18.337632 18.712876,18.2986752 18.712876,18.2834863 L18.6245748,2.5851768 C18.616753,1.19460276 17.528708,0.305562392 16.1662218,0.57490705 L7.58290743,2.27170957 C6.56259726,2.47341077 5.73794326,3.48748691 5.75144654,4.52119188 Z" id="路径" stroke-opacity="0.5" stroke="#05C208" stroke-width="0.594059406"></path>
            </g>
        </g>
    </g>
</svg>