<?xml version="1.0" encoding="UTF-8"?>
<svg width="24px" height="24px" viewBox="0 0 24 24" version="1.1" xmlns="http://www.w3.org/2000/svg" xmlns:xlink="http://www.w3.org/1999/xlink">
    <title>音乐</title>
    <g id="一期" stroke="none" stroke-width="1" fill="none" fill-rule="evenodd">
        <g id="0音乐-主窗口-缺省1" transform="translate(-454.000000, -828.000000)" fill-rule="nonzero">
            <g id="音乐" transform="translate(416.000000, 200.000000)">
                <g id="音乐底部控制栏normal" transform="translate(10.000000, 610.000000)">
                    <g id="Group-7" transform="translate(20.000000, 10.000000)">
                        <g id="音乐" transform="translate(8.000000, 8.000000)">
                            <rect id="矩形" fill="#000000" opacity="0" x="0" y="0" width="24" height="24"></rect>
                            <path d="M19.7986845,1.5150288 L8.460204,3.40912062 C8.42346091,3.41499663 8.38916416,3.42576534 8.35582676,3.43852467 L7.94625645,3.43852467 C7.6669898,3.43852467 7.44506824,3.6619332 7.44506824,3.93729052 L7.44506824,16.8989185 C7.0026642,16.6431559 6.48821299,16.4971909 5.93999269,16.4971909 C4.27763177,16.4971909 2.92984158,17.8415514 2.92984158,19.5004587 C2.92984158,21.1593659 4.27763177,22.5036785 5.93999269,22.5036785 C7.60232963,22.5036785 8.9501438,21.159318 8.9501438,19.5004107 C8.9501438,19.3789091 8.94278079,19.2593502 8.92906209,19.1427652 C8.94278079,19.0967164 8.9501438,19.048701 8.9501438,18.9977355 L8.9501438,8.45637858 L19.4856247,6.59855018 L19.4856247,13.8946194 C19.0432207,13.6398402 18.5287695,13.4928439 17.9805492,13.4928439 C16.3181883,13.4928439 14.9703981,14.8381877 14.9703981,16.4971429 C14.9703981,18.1550669 16.3181883,19.5004107 17.9805492,19.5004107 C19.6428861,19.5004107 20.9906763,18.1550669 20.9906763,16.4971429 C20.9906763,16.3756413 20.9833373,16.2560824 20.9696186,16.1385141 C20.9833373,16.0924173 20.9906763,16.0444019 20.9906763,15.9934844 L20.9906763,1.97849058 C20.9906763,1.73352066 20.8128369,1.52872352 20.5786597,1.48756741 C20.4968272,1.43662596 20.3939369,1.41604791 20.2807577,1.4346593 L20.0142504,1.47972473 L19.986813,1.47972473 C19.9201861,1.47974873 19.8564853,1.49248409 19.7986845,1.5150288 Z" id="路径" fill="#757575"></path>
                        </g>
                    </g>
                </g>
            </g>
        </g>
    </g>
</svg>